<?xml version="1.0" encoding="utf-8"?>
<!-- Generator: Adobe Illustrator 23.0.3, SVG Export Plug-In . SVG Version: 6.00 Build 0)  -->
<svg version="1.1" id="レイヤー_1" xmlns="http://www.w3.org/2000/svg" xmlns:xlink="http://www.w3.org/1999/xlink" x="0px"
	 y="0px" width="722.26px" height="490.33px" viewBox="0 0 722.26 490.33" enable-background="new 0 0 722.26 490.33"
	 xml:space="preserve">
<g>
	
		<image overflow="visible" opacity="0.8" width="989" height="578" xlink:href="B7AAC392DC622ABE.png"  transform="matrix(1 0 0 1 -127.6196 -43.6383)">
	</image>
	<g>
		<g>
			<defs>
				<path id="card_22_" d="M680.88,450.02h-640c-11.05,0-20-8.95-20-20V43.05c0-11.05,8.95-20,20-20h640c11.05,0,20,8.95,20,20
					v386.98C700.88,441.07,691.93,450.02,680.88,450.02z"/>
			</defs>
			<clipPath id="card_3_">
				<use xlink:href="#card_22_"  overflow="visible"/>
			</clipPath>
			<g clip-path="url(#card_3_)">
				
					<image overflow="visible" width="3840" height="2160" xlink:href="../../../../../プリペイドカード/Enlight21.jpg"  transform="matrix(0.2446 0 0 0.2446 -110.6967 -26.9523)">
				</image>
			</g>
		</g>
	</g>
</g>
<g id="card_19_" opacity="0.9">
	<linearGradient id="SVGID_1_" gradientUnits="userSpaceOnUse" x1="89.8181" y1="-34.527" x2="631.9443" y2="507.5992">
		<stop  offset="0" style="stop-color:#FFFFFF"/>
		<stop  offset="1" style="stop-color:#FFFFFF;stop-opacity:0"/>
	</linearGradient>
	<path fill="none" stroke="url(#SVGID_1_)" stroke-width="0.5" stroke-miterlimit="10" d="M680.88,450.02h-640
		c-11.05,0-20-8.95-20-20V43.05c0-11.05,8.95-20,20-20h640c11.05,0,20,8.95,20,20v386.98C700.88,441.07,691.93,450.02,680.88,450.02
		z"/>
</g>
<g>
	<path d="M206.99,480.46c-0.32,0.16-0.96,0.32-1.78,0.32c-1.9,0-3.33-1.2-3.33-3.41c0-2.11,1.43-3.54,3.52-3.54
		c0.84,0,1.37,0.18,1.6,0.3l-0.21,0.71c-0.33-0.16-0.8-0.28-1.36-0.28c-1.58,0-2.63,1.01-2.63,2.78c0,1.65,0.95,2.71,2.59,2.71
		c0.53,0,1.07-0.11,1.42-0.28L206.99,480.46z"/>
	<path d="M212.82,478.22c0,1.79-1.24,2.57-2.41,2.57c-1.31,0-2.32-0.96-2.32-2.49c0-1.62,1.06-2.57,2.4-2.57
		C211.88,475.73,212.82,476.74,212.82,478.22z M208.98,478.27c0,1.06,0.61,1.86,1.47,1.86c0.84,0,1.47-0.79,1.47-1.88
		c0-0.82-0.41-1.86-1.45-1.86C209.43,476.39,208.98,477.35,208.98,478.27z"/>
	<path d="M214.43,477.42c0-0.62-0.02-1.12-0.04-1.58h0.79l0.04,0.83h0.02c0.36-0.59,0.93-0.94,1.72-0.94c1.17,0,2.05,0.99,2.05,2.46
		c0,1.74-1.06,2.6-2.2,2.6c-0.64,0-1.2-0.28-1.49-0.76h-0.02v2.63h-0.87V477.42z M215.3,478.71c0,0.13,0.02,0.25,0.04,0.36
		c0.16,0.61,0.69,1.03,1.32,1.03c0.93,0,1.47-0.76,1.47-1.87c0-0.97-0.51-1.8-1.44-1.8c-0.6,0-1.16,0.43-1.33,1.09
		c-0.03,0.11-0.06,0.24-0.06,0.36V478.71z"/>
	<path d="M220.87,475.84l1.06,2.86c0.11,0.32,0.23,0.7,0.31,0.99h0.02c0.09-0.29,0.19-0.66,0.31-1.01l0.96-2.84h0.93l-1.32,3.45
		c-0.63,1.66-1.06,2.51-1.66,3.03c-0.43,0.38-0.86,0.53-1.08,0.57l-0.22-0.74c0.22-0.07,0.51-0.21,0.77-0.43
		c0.24-0.19,0.54-0.53,0.74-0.98c0.04-0.09,0.07-0.16,0.07-0.21s-0.02-0.12-0.06-0.23l-1.79-4.46H220.87z"/>
	<path d="M225.76,477.35c0-0.57-0.01-1.06-0.04-1.51h0.77l0.03,0.95h0.04c0.22-0.65,0.75-1.06,1.34-1.06c0.1,0,0.17,0.01,0.25,0.03
		v0.83c-0.09-0.02-0.18-0.03-0.3-0.03c-0.62,0-1.06,0.47-1.18,1.13c-0.02,0.12-0.04,0.26-0.04,0.41v2.58h-0.87V477.35z"/>
	<path d="M230.55,474.48c0.01,0.3-0.21,0.54-0.56,0.54c-0.31,0-0.53-0.24-0.53-0.54c0-0.31,0.23-0.55,0.55-0.55
		C230.34,473.93,230.55,474.17,230.55,474.48z M229.57,480.68v-4.84h0.88v4.84H229.57z"/>
	<path d="M236.58,475.84c-0.02,0.35-0.04,0.74-0.04,1.33v2.81c0,1.11-0.22,1.79-0.69,2.21c-0.47,0.44-1.15,0.58-1.76,0.58
		c-0.58,0-1.22-0.14-1.61-0.4l0.22-0.67c0.32,0.2,0.82,0.38,1.42,0.38c0.9,0,1.56-0.47,1.56-1.69v-0.54h-0.02
		c-0.27,0.45-0.79,0.81-1.54,0.81c-1.2,0-2.06-1.02-2.06-2.36c0-1.64,1.07-2.57,2.18-2.57c0.84,0,1.3,0.44,1.51,0.84h0.02l0.04-0.73
		H236.58z M235.67,477.75c0-0.15-0.01-0.28-0.05-0.4c-0.16-0.51-0.59-0.93-1.23-0.93c-0.84,0-1.44,0.71-1.44,1.83
		c0,0.95,0.48,1.74,1.43,1.74c0.54,0,1.03-0.34,1.22-0.9c0.05-0.15,0.07-0.32,0.07-0.47V477.75z"/>
	<path d="M238.5,473.58h0.88v3.02h0.02c0.14-0.25,0.36-0.47,0.63-0.62c0.26-0.15,0.57-0.25,0.9-0.25c0.65,0,1.69,0.4,1.69,2.07v2.88
		h-0.88v-2.78c0-0.78-0.29-1.44-1.12-1.44c-0.57,0-1.02,0.4-1.18,0.88c-0.05,0.12-0.06,0.25-0.06,0.42v2.92h-0.88V473.58z"/>
	<path d="M245.57,474.45v1.39h1.26v0.67h-1.26v2.61c0,0.6,0.17,0.94,0.66,0.94c0.23,0,0.4-0.03,0.51-0.06l0.04,0.66
		c-0.17,0.07-0.44,0.12-0.78,0.12c-0.41,0-0.74-0.13-0.95-0.37c-0.25-0.26-0.34-0.69-0.34-1.26v-2.64h-0.75v-0.67h0.75v-1.16
		L245.57,474.45z"/>
	<path d="M252.85,473.74c-0.73,0.98-1.26,2.28-1.26,4.09c0,1.78,0.55,3.06,1.26,4.06h-0.69c-0.63-0.83-1.31-2.11-1.31-4.06
		c0.01-1.97,0.68-3.25,1.31-4.09H252.85z"/>
	<path d="M258.9,480.46c-0.32,0.16-0.96,0.32-1.78,0.32c-1.9,0-3.33-1.2-3.33-3.41c0-2.11,1.43-3.54,3.52-3.54
		c0.84,0,1.37,0.18,1.6,0.3l-0.21,0.71c-0.33-0.16-0.8-0.28-1.36-0.28c-1.58,0-2.63,1.01-2.63,2.78c0,1.65,0.95,2.71,2.59,2.71
		c0.53,0,1.07-0.11,1.42-0.28L258.9,480.46z"/>
	<path d="M260.1,481.89c0.71-0.99,1.26-2.29,1.26-4.09c0-1.79-0.54-3.07-1.26-4.06h0.68c0.64,0.82,1.31,2.1,1.31,4.07
		c0,1.96-0.67,3.23-1.31,4.08H260.1z"/>
	<path d="M266.31,480.68v-0.54l0.69-0.67c1.66-1.58,2.41-2.42,2.42-3.4c0-0.66-0.32-1.27-1.29-1.27c-0.59,0-1.08,0.3-1.38,0.55
		l-0.28-0.62c0.45-0.38,1.09-0.66,1.84-0.66c1.4,0,1.99,0.96,1.99,1.89c0,1.2-0.87,2.17-2.24,3.49l-0.52,0.48v0.02h2.92v0.73H266.31
		z"/>
	<path d="M276.26,477.36c0,2.21-0.82,3.43-2.26,3.43c-1.27,0-2.13-1.19-2.15-3.34c0-2.18,0.94-3.38,2.26-3.38
		C275.48,474.07,276.26,475.29,276.26,477.36z M272.73,477.46c0,1.69,0.52,2.65,1.32,2.65c0.9,0,1.33-1.05,1.33-2.71
		c0-1.6-0.41-2.65-1.32-2.65C273.29,474.75,272.73,475.69,272.73,477.46z"/>
	<path d="M279.48,475h-0.02l-1.13,0.61l-0.17-0.67l1.42-0.76h0.75v6.5h-0.85V475z"/>
	<path d="M287.52,477.36c0,2.21-0.82,3.43-2.26,3.43c-1.27,0-2.13-1.19-2.15-3.34c0-2.18,0.94-3.38,2.26-3.38
		C286.74,474.07,287.52,475.29,287.52,477.36z M283.99,477.46c0,1.69,0.52,2.65,1.32,2.65c0.9,0,1.33-1.05,1.33-2.71
		c0-1.6-0.41-2.65-1.32-2.65C284.55,474.75,283.99,475.69,283.99,477.46z"/>
	<path d="M293.77,477.65v0.65h-2.47v-0.65H293.77z"/>
	<path d="M297.64,480.68v-0.54l0.69-0.67c1.66-1.58,2.41-2.42,2.42-3.4c0-0.66-0.32-1.27-1.29-1.27c-0.59,0-1.08,0.3-1.38,0.55
		l-0.28-0.62c0.45-0.38,1.09-0.66,1.84-0.66c1.4,0,1.99,0.96,1.99,1.89c0,1.2-0.87,2.17-2.24,3.49l-0.52,0.48v0.02h2.92v0.73H297.64
		z"/>
	<path d="M307.59,477.36c0,2.21-0.82,3.43-2.26,3.43c-1.27,0-2.13-1.19-2.15-3.34c0-2.18,0.94-3.38,2.26-3.38
		C306.81,474.07,307.59,475.29,307.59,477.36z M304.06,477.46c0,1.69,0.52,2.65,1.32,2.65c0.9,0,1.33-1.05,1.33-2.71
		c0-1.6-0.41-2.65-1.32-2.65C304.62,474.75,304.06,475.69,304.06,477.46z"/>
	<path d="M310.81,475h-0.02l-1.13,0.61l-0.17-0.67l1.42-0.76h0.75v6.5h-0.85V475z"/>
	<path d="M315.04,480.06c0.19,0.02,0.41,0,0.71-0.03c0.51-0.07,0.99-0.28,1.36-0.63c0.43-0.39,0.74-0.96,0.86-1.73h-0.03
		c-0.36,0.44-0.88,0.7-1.53,0.7c-1.17,0-1.92-0.88-1.92-1.99c0-1.23,0.89-2.31,2.22-2.31s2.15,1.08,2.15,2.74
		c0,1.43-0.48,2.43-1.12,3.05c-0.5,0.49-1.19,0.79-1.89,0.87c-0.32,0.05-0.6,0.06-0.81,0.05V480.06z M315.36,476.32
		c0,0.81,0.49,1.38,1.25,1.38c0.59,0,1.05-0.29,1.28-0.68c0.05-0.08,0.08-0.18,0.08-0.32c0-1.11-0.41-1.96-1.33-1.96
		C315.89,474.74,315.36,475.4,315.36,476.32z"/>
	<path d="M322.97,479.62c0.39,0.24,0.96,0.44,1.56,0.44c0.89,0,1.41-0.47,1.41-1.15c0-0.63-0.36-0.99-1.27-1.34
		c-1.1-0.39-1.78-0.96-1.78-1.91c0-1.05,0.87-1.83,2.18-1.83c0.69,0,1.19,0.16,1.49,0.33l-0.24,0.71c-0.22-0.12-0.67-0.32-1.28-0.32
		c-0.92,0-1.27,0.55-1.27,1.01c0,0.63,0.41,0.94,1.34,1.3c1.14,0.44,1.72,0.99,1.72,1.98c0,1.04-0.77,1.94-2.36,1.94
		c-0.65,0-1.36-0.19-1.72-0.43L322.97,479.62z"/>
	<path d="M334.07,481.67c-0.91-0.24-1.8-0.51-2.58-0.78c-0.14-0.05-0.28-0.1-0.41-0.1c-1.6-0.06-2.97-1.24-2.97-3.41
		c0-2.16,1.32-3.55,3.14-3.55c1.83,0,3.02,1.42,3.02,3.41c0,1.73-0.8,2.84-1.92,3.23v0.04c0.67,0.17,1.4,0.33,1.97,0.43
		L334.07,481.67z M333.36,477.28c0-1.35-0.7-2.74-2.13-2.74c-1.47,0-2.19,1.36-2.18,2.82c-0.01,1.43,0.78,2.72,2.14,2.72
		C332.58,480.08,333.36,478.82,333.36,477.28z"/>
	<path d="M336.78,473.94v3.99c0,1.51,0.67,2.15,1.57,2.15c1,0,1.64-0.66,1.64-2.15v-3.99h0.88v3.93c0,2.07-1.09,2.92-2.55,2.92
		c-1.38,0-2.42-0.79-2.42-2.88v-3.97H336.78z"/>
	<path d="M343.63,478.56l-0.7,2.12h-0.9l2.29-6.74h1.05l2.3,6.74h-0.93l-0.72-2.12H343.63z M345.84,477.88l-0.66-1.94
		c-0.15-0.44-0.25-0.84-0.35-1.23h-0.02c-0.1,0.4-0.21,0.81-0.34,1.22l-0.66,1.95H345.84z"/>
	<path d="M349.16,474.03c0.44-0.09,1.07-0.14,1.67-0.14c0.93,0,1.53,0.17,1.95,0.55c0.34,0.3,0.53,0.76,0.53,1.28
		c0,0.89-0.56,1.48-1.27,1.72v0.03c0.52,0.18,0.83,0.66,0.99,1.36c0.22,0.94,0.38,1.59,0.52,1.85h-0.9
		c-0.11-0.19-0.26-0.77-0.45-1.61c-0.2-0.93-0.56-1.28-1.35-1.31h-0.82v2.92h-0.87V474.03z M350.03,477.1h0.89
		c0.93,0,1.52-0.51,1.52-1.28c0-0.87-0.63-1.25-1.55-1.26c-0.42,0-0.72,0.04-0.86,0.08V477.1z"/>
	<path d="M358.53,477.52h-2.62v2.43h2.92v0.73h-3.79v-6.74h3.64v0.73h-2.77v2.13h2.62V477.52z"/>
	<path d="M366.57,477.52h-2.62v2.43h2.92v0.73h-3.79v-6.74h3.64v0.73h-2.77v2.13h2.62V477.52z"/>
	<path d="M368.5,480.68v-6.74h0.95l2.16,3.41c0.5,0.79,0.89,1.5,1.21,2.19l0.02-0.01c-0.08-0.9-0.1-1.72-0.1-2.77v-2.82h0.82v6.74
		h-0.88l-2.14-3.42c-0.47-0.75-0.92-1.52-1.26-2.25l-0.03,0.01c0.05,0.85,0.07,1.66,0.07,2.78v2.88H368.5z"/>
	<path d="M376.45,473.94v6.74h-0.87v-6.74H376.45z"/>
	<path d="M382.15,480.68l-0.86-1.49c-0.35-0.57-0.57-0.94-0.78-1.33h-0.02c-0.19,0.39-0.38,0.75-0.73,1.34l-0.81,1.48h-1l2.06-3.41
		l-1.98-3.33h1.01l0.89,1.58c0.25,0.44,0.44,0.78,0.62,1.14h0.03c0.19-0.4,0.36-0.71,0.61-1.14l0.92-1.58h1l-2.05,3.28l2.1,3.46
		H382.15z"/>
	<path d="M392,480.46c-0.32,0.16-0.96,0.32-1.78,0.32c-1.9,0-3.33-1.2-3.33-3.41c0-2.11,1.43-3.54,3.52-3.54
		c0.84,0,1.37,0.18,1.6,0.3l-0.21,0.71c-0.33-0.16-0.8-0.28-1.36-0.28c-1.58,0-2.63,1.01-2.63,2.78c0,1.65,0.95,2.71,2.59,2.71
		c0.53,0,1.07-0.11,1.42-0.28L392,480.46z"/>
	<path d="M399.14,477.24c0,2.32-1.41,3.55-3.13,3.55c-1.78,0-3.03-1.38-3.03-3.42c0-2.14,1.33-3.54,3.13-3.54
		C397.96,473.83,399.14,475.24,399.14,477.24z M393.92,477.35c0,1.44,0.78,2.73,2.15,2.73c1.38,0,2.16-1.27,2.16-2.8
		c0-1.34-0.7-2.74-2.15-2.74C394.64,474.54,393.92,475.87,393.92,477.35z"/>
	<path d="M400.2,480.16c0-0.37,0.25-0.63,0.6-0.63s0.59,0.26,0.59,0.63c0,0.36-0.23,0.63-0.6,0.63
		C400.44,480.79,400.2,480.52,400.2,480.16z"/>
	<path d="M402.41,481.91c0.22-0.59,0.49-1.66,0.6-2.39l0.98-0.1c-0.23,0.85-0.67,1.96-0.95,2.43L402.41,481.91z"/>
	<path d="M408.2,473.94h0.87v6.01h2.88v0.73h-3.75V473.94z"/>
	<path d="M413.82,474.68h-2.05v-0.74h4.99v0.74h-2.06v6h-0.88V474.68z"/>
	<path d="M418.01,474.03c0.53-0.08,1.16-0.14,1.85-0.14c1.25,0,2.14,0.29,2.73,0.84c0.6,0.55,0.95,1.33,0.95,2.42
		c0,1.1-0.34,2-0.97,2.62c-0.63,0.63-1.67,0.97-2.98,0.97c-0.62,0-1.14-0.03-1.58-0.08V474.03z M418.88,479.99
		c0.22,0.04,0.54,0.05,0.88,0.05c1.86,0,2.87-1.04,2.87-2.86c0.01-1.59-0.89-2.6-2.73-2.6c-0.45,0-0.79,0.04-1.02,0.09V479.99z"/>
	<path d="M424.59,480.16c0-0.37,0.25-0.63,0.6-0.63s0.59,0.26,0.59,0.63c0,0.36-0.23,0.63-0.6,0.63
		C424.83,480.79,424.59,480.52,424.59,480.16z"/>
	<path d="M431.11,478.56l-0.7,2.12h-0.9l2.29-6.74h1.05l2.3,6.74h-0.93l-0.72-2.12H431.11z M433.31,477.88l-0.66-1.94
		c-0.15-0.44-0.25-0.84-0.35-1.23h-0.02c-0.1,0.4-0.21,0.81-0.34,1.22l-0.66,1.95H433.31z"/>
	<path d="M436.58,473.58h0.88v7.1h-0.88V473.58z"/>
	<path d="M439.44,473.58h0.88v7.1h-0.88V473.58z"/>
	<path d="M444.95,474.03c0.44-0.09,1.07-0.14,1.67-0.14c0.93,0,1.53,0.17,1.95,0.55c0.34,0.3,0.53,0.76,0.53,1.28
		c0,0.89-0.56,1.48-1.27,1.72v0.03c0.52,0.18,0.83,0.66,0.99,1.36c0.22,0.94,0.38,1.59,0.52,1.85h-0.9
		c-0.11-0.19-0.26-0.77-0.45-1.61c-0.2-0.93-0.56-1.28-1.35-1.31h-0.82v2.92h-0.87V474.03z M445.82,477.1h0.89
		c0.93,0,1.52-0.51,1.52-1.28c0-0.87-0.63-1.25-1.55-1.26c-0.42,0-0.72,0.04-0.86,0.08V477.1z"/>
	<path d="M451.88,474.48c0.01,0.3-0.21,0.54-0.56,0.54c-0.31,0-0.53-0.24-0.53-0.54c0-0.31,0.23-0.55,0.55-0.55
		C451.67,473.93,451.88,474.17,451.88,474.48z M450.9,480.68v-4.84h0.88v4.84H450.9z"/>
	<path d="M457.9,475.84c-0.02,0.35-0.04,0.74-0.04,1.33v2.81c0,1.11-0.22,1.79-0.69,2.21c-0.47,0.44-1.15,0.58-1.76,0.58
		c-0.58,0-1.22-0.14-1.61-0.4l0.22-0.67c0.32,0.2,0.82,0.38,1.42,0.38c0.9,0,1.56-0.47,1.56-1.69v-0.54h-0.02
		c-0.27,0.45-0.79,0.81-1.54,0.81c-1.2,0-2.06-1.02-2.06-2.36c0-1.64,1.07-2.57,2.18-2.57c0.84,0,1.3,0.44,1.51,0.84h0.02l0.04-0.73
		H457.9z M456.99,477.75c0-0.15-0.01-0.28-0.05-0.4c-0.16-0.51-0.59-0.93-1.23-0.93c-0.84,0-1.44,0.71-1.44,1.83
		c0,0.95,0.48,1.74,1.43,1.74c0.54,0,1.03-0.34,1.22-0.9c0.05-0.15,0.07-0.32,0.07-0.47V477.75z"/>
	<path d="M459.83,473.58h0.88v3.02h0.02c0.14-0.25,0.36-0.47,0.63-0.62c0.26-0.15,0.57-0.25,0.9-0.25c0.65,0,1.69,0.4,1.69,2.07
		v2.88h-0.88v-2.78c0-0.78-0.29-1.44-1.12-1.44c-0.57,0-1.02,0.4-1.18,0.88c-0.05,0.12-0.06,0.25-0.06,0.42v2.92h-0.88V473.58z"/>
	<path d="M466.89,474.45v1.39h1.26v0.67h-1.26v2.61c0,0.6,0.17,0.94,0.66,0.94c0.23,0,0.4-0.03,0.51-0.06l0.04,0.66
		c-0.17,0.07-0.44,0.12-0.78,0.12c-0.41,0-0.74-0.13-0.95-0.37c-0.25-0.26-0.34-0.69-0.34-1.26v-2.64h-0.75v-0.67h0.75v-1.16
		L466.89,474.45z"/>
	<path d="M469.53,479.78c0.26,0.17,0.72,0.35,1.16,0.35c0.64,0,0.94-0.32,0.94-0.72c0-0.42-0.25-0.65-0.9-0.89
		c-0.87-0.31-1.28-0.79-1.28-1.37c0-0.78,0.63-1.42,1.67-1.42c0.49,0,0.92,0.14,1.19,0.3l-0.22,0.64c-0.19-0.12-0.54-0.28-0.99-0.28
		c-0.52,0-0.81,0.3-0.81,0.66c0,0.4,0.29,0.58,0.92,0.82c0.84,0.32,1.27,0.74,1.27,1.46c0,0.85-0.66,1.45-1.81,1.45
		c-0.53,0-1.02-0.13-1.36-0.33L469.53,479.78z"/>
	<path d="M476.76,474.03c0.44-0.09,1.07-0.14,1.67-0.14c0.93,0,1.53,0.17,1.95,0.55c0.34,0.3,0.53,0.76,0.53,1.28
		c0,0.89-0.56,1.48-1.27,1.72v0.03c0.52,0.18,0.83,0.66,0.99,1.36c0.22,0.94,0.38,1.59,0.52,1.85h-0.9
		c-0.11-0.19-0.26-0.77-0.45-1.61c-0.2-0.93-0.56-1.28-1.35-1.31h-0.82v2.92h-0.87V474.03z M477.63,477.1h0.89
		c0.93,0,1.52-0.51,1.52-1.28c0-0.87-0.63-1.25-1.55-1.26c-0.42,0-0.72,0.04-0.86,0.08V477.1z"/>
	<path d="M483.14,478.42c0.02,1.19,0.78,1.68,1.66,1.68c0.63,0,1.01-0.11,1.34-0.25l0.15,0.63c-0.31,0.14-0.84,0.3-1.61,0.3
		c-1.49,0-2.38-0.98-2.38-2.44c0-1.46,0.86-2.61,2.27-2.61c1.58,0,2,1.39,2,2.28c0,0.18-0.02,0.32-0.03,0.41H483.14z M485.72,477.79
		c0.01-0.56-0.23-1.43-1.22-1.43c-0.89,0-1.28,0.82-1.35,1.43H485.72z"/>
	<path d="M488.04,479.78c0.26,0.17,0.72,0.35,1.16,0.35c0.64,0,0.94-0.32,0.94-0.72c0-0.42-0.25-0.65-0.9-0.89
		c-0.87-0.31-1.28-0.79-1.28-1.37c0-0.78,0.63-1.42,1.67-1.42c0.49,0,0.92,0.14,1.19,0.3l-0.22,0.64c-0.19-0.12-0.54-0.28-0.99-0.28
		c-0.52,0-0.81,0.3-0.81,0.66c0,0.4,0.29,0.58,0.92,0.82c0.84,0.32,1.27,0.74,1.27,1.46c0,0.85-0.66,1.45-1.81,1.45
		c-0.53,0-1.02-0.13-1.36-0.33L488.04,479.78z"/>
	<path d="M493.11,478.42c0.02,1.19,0.78,1.68,1.66,1.68c0.63,0,1.01-0.11,1.34-0.25l0.15,0.63c-0.31,0.14-0.84,0.3-1.61,0.3
		c-1.49,0-2.38-0.98-2.38-2.44c0-1.46,0.86-2.61,2.27-2.61c1.58,0,2,1.39,2,2.28c0,0.18-0.02,0.32-0.03,0.41H493.11z M495.68,477.79
		c0.01-0.56-0.23-1.43-1.22-1.43c-0.89,0-1.28,0.82-1.35,1.43H495.68z"/>
	<path d="M498.13,477.35c0-0.57-0.01-1.06-0.04-1.51h0.77l0.03,0.95h0.04c0.22-0.65,0.75-1.06,1.34-1.06c0.1,0,0.17,0.01,0.25,0.03
		v0.83c-0.09-0.02-0.18-0.03-0.3-0.03c-0.62,0-1.06,0.47-1.18,1.13c-0.02,0.12-0.04,0.26-0.04,0.41v2.58h-0.87V477.35z"/>
	<path d="M502.48,475.84l0.95,2.72c0.16,0.44,0.29,0.84,0.39,1.24h0.03c0.11-0.4,0.25-0.8,0.41-1.24l0.94-2.72h0.92l-1.9,4.84h-0.84
		l-1.84-4.84H502.48z"/>
	<path d="M507.85,478.42c0.02,1.19,0.78,1.68,1.66,1.68c0.63,0,1.01-0.11,1.34-0.25l0.15,0.63c-0.31,0.14-0.84,0.3-1.61,0.3
		c-1.49,0-2.38-0.98-2.38-2.44c0-1.46,0.86-2.61,2.27-2.61c1.58,0,2,1.39,2,2.28c0,0.18-0.02,0.32-0.03,0.41H507.85z M510.42,477.79
		c0.01-0.56-0.23-1.43-1.22-1.43c-0.89,0-1.28,0.82-1.35,1.43H510.42z"/>
	<path d="M517.04,473.58v5.85c0,0.43,0.01,0.92,0.04,1.25h-0.79l-0.04-0.84h-0.02c-0.27,0.54-0.86,0.95-1.65,0.95
		c-1.17,0-2.07-0.99-2.07-2.46c-0.01-1.61,0.99-2.6,2.17-2.6c0.74,0,1.24,0.35,1.46,0.74h0.02v-2.89H517.04z M516.16,477.81
		c0-0.11-0.01-0.26-0.04-0.37c-0.13-0.56-0.61-1.02-1.27-1.02c-0.91,0-1.45,0.8-1.45,1.87c0,0.98,0.48,1.79,1.43,1.79
		c0.59,0,1.13-0.39,1.29-1.05c0.03-0.12,0.04-0.24,0.04-0.38V477.81z"/>
	<path d="M518.7,480.16c0-0.37,0.25-0.63,0.6-0.63s0.59,0.26,0.59,0.63c0,0.36-0.23,0.63-0.6,0.63
		C518.94,480.79,518.7,480.52,518.7,480.16z"/>
</g>
<g>
	
		<image overflow="visible" opacity="0.4" width="245" height="82" xlink:href="B7AAC392DC622AB8.png"  transform="matrix(1 0 0 1 440.7754 369.6314)">
	</image>
	<g>
		
			<image overflow="visible" opacity="0.6" width="232" height="69" xlink:href="B7AAC392DC622AB9.png"  transform="matrix(1 0 0 1 447.1754 376.0314)">
		</image>
		<g>
			<g>
				<path fill="#FFFFFF" d="M502.39,418.72c0.02,0.31,0.06,0.48-0.1,0.67c-0.51,0.18-1.11-0.03-1.7,0.13
					c38.57,29.6,93.35,27.76,129.13-0.07c-1.11,0-2.09,0-2.97,0c-0.19-0.23-0.18-0.36-0.15-0.5c1.01-0.94,1.01-0.94,1.01-2.42
					c0-3.06-0.01-6.11,0.01-9.17c0.01-1.15-0.19-2.27-0.35-3.4c-0.17-1.2-0.34-2.39-0.51-3.59c-0.19-1.33-0.38-2.66-0.56-4
					c-0.17-1.23-0.32-2.47-0.49-3.7c-0.14-1.06-0.27-2.12-0.44-3.18c-0.1-0.61-0.52-1.04-0.95-1.33c-0.1-0.3-0.07-0.5,0.02-0.74
					c1.59,0,3.18,0,4.77,0c0.21,0.14,0.15,0.36,0.16,0.5c-0.04,0.21-0.14,0.29-0.26,0.36c-0.54,0.3-0.62,0.79-0.53,1.34
					c0.21,1.33,0.28,2.68,0.39,4.02c0.09,1.03,0.24,2.06,0.34,3.09c0.06,0.65,0.08,1.3,0.16,1.95c0.27-1.29,0.39-2.59,0.52-3.9
					c0.16-1.55,0.35-3.09,0.56-4.63c0.11-0.84,0.1-1.6-0.72-2.04c-0.08-0.26-0.1-0.46,0.08-0.71c1.54,0,3.13,0,4.73,0
					c0.26,0.21,0.14,0.48,0.11,0.77c-0.29,0.13-0.57,0.26-0.81,0.37c-0.26,0.32-0.35,0.63-0.4,0.99c-0.25,1.92-0.53,3.83-0.78,5.75
					c-0.17,1.27-0.3,2.54-0.47,3.8c-0.17,1.33-0.41,2.66-0.54,4c-0.16,1.68-0.53,3.34-0.5,5.05c0.04,2.81,0.01,5.62,0.01,8.44
					c0,0.49-0.01,0.97,0.41,1.47c1.75-1.27,3.37-2.72,4.98-4.16c1.6-1.43,3.16-2.91,4.68-4.47c0.21,0.36-0.08,0.48-0.22,0.63
					c-2.51,2.69-5.07,5.33-7.85,7.75c-0.31,0.27-0.61,0.57-0.92,0.85c-0.04,0.24-0.08,0.47-0.12,0.67c-0.27,0.24-0.58,0.06-0.85,0.2
					c-19.21,15.8-41.2,24.12-66.16,24.11c-24.97-0.01-46.95-8.32-66.21-24.17c-0.25,0-0.52,0-0.8,0c-0.27,0-0.55,0-0.81,0
					c-0.19-0.63-0.19-0.63,0.26-1.21c-0.5-0.47-1.15-1.03-1.71-1.54c-0.02,0.66,0.06,0.98,0.1,1.25c0.18,0.48,0.55,0.59,0.76,0.84
					c0.03,0.19,0.06,0.36-0.03,0.51c-0.04,0.04-0.06,0.08-0.09,0.09c-1.49,0.17-2.97,0.03-4.4,0.08c-0.3-0.22-0.21-0.47-0.21-0.72
					c0.27-0.16,0.54-0.32,0.87-0.52c0.29-1.4,0.33-1.64,0.52-3.92c-2.01-1.99-3.79-3.82-5.64-6.01c0.55,0.13,0.72,0.51,0.99,0.76
					c0.33,0.3,0.64,0.64,0.96,0.96c0.29,0.29,0.59,0.59,0.89,0.88c0.3,0.29,0.59,0.58,0.89,0.87c0.32,0.31,0.65,0.63,0.98,0.94
					c0.3,0.28,0.6,0.55,1.03,0.95c0.19-1.86,2.18-24.43,2.49-26.16c0.58-0.22,1.17-0.08,1.75-0.11c0.55-0.02,1.1-0.01,1.7-0.01
					c0.09,0.68,1.93,27.54,1.97,29.69C501.37,417.8,501.66,418.41,502.39,418.72z M497.77,410.85c0-0.54,0.01-0.98,0-1.43
					c-0.04-1.18-0.19-2.34-0.21-3.52c-0.03-2.08-0.14-4.15-0.22-6.22c0-0.1-0.04-0.2-0.06-0.35c-0.3,3.86-0.6,7.67-0.89,11.53
					C496.84,410.85,497.24,410.85,497.77,410.85z M495.91,415.88c0.15,0.11,0.32,0.23,0.48,0.36c0.5,0.4,1,0.81,1.53,1.23
					c0.01-2.14-0.14-3.13-0.25-4.27c-0.47,0.06-0.82,0.08-1.52,0.1C496.07,414.27,496.01,414.49,495.91,415.88z"/>
				<path fill="#FFFFFF" d="M571,419.42c-1.04,0-2.04,0-3.06,0c-0.24-0.22-0.27-0.55-0.32-0.84c-0.31-1.94-0.58-3.89-0.89-5.83
					c-0.38-2.38-0.81-4.76-1.19-7.14c-0.33-2.08-0.63-4.16-1.06-6.24c0,0.36,0,0.71,0,1.07c0,5.45,0.01,10.9-0.01,16.35
					c0,0.9,0.14,1.65,0.94,2.03c0.11,0.22,0.08,0.35,0.04,0.49c-0.24,0.2-3.17,0.24-4.68,0.06c-0.29-0.87,0.87-0.89,0.97-1.54
					c0-0.38,0-0.76,0-1.14c0-8.71-0.01-17.42,0.01-26.13c0-1-0.02-1.95-0.95-2.6c-0.05-0.03-0.06-0.12-0.07-0.19
					c-0.01-0.07,0.02-0.13,0.03-0.2c0.65-0.23,3.51-0.29,5.03-0.09c0.96,5.84,1.73,11.74,2.78,17.61c0-0.41,0-0.82,0-1.23
					c0-4.41,0-8.82,0-13.22c0-0.66-0.04-1.31-0.25-1.94c-0.13-0.38-0.59-0.48-0.71-0.85c0-0.21,0.09-0.39,0.28-0.4
					c1.34-0.11,2.67-0.04,3.94-0.05c0.18,0.36,0.13,0.56-0.04,0.71c-0.59,0.5-0.68,1.17-0.68,1.88c0.01,1.63,0,3.26,0,4.89
					c0,7.77,0,15.55,0,23.32C571.11,418.56,571.19,418.95,571,419.42z"/>
				<path fill="#FFFFFF" d="M476.2,419.34c-0.11-0.16-0.09-0.32-0.01-0.54c0.29-0.28,0.73-0.48,0.95-1.14c0-0.16,0-0.54,0-0.92
					c0-8.75-0.01-17.49,0.01-26.24c0-1.05-0.03-2.03-1.01-2.57c0-0.42,0.2-0.54,0.47-0.54c1.45-0.01,2.91,0,4.46,0
					c1,5.85,1.9,11.67,2.85,17.48c0.16-0.08,0.07-0.24,0.09-0.37c0.02-0.14,0.01-0.28,0.01-0.42c0-4.72,0-9.44,0-14.16
					c0-0.76-0.08-1.46-0.79-1.86c-0.08-0.21-0.08-0.37,0-0.54c0.27-0.2,3.13-0.21,4.09-0.01c0.16,0.29,0.05,0.52-0.16,0.74
					c-0.48,0.51-0.62,1.14-0.61,1.82c0.01,5.59,0.02,11.18,0.02,16.76c0,3.99-0.01,7.98-0.02,11.97c0,0.17-0.02,0.34-0.03,0.63
					c-1.07,0.05-2.12,0.03-3.25,0.01c-1.1-6.52-2.19-12.99-3.29-19.47c-0.03,0-0.06,0-0.08,0.01c0,6.03,0,12.06,0,18.08
					c0.15,0.5,1.01,0.55,0.8,1.24C479.96,419.5,477.19,419.52,476.2,419.34z"/>
				<path fill="#FFFFFF" d="M609.83,408.24c1.39-0.8,2.64-1.53,3.89-2.26c0.25,0.22,0.16,0.49,0.11,0.7
					c-0.39,1.6-0.42,3.22-0.42,4.85c0,1.32,0.03,2.64,0.01,3.95c-0.01,0.5,0.15,0.95,0.26,1.42c0.07,0.31,0.27,0.56,0.63,0.59
					c0.37-0.12,0.48-0.45,0.51-0.73c0.07-0.62,0.27-1.21,0.27-1.85c0-0.86,0.12-1.73,0.16-2.59c0.16-3.24-0.62-6.23-2.4-8.96
					c-0.78-1.19-1.52-2.39-2.14-3.68c-0.67-1.39-0.96-2.88-1.04-4.4c-0.06-1.28-0.02-2.57-0.02-3.85c0-0.81,0.23-1.57,0.48-2.32
					c0.22-0.65,0.7-1.12,1.27-1.47c1.62-0.98,3.67-0.9,5.12,0.34c0.41,0.35,0.71,0.76,0.85,1.27c0.15,0.56,0.28,1.14,0.39,1.71
					c0.15,0.8,0.13,4.52-0.01,5.45c-1.04,0.57-2.12,1.15-3.28,1.78c0-0.5-0.06-0.88,0.01-1.24c0.32-1.76,0.18-3.53,0.16-5.29
					c-0.01-0.55-0.12-1.1-0.25-1.63c-0.07-0.29-0.2-0.6-0.64-0.73c-0.28,0.12-0.48,0.34-0.54,0.72c-0.08,0.48-0.19,0.94-0.2,1.44
					c-0.03,2.01-0.03,4.01,0.59,5.96c0.54,1.7,1.44,3.22,2.4,4.7c1.02,1.58,1.88,3.21,2.32,5.06c0.43,1.83,0.62,3.67,0.57,5.55
					c-0.04,1.5-0.17,2.97-0.68,4.38c-0.4,1.11-0.99,2.09-2.17,2.5c-1.88,0.65-4.27,0.32-5.35-1.87c-0.32-0.66-0.56-1.34-0.7-2.05
					C609.53,413.23,609.56,410.75,609.83,408.24z"/>
				<path fill="#FFFFFF" d="M538.86,408.74c-0.41,0.12-0.67,0.15-0.99-0.03c-0.17-0.81-0.06-1.68-0.29-2.52
					c-0.19-0.67-0.37-1.33-0.71-1.94c-0.22-0.4-0.5-0.74-0.99-0.81c-0.26,0.2-0.16,0.46-0.16,0.68c-0.01,4.2,0.01,8.4-0.01,12.6
					c0,0.95,0.24,1.71,1.15,2.05c0.11,0.22,0.12,0.38,0.04,0.55c-0.24,0.2-5.13,0.22-6.29,0.03c-0.14-0.15-0.09-0.31-0.05-0.53
					c0.37-0.29,0.95-0.41,1.16-1.24c0-9.41,0-19.09,0-28.74c-0.21-0.57-0.75-0.59-1.13-0.74c-0.13-0.22-0.11-0.39-0.05-0.56
					c0.69-0.21,9.26-0.28,10.86-0.09c0,4.89,0.05,7.35,0.05,10.89c-0.08,0.02-0.18,0.08-0.27,0.08c-0.2,0-0.4-0.02-0.63-0.04
					c-0.3-1.71-0.58-3.37-1.11-4.98c-0.35-1.06-0.78-2.08-1.48-2.95c-0.55-0.69-1.26-1.03-2.2-0.95c0,3.62,0,7.17,0,10.74
					c0.73,0.13,1.09-0.3,1.37-0.78c0.41-0.69,0.6-1.46,0.63-2.27c0.02-0.51-0.05-1.04,0.11-1.51c0.26-0.26,0.53-0.2,0.83-0.14
					c0.04,0.08,0.12,0.17,0.12,0.26c0.01,1.35,0.02,2.71,0.02,4.06c0,2.6,0,5.21,0,7.81C538.86,408.01,538.86,408.35,538.86,408.74z
					"/>
				<path fill="#FFFFFF" d="M662.97,388.04c0.02-0.19,0.03-0.36,0.04-0.51c0.28-0.22,3.19-0.26,4.66-0.09
					c0.2,0.15,0.13,0.37,0.13,0.58c-0.16,0.35-0.6,0.47-0.79,0.98c-0.22,0.87,0.12,1.85,0.24,2.83c0.22,1.75,0.51,3.48,0.78,5.22
					c0.31,2.01,0.64,4.02,0.95,6.03c0.26,1.7,0.51,3.41,0.84,5.13c0.16-0.97,0.32-1.94,0.46-2.91c0.26-1.71,0.52-3.41,0.77-5.12
					c0.24-1.6,0.46-3.21,0.69-4.82c0.25-1.71,0.48-3.42,0.76-5.12c0.14-0.87,0.17-1.67-0.66-2.18c-0.09-0.26-0.04-0.45,0.15-0.67
					c1.3,0,2.64,0,3.95,0c0.27,0.22,0.15,0.46,0.18,0.74c-1.21,0.42-1.08,1.51-1.22,2.43c-0.3,1.98-0.55,3.97-0.81,5.95
					c-0.17,1.3-0.3,2.61-0.47,3.91c-0.17,1.3-0.38,2.6-0.55,3.9c-0.17,1.3-0.31,2.61-0.48,3.91c-0.17,1.3-0.36,2.6-0.54,3.9
					c-0.17,1.27-0.37,2.53-0.48,3.8c-0.06,0.65-0.36,1.28-0.19,1.95c0.1,0.4,0.4,0.62,0.71,0.79c0.15,0.23,0.07,0.43,0.07,0.6
					c-0.24,0.21-3.57,0.26-5.5,0.11c-0.22-0.14-0.17-0.35-0.14-0.59c0.19-0.3,0.65-0.37,0.83-0.96c0.07-0.76,0.05-1.72-0.1-2.69
					c-0.21-1.3-0.34-2.6-0.51-3.9c-0.18-1.33-0.36-2.67-0.54-4c-0.17-1.3-0.33-2.6-0.5-3.9c-0.18-1.33-0.36-2.67-0.54-4
					c-0.17-1.27-0.33-2.53-0.5-3.8c-0.18-1.37-0.34-2.74-0.56-4.1c-0.09-0.58-0.08-1.17-0.23-1.75
					C663.65,388.79,663.7,388.78,662.97,388.04z"/>
				<path fill="#FFFFFF" d="M548.94,387.43c1.2,0,2.33,0,3.45,0c0.08,0.13,2.05,28.77,2.09,29.74c0.03,0.7,0.26,1.03,0.99,1.6
					c0.03,0.2,0.09,0.4-0.09,0.64c-1.69,0-3.41,0-5.14,0c-0.2-0.14-0.17-0.35-0.14-0.63c0.96-0.47,1.11-1.35,0.98-2.34
					c-0.14-1.03-0.17-2.06-0.21-3.15c-0.6-0.13-1.16-0.07-1.8-0.05c0.01,1.65-0.4,3.21-0.22,4.76c0.17,0.38,0.46,0.57,0.71,0.71
					c0.09,0.27,0.11,0.47-0.08,0.7c-1.4,0-2.85,0-4.28,0c-0.26-0.2-0.1-0.45-0.16-0.69c0.4-0.21,0.77-0.41,1.02-0.88
					C546.38,416.47,548.46,391.43,548.94,387.43z M550.23,399.39c-0.02,0-0.04,0-0.05,0c-0.29,3.81-0.58,7.61-0.88,11.48
					c0.56,0.01,1.05,0.12,1.51-0.08C550.62,406.95,550.43,403.17,550.23,399.39z"/>
				<path fill="#FFFFFF" d="M453.99,418.73c0.07,0.28,0.09,0.45-0.05,0.67c-1.92,0-3.88,0-5.82,0c-0.2-0.2-0.13-0.4-0.1-0.67
					c0.94-0.24,1.21-0.94,1.21-1.87c-0.01-9.16-0.01-18.32-0.01-27.48c0-0.14,0-0.28,0-0.33c-0.21-0.66-0.68-0.85-1.16-0.92
					c-0.12-0.28-0.14-0.47,0.04-0.71c3.35,0,6.74,0,10.12,0c0,6,0.1,8.32,0.1,10.87c-0.06,0.04-0.11,0.1-0.17,0.11
					c-0.24,0.04-0.48,0.08-0.73-0.06c-0.41-0.7-0.3-1.53-0.46-2.29c-0.3-1.49-0.64-2.96-1.25-4.36c-0.23-0.51-0.51-0.99-0.87-1.41
					c-0.5-0.59-1.12-0.9-1.91-0.77c-0.16,0.82-0.19,9.61-0.03,10.74c0.62,0.11,1.03-0.18,1.37-0.67c0.58-0.83,0.68-1.8,0.77-2.76
					c0.04-0.4,0.01-0.82,0.01-1.15c0.36-0.26,0.63-0.19,0.93-0.15c0.04,0.08,0.12,0.17,0.12,0.26c0.02,0.69,0.02,1.39,0.02,2.08
					c0,3.26,0,6.52,0,9.79c0,0.34,0,0.69,0,1c-0.33,0.26-0.63,0.18-0.95,0.12c-0.04-0.09-0.1-0.18-0.11-0.27
					c-0.06-1.29-0.34-2.53-0.85-3.71c-0.25-0.59-0.51-1.22-1.25-1.37c-0.27,0.27-0.17,0.56-0.17,0.82c-0.01,4.06-0.01,8.12,0,12.18
					c0,0.35,0.02,0.68,0.11,1.03C453.08,418.05,453.34,418.54,453.99,418.73z"/>
				<path fill="#FFFFFF" d="M581.66,390.79c-0.78,1.21-1.12,2.55-1.45,3.88c-0.33,1.33-0.59,2.68-0.87,4
					c-0.35,0.25-0.69,0.12-1.09,0.14c-0.22-3.79,0.27-7.51,0.17-11.34c1.13-0.18,2.2-0.07,3.26-0.09c1.08-0.02,2.15,0,3.23,0
					c1.07,0,2.14,0,3.26,0c0.29,3.82,0.26,7.55,0.27,11.28c-0.38,0.28-0.75,0.16-1.18,0.13c-0.53-2.69-0.73-5.46-2.15-7.94
					c0,0.36,0,0.72,0,1.08c0,8.16,0,16.31,0,24.47c0,0.9-0.1,1.82,0.75,2.47c0.06,0.05,0.05,0.19,0.05,0.3
					c0,0.06-0.05,0.12-0.1,0.24c-1.59,0-3.21,0-4.82,0c-0.16-0.12-0.21-0.27-0.16-0.53c0.84-0.38,0.95-1.14,0.95-2.03
					c-0.02-8.37-0.01-16.73-0.02-25.1C581.75,391.44,581.82,391.13,581.66,390.79z"/>
				<path fill="#FFFFFF" d="M656.75,418.75c0,0.22,0,0.39,0,0.54c-0.25,0.23-4.14,0.27-5.47,0.07c-0.16-0.18-0.13-0.37-0.02-0.57
					c1.18-0.81,1.38-1.39,1.04-2.93c-0.35-1.61-0.69-3.23-1.07-5.05c-0.5,1.3-0.62,2.51-0.87,3.68c-0.25,1.17-0.71,2.33-0.39,3.57
					c0.1,0.49,0.97,0.56,0.65,1.36c-1.34,0.08-2.71,0.01-4.03,0.04c-0.27-0.18-0.24-0.39-0.2-0.67c0.49-0.35,1.04-0.73,1.19-1.42
					c0.08-0.37,0.15-0.74,0.21-1.12c0.62-3.39,1.2-6.79,1.86-10.17c0.33-1.69,0.28-3.33-0.08-5.01c-0.38-1.75-0.63-3.53-0.93-5.3
					c-0.35-2.04-0.7-4.08-1.05-6.12c-0.12-0.71-0.55-1.18-1.14-1.41c-0.16-0.3-0.17-0.53,0-0.81c1.69,0,3.42,0,5.16,0
					c0.22,0.16,0.18,0.4,0.11,0.71c-0.48,0.38-1.27,0.53-1.38,1.43c0.35,1.81,0.72,3.69,1.09,5.57c0.62-2.12,1.13-4.25,1.45-6.31
					c-0.43-0.81-0.43-0.81-0.33-1.38c0.66-0.15,1.35-0.05,2.04-0.07c0.69-0.02,1.37,0,1.94,0c0.31,0.27,0.2,0.48,0.24,0.69
					c-0.14,0.09-0.24,0.18-0.36,0.23c-0.81,0.3-1.16,0.94-1.3,1.73c-0.28,1.49-0.55,2.98-0.83,4.47c-0.46,2.44-0.9,4.88-1.39,7.31
					c-0.21,1.06,0.06,2.06,0.23,3.08c0.31,1.84,0.64,3.67,0.96,5.5c0.36,2.07,0.7,4.15,1.09,6.21
					C655.34,417.56,655.87,418.32,656.75,418.75z"/>
				<path fill="#FFFFFF" d="M517.33,419.42c-3.25,0-6.44,0-9.6,0c-0.24-0.17-0.17-0.38-0.15-0.64c0.72-0.52,1.03-1.29,1.03-2.21
					c0-8.92,0-17.85,0-26.77c0-0.14-0.02-0.28-0.02-0.36c-0.23-0.57-0.69-0.83-1.11-1.12c-0.12-0.28-0.12-0.54,0.04-0.78
					c0.24-0.22,4.06-0.27,5.59-0.08c0.19,0.24,0.11,0.51,0.08,0.85c-0.89,0.49-0.99,1.33-0.99,2.29c0.02,8.54,0.01,17.08,0.01,25.63
					c0,0.34,0,0.68,0,1.1c0.87-0.18,1.31-0.74,1.68-1.36c0.81-1.35,1.22-2.85,1.6-4.36c0.42-1.71,0.7-3.44,0.9-5.16
					c0.31-0.26,0.6-0.2,0.88-0.11C517.47,406.55,517.52,417.76,517.33,419.42z"/>
				<path fill="#FFFFFF" d="M469.3,418.71c0.11,0.26,0.14,0.42,0.06,0.6c-0.21,0.2-3.87,0.25-5.44,0.06
					c-0.18-0.17-0.12-0.37-0.1-0.63c0.36-0.25,0.81-0.47,1.04-1.1c0-0.13,0-0.41,0-0.69c0-8.92,0-17.83,0.01-26.75
					c0-0.92-0.17-1.72-1.01-2.17c-0.07-0.23-0.08-0.4,0.03-0.58c0.07-0.03,0.17-0.09,0.26-0.09c1.53-0.01,3.05-0.01,4.58-0.01
					c0.28,0,0.58-0.03,0.67,0.37c-0.01,0.04,0.01,0.14-0.03,0.17c-0.8,0.6-0.95,1.42-0.95,2.38c0.02,8.88,0.02,17.76,0,26.64
					C468.41,417.74,468.47,418.45,469.3,418.71z"/>
				<path fill="#FFFFFF" d="M657.41,388.16c-0.05-0.31-0.06-0.48,0.03-0.65c0.27-0.22,3.82-0.24,4.92-0.03
					c0.16,0.11,0.21,0.27,0.16,0.54c-0.83,0.58-0.98,1.49-0.98,2.51c0.02,8.74,0.01,17.49,0.01,26.23c0,0.07,0.01,0.14,0,0.21
					c-0.08,0.83,0.11,1.52,0.96,1.77c0.07,0.24,0.08,0.4-0.01,0.57c-0.21,0.2-3.62,0.24-5.06,0.05c-0.03-0.08-0.07-0.17-0.08-0.27
					c-0.01-0.1,0.02-0.2,0.03-0.33c0.35-0.26,0.76-0.47,1.01-1.04c0-0.18,0-0.49,0-0.8c0-8.85-0.01-17.7,0.01-26.55
					C658.44,389.45,658.25,388.67,657.41,388.16z"/>
				<path fill="#FFFFFF" d="M591,430.44c0-2.43,0-4.8,0-7.17c0.81-0.19,9.14-0.22,10.22-0.04c0.15,0.39,0.12,0.79,0,1.3
					c-0.9,0.17-1.83,0.06-2.75,0.08c-0.9,0.02-1.8,0-2.71,0c-0.94,0-1.87,0-2.81,0c-0.27,0.45-0.13,0.9-0.14,1.39
					c0.87,0.18,1.73,0.06,2.59,0.08c0.87,0.02,1.73,0,2.6,0c0.86,0,1.71,0,2.49,0c0.24,0.34,0.16,0.59,0.17,0.82
					c0.01,0.17-0.01,0.35-0.22,0.6c-1.17,0.08-2.44,0.02-3.72,0.03c-1.27,0.01-2.55,0-3.88,0c0,0.5,0,0.9,0,1.37
					c0.64,0.21,1.33,0.07,2.01,0.1c0.73,0.02,1.46,0.01,2.19,0.01c0.69,0,1.39,0,2.08,0c0.69,0,1.37,0,1.98,0
					c0.28,0.3,0.2,0.55,0.2,0.78c0,0.2-0.03,0.4-0.05,0.64C597.82,430.44,594.44,430.44,591,430.44z"/>
				<path fill="#FFFFFF" d="M530.08,430.53c-0.69,0-1.39,0.02-2.08,0c-2.99-0.11-3.84-2.66-3.45-4.59c0.43-2.1,2.02-2.86,3.52-2.94
					c1.42-0.07,2.84-0.07,4.26,0c1.39,0.07,2.57,0.65,3.19,1.97c0.66,1.41,0.6,2.84-0.28,4.15c-0.59,0.89-1.52,1.31-2.56,1.38
					c-0.86,0.06-1.73,0.01-2.59,0.01C530.08,430.52,530.08,430.52,530.08,430.53z M529.96,424.46c-0.55,0.05-1.31-0.11-2.06,0.13
					c-1.13,0.36-1.62,1.06-1.58,2.35c0.03,1.17,0.57,1.87,1.74,2.1c1.4,0.27,2.81,0.24,4.22,0.01c0.14-0.02,0.28-0.04,0.41-0.08
					c0.62-0.23,1.13-0.63,1.27-1.27c0.38-1.63-0.04-3.03-2.13-3.23C531.28,424.42,530.72,424.46,529.96,424.46z"/>
				<path fill="#FFFFFF" d="M550.69,430.46c-0.67,0-1.25,0-1.94,0c-2.19-1.73-4.44-3.51-6.81-5.38c0,1.83,0,3.55,0,5.3
					c-0.62,0.19-1.16,0.1-1.7,0.09c-0.21-0.71-0.26-6.07-0.07-7.39c1.06-0.11,2.02-0.16,2.96,0.68c1.6,1.43,3.34,2.7,5.03,4.03
					c0.24,0.19,0.47,0.41,0.87,0.52c0-1.72,0-3.4,0-5.13c0.59-0.09,1.09-0.09,1.65,0C550.69,425.61,550.69,427.98,550.69,430.46z"/>
				<path fill="#FFFFFF" d="M577.63,425.01c0,1.03,0,1.89,0,2.76c0,0.86,0,1.73,0,2.61c-0.55,0.22-1.07,0.11-1.57,0.11
					c-0.22-0.71-0.27-6.15-0.07-7.39c0.6-0.13,1.22-0.04,1.95-0.06c2.19,1.73,4.45,3.51,6.85,5.4c0.07-1.82,0-3.48,0.05-5.08
					c0.28-0.3,0.58-0.2,0.84-0.22c0.24-0.02,0.48,0,0.71,0c0.21,0.76,0.25,6,0.07,7.32c-0.6,0-1.22,0-1.93,0
					C582.32,428.7,580.04,426.9,577.63,425.01z"/>
				<path fill="#FFFFFF" d="M555.5,423.19c0.56-0.09,1.06-0.08,1.66,0c0,1.92,0,3.82,0,5.79c2.57,0,5.06,0,7.52,0
					c0.29,0.5,0.16,0.94,0.15,1.48c-3.11,0.06-6.17,0.02-9.22,0.03C555.4,429.69,555.34,425.18,555.5,423.19z"/>
				<path fill="#FFFFFF" d="M670.14,383.91c0.02,0.3,0.44,0.21,0.45,0.57c-0.55,0.22-1.09,0.21-1.71-0.04
					c1.15-0.83,1.23-2.16,1.89-3.22c-0.67-1.26-1.84-3.85-1.84-3.85l1.93-0.11c0,0-0.24,0.35-0.27,0.7
					c0.08,0.55,0.45,1.14,0.67,1.91c0.4-0.69,0.67-1.31,0.81-1.91c-0.03-0.36-0.46-0.66-0.46-0.66l1.57,0.02c0,0-1.17,1.94-1.73,3
					c0.61,1.33,0.8,2.87,1.82,4.06c-0.51,0.29-0.86,0.32-1.86,0.1c-0.07-0.17,0.05-0.24,0.14-0.34c0.07-0.07,0.11-0.17,0.17-0.28
					c-0.25-0.67-0.5-1.35-0.76-2.05C670.3,382.69,670.16,383.07,670.14,383.91z"/>
				<path fill="#FFFFFF" d="M569.48,430.44c0-2.42,0-4.79,0-7.21c0.51-0.18,1.02-0.09,1.51-0.07c0.23,0.7,0.3,5.39,0.11,7.24
					C570.59,430.57,570.06,430.51,569.48,430.44z"/>
				<path fill="#FFFFFF" d="M648.85,380.49c-0.55,0.41-1.1,0.82-1.65,1.23c0.59-1.06,1.43-1.95,1.83-3.12
					c0.12-0.23-0.18-0.42-0.11-0.66c0.39-0.35,0.99,0.02,1.34,0.82c0.6,0.21,1.05-0.17,1.51-0.4c0.59,0.02,0.9,0.34,1.12,0.91
					c-0.74,0.58-1.26,1.35-1.76,2.14c0.1,0.53,0.59,0.88,0.57,1.45c-0.09,0.28-0.29,0.43-0.6,0.36c-0.4-0.13-0.36-0.59-0.74-0.85
					c-1.03,0.82-2.01,1.82-3.66,2.04c1.28-0.85,2.37-1.64,3.16-2.81c-0.34-0.38-0.68-0.76-1.03-1.14c0.51,0.19,1.03,0.39,1.57,0.59
					c0.43-0.52,0.75-1.07,0.95-1.74c-0.48-0.16-0.92-0.07-1.4-0.07C649.58,379.66,649.21,380.07,648.85,380.49z"/>
				<path fill="#FFFFFF" d="M597.62,379.79c-0.53-0.27-1.18-0.44-1.07-1.35c0.86,0.18,1.66,0.11,2.48,0.01
					c0.82-0.1,1.65-0.13,2.43-0.42c0.48,0.21,0.86,0.5,1.13,0.97c-0.86,1.44-1.68,2.92-3.13,3.92c-0.71,0.49-1.46,0.9-2.34,1.05
					c1.61-1.34,3.2-2.68,3.87-4.92C599.72,378.97,598.65,379.22,597.62,379.79z"/>
				<path fill="#FFFFFF" d="M632.73,379.22c-1.24,0.03-2.31,0.15-3.3,0.74c-0.96-0.37-0.99-0.4-1.18-1.26
					c1.69,0.16,3.34-0.07,5.04-0.46c0.38,0.19,0.72,0.52,1.05,0.88c-1.03,1.86-2.12,3.56-4.02,4.55c-0.45,0.23-0.89,0.49-1.55,0.5
					C630.45,382.77,632.1,381.48,632.73,379.22z"/>
				<path fill="#FFFFFF" d="M616.15,377.6c0.78-0.27,0.89-0.25,1.67,0.35c-0.03,0.52-0.45,1.01-0.18,1.63
					c0.55,0.18,1.12,0.08,1.69-0.12c0.33,0.04,0.67,0.11,0.93,0.33c0.13,0.23,0.14,0.41-0.12,0.63c-0.82-0.06-1.7-0.21-2.56-0.03
					c-0.65,2.54-1.12,3.2-2.8,4.03c0.03-0.43,0.43-0.56,0.62-0.84c0.21-0.32,0.47-0.61,0.65-0.94c0.16-0.3,0.23-0.65,0.36-0.97
					c0.15-0.36,0.15-0.73,0.1-1.13c-0.76-0.14-1.4,0.24-2.12,0.3c-0.44-0.12-0.85-0.33-0.98-0.93c1.03-0.13,2.03,0.05,3.09-0.13
					C616.5,379.05,616.8,378.31,616.15,377.6z"/>
				<path fill="#FFFFFF" d="M674.92,377.3l0.88-0.06c0,0,0.32,2.63,0.56,3.95c0.27-1.29,0.63-3.86,0.63-3.86l0.73-0.07l-0.98,7.24
					l-1-0.02c0,0-0.18-2.39-0.32-3.59C675.27,379.69,674.92,377.3,674.92,377.3z"/>
				<path fill="#FFFFFF" d="M611.32,378.63c0.13-0.47-0.07-0.82,0.08-1.14c0.88-0.03,0.94-0.01,1.55,0.83
					c-0.43,0.51-0.86,1.03-1.3,1.56c0.02,0.27,0.15,0.51,0.15,0.79c-0.02,1-0.05,2,0.15,3c0.09,0.45,0.07,0.91-0.43,1.16
					c-0.49-0.01-0.59-0.4-0.74-0.72c0.05-0.32,0.12-0.63,0.13-0.93c0.02-0.79,0.01-1.58,0.01-2.45c-0.92,0.63-1.67,1.36-2.74,1.58
					C609.33,381.16,610.47,379.99,611.32,378.63z"/>
				<path fill="#FFFFFF" d="M641.15,417.04c0,1.39-1.08,2.5-2.46,2.54c-1.37,0.04-2.58-1.17-2.57-2.58c0.01-1.34,1.17-2.53,2.5-2.55
					C640,414.43,641.16,415.62,641.15,417.04z M639.88,418.39c0.69-0.25,0.6-0.92,0.76-1.42c-0.48-1.8-1.74-2.4-3.05-1.48
					c-0.91,0.41-0.94,1.21-0.81,2.01c0.13,0.74,0.65,1.19,1.37,1.4C638.84,419.11,639.44,419.01,639.88,418.39z"/>
				<path fill="#FFFFFF" d="M605.74,380.14c0.49-0.16,0.76,0.2,1.12,0.28c0.28-0.14,0.3-0.45,0.48-0.73
					c-1.15-0.18-2.14,0.33-3.18,0.48c-0.47-0.4-0.47-0.4-0.59-1.05c1.53,0.31,3-0.03,4.48-0.3c0.33,0.27,0.56,0.6,0.63,0.96
					c-0.09,0.34-0.34,0.28-0.52,0.35c-0.76,0.29-1.38,0.69-1.73,1.51c-0.38,0.89-0.91,1.71-1.63,2.39
					c-0.24,0.23-0.47,0.49-0.96,0.62C604.88,383.24,605.76,381.9,605.74,380.14z"/>
				<path fill="#FFFFFF" d="M639.6,379c0.32,0.32,0.61,0.6,0.73,1.11c-0.66,0.21-1.27,0.51-1.91,0.92c-0.75,1.32-1.31,2.9-2.82,3.77
					c-0.12-0.3,0.11-0.41,0.23-0.56c0.61-0.81,1.06-1.7,1.35-2.67c0.12-0.4,0.32-0.78-0.04-1.13c0.59-0.4,0.92,0.12,1.33,0.19
					c0.19-0.21,0.34-0.44,0.36-0.71c-0.05-0.05-0.1-0.14-0.14-0.14c-1,0.1-1.97,0.35-2.9,0.58c-0.45-0.23-0.73-0.49-0.67-1.04
					C636.63,379.63,638.07,379.3,639.6,379z"/>
				<path fill="#FFFFFF" d="M624.35,383.54c-0.38-0.13-0.7-0.36-0.9-0.77c0.23-1.28,0.25-2.56-0.17-3.83
					c0.78-0.17,0.78-0.17,1.43,0.31c-0.04,0.9-0.37,1.8-0.18,2.81c1.06-0.58,1.87-1.41,2.7-2.2c0.29,0.23,0.04,0.39-0.05,0.53
					c-0.43,0.71-0.94,1.36-1.55,1.94C625.22,382.72,624.79,383.12,624.35,383.54z"/>
				<path fill="#FFFFFF" d="M660.88,382.03c-0.54-0.5-0.85-0.92-0.52-1.5c0.4-0.17,0.48,0.26,0.75,0.32
					c1.72,0.05,3.45,0.08,5.18-0.04c0.73-0.05,0.86,0,1.3,0.54c-0.1,0.47-0.47,0.42-0.81,0.42c-1.14,0.01-2.28,0.02-3.42,0
					C662.51,381.75,661.69,381.81,660.88,382.03z"/>
				<path fill="#FFFFFF" d="M642.34,384.08c-0.78-0.33-1.34-0.73-1.43-1.64c0.36-0.06,0.55,0.3,0.94,0.28
					c2.01-0.75,3.58-2.28,5.21-3.72c0.25,0.25,0.03,0.41-0.08,0.55c-0.74,1.01-1.54,1.97-2.51,2.76
					C643.77,382.89,643.08,383.47,642.34,384.08z"/>
				<path fill="#FFFFFF" d="M659.4,379.93c-0.73,1.44-3.09,3.56-5.17,4.74c-0.58-0.38-0.86-0.91-0.81-1.63
					c0.38-0.08,0.63,0.26,0.96,0.15C656.14,382.25,657.84,381.2,659.4,379.93z"/>
				<polygon fill="#FFFFFF" points="673.63,377.32 674.59,377.25 674.52,380.84 674.62,384.5 673.68,384.55 				"/>
				<path fill="#FFFFFF" d="M621.6,379.13c0.74-0.02,0.74-0.02,1.37,0.68c-0.62,1.57-1.29,3.11-3.01,3.91
					c0.13-0.17,0.27-0.33,0.39-0.52c0.33-0.53,0.68-1.05,0.95-1.61C621.79,380.58,621.81,380.25,621.6,379.13z"/>
				<path fill="#FFFFFF" d="M643.32,380.07c-0.21,0.23-0.47,0.23-0.8,0.14c-0.34-0.54-0.72-1.09-1.27-1.6
					C642.86,378.5,643.49,378.97,643.32,380.07z"/>
				<path fill="#FFFFFF" d="M654.49,381.74c-0.39-0.43-0.77-0.85-1.22-1.35c0.42-0.21,0.81-0.14,1.17-0.13
					c0.44,0.17,0.71,0.46,0.82,0.9C655.21,381.63,654.98,381.85,654.49,381.74z"/>
				<path fill="#FFFFFF" d="M655.96,380.11c-0.82-0.1-1.01-1-1.81-1.31c0.77-0.38,1.33-0.26,1.82,0.17
					C656.29,379.25,656.28,379.45,655.96,380.11z"/>
				<path fill="#FFFFFF" d="M657.35,378c1.17,0.01,1.26,0.07,1.6,0.96c-0.09,0.24-0.23,0.42-0.56,0.42
					C657.97,379.05,657.81,378.5,657.35,378z"/>
				<path fill="#FFFFFF" d="M658.21,377.19c0.81-0.15,1.37-0.01,1.64,0.71c0,0.23-0.1,0.35-0.27,0.46c-0.09-0.02-0.21,0-0.27-0.06
					C658.96,377.96,658.61,377.6,658.21,377.19z"/>
				<path fill="#FFFFFF" d="M637.58,415.47c0.38,0,0.76,0,1.14-0.01c0.37-0.01,0.67,0.11,0.9,0.39c0.2,0.43,0.06,0.81-0.15,1.18
					c0.34,0.41,0.1,0.98,0.42,1.38c-0.23,0.01-0.47,0.11-0.7-0.04c-0.26-0.24-0.08-0.6-0.24-0.89c-0.15-0.17-0.34-0.29-0.61-0.22
					c-0.25,0.32,0.02,0.75-0.19,1.05c-0.13,0.14-0.26,0.11-0.48,0.05C637.5,417.43,637.64,416.45,637.58,415.47z M639.08,416.19
					c-0.22-0.04-0.35-0.07-0.47-0.09c-0.14-0.01-0.26,0.02-0.35,0.16c0.01,0.11-0.05,0.25,0.11,0.39
					C638.66,416.73,638.9,416.66,639.08,416.19z"/>
				<path fill="#FFFFFF" d="M596.86,387.43c1.2,0,2.33,0,3.45,0c0.08,0.13,2.05,28.77,2.09,29.74c0.03,0.7,0.26,1.03,0.99,1.6
					c0.03,0.2,0.09,0.4-0.09,0.64c-1.69,0-3.41,0-5.14,0c-0.2-0.14-0.17-0.35-0.14-0.63c0.96-0.47,1.11-1.35,0.98-2.34
					c-0.14-1.03-0.17-2.06-0.21-3.15c-0.6-0.13-1.16-0.07-1.8-0.05c0.01,1.65-0.4,3.21-0.22,4.76c0.17,0.38,0.46,0.57,0.71,0.71
					c0.09,0.27,0.11,0.47-0.08,0.7c-1.4,0-2.85,0-4.28,0c-0.26-0.2-0.1-0.45-0.16-0.69c0.4-0.21,0.77-0.41,1.02-0.88
					C594.29,416.47,596.37,391.43,596.86,387.43z M598.15,399.39c-0.02,0-0.04,0-0.05,0c-0.29,3.81-0.58,7.61-0.88,11.48
					c0.56,0.01,1.05,0.12,1.51-0.08C598.54,406.95,598.34,403.17,598.15,399.39z"/>
			</g>
		</g>
	</g>
</g>
</svg>
