<?xml version="1.0" encoding="utf-8"?>
<!-- Generator: Adobe Illustrator 23.0.3, SVG Export Plug-In . SVG Version: 6.00 Build 0)  -->
<svg version="1.1" id="レイヤー_1" xmlns="http://www.w3.org/2000/svg" xmlns:xlink="http://www.w3.org/1999/xlink" x="0px"
	 y="0px" width="836px" height="1088px" viewBox="0 0 836 1088" enable-background="new 0 0 836 1088" xml:space="preserve">
<g>
	<path d="M37.53,1080.13c-0.32,0.16-0.96,0.32-1.78,0.32c-1.9,0-3.33-1.2-3.33-3.41c0-2.11,1.43-3.54,3.52-3.54
		c0.84,0,1.37,0.18,1.6,0.3l-0.21,0.71c-0.33-0.16-0.8-0.28-1.36-0.28c-1.58,0-2.63,1.01-2.63,2.78c0,1.65,0.95,2.71,2.59,2.71
		c0.53,0,1.07-0.11,1.42-0.28L37.53,1080.13z"/>
	<path d="M43.36,1077.89c0,1.79-1.24,2.57-2.41,2.57c-1.31,0-2.32-0.96-2.32-2.49c0-1.62,1.06-2.57,2.4-2.57
		C42.42,1075.4,43.36,1076.41,43.36,1077.89z M39.52,1077.94c0,1.06,0.61,1.86,1.47,1.86c0.84,0,1.47-0.79,1.47-1.88
		c0-0.82-0.41-1.86-1.45-1.86C39.97,1076.06,39.52,1077.02,39.52,1077.94z"/>
	<path d="M44.97,1077.09c0-0.62-0.02-1.12-0.04-1.58h0.79l0.04,0.83h0.02c0.36-0.59,0.93-0.94,1.72-0.94c1.17,0,2.05,0.99,2.05,2.46
		c0,1.74-1.06,2.6-2.2,2.6c-0.64,0-1.2-0.28-1.49-0.76h-0.02v2.63h-0.87V1077.09z M45.84,1078.38c0,0.13,0.02,0.25,0.04,0.36
		c0.16,0.61,0.69,1.03,1.32,1.03c0.93,0,1.47-0.76,1.47-1.87c0-0.97-0.51-1.8-1.44-1.8c-0.6,0-1.16,0.43-1.33,1.09
		c-0.03,0.11-0.06,0.24-0.06,0.36V1078.38z"/>
	<path d="M51.41,1075.51l1.06,2.86c0.11,0.32,0.23,0.7,0.31,0.99h0.02c0.09-0.29,0.19-0.66,0.31-1.01l0.96-2.84H55l-1.32,3.45
		c-0.63,1.66-1.06,2.51-1.66,3.03c-0.43,0.38-0.86,0.53-1.08,0.57l-0.22-0.74c0.22-0.07,0.51-0.21,0.77-0.43
		c0.24-0.19,0.54-0.53,0.74-0.98c0.04-0.09,0.07-0.16,0.07-0.21s-0.02-0.12-0.06-0.23l-1.79-4.46H51.41z"/>
	<path d="M56.3,1077.02c0-0.57-0.01-1.06-0.04-1.51h0.77l0.03,0.95h0.04c0.22-0.65,0.75-1.06,1.34-1.06c0.1,0,0.17,0.01,0.25,0.03
		v0.83c-0.09-0.02-0.18-0.03-0.3-0.03c-0.62,0-1.06,0.47-1.18,1.13c-0.02,0.12-0.04,0.26-0.04,0.41v2.58H56.3V1077.02z"/>
	<path d="M61.09,1074.15c0.01,0.3-0.21,0.54-0.56,0.54c-0.31,0-0.53-0.24-0.53-0.54c0-0.31,0.23-0.55,0.55-0.55
		C60.88,1073.6,61.09,1073.84,61.09,1074.15z M60.11,1080.35v-4.84h0.88v4.84H60.11z"/>
	<path d="M67.12,1075.51c-0.02,0.35-0.04,0.74-0.04,1.33v2.81c0,1.11-0.22,1.79-0.69,2.21c-0.47,0.44-1.15,0.58-1.76,0.58
		c-0.58,0-1.22-0.14-1.61-0.4l0.22-0.67c0.32,0.2,0.82,0.38,1.42,0.38c0.9,0,1.56-0.47,1.56-1.69v-0.54H66.2
		c-0.27,0.45-0.79,0.81-1.54,0.81c-1.2,0-2.06-1.02-2.06-2.36c0-1.64,1.07-2.57,2.18-2.57c0.84,0,1.3,0.44,1.51,0.84h0.02l0.04-0.73
		H67.12z M66.21,1077.42c0-0.15-0.01-0.28-0.05-0.4c-0.16-0.51-0.59-0.93-1.23-0.93c-0.84,0-1.44,0.71-1.44,1.83
		c0,0.95,0.48,1.74,1.43,1.74c0.54,0,1.03-0.34,1.22-0.9c0.05-0.15,0.07-0.32,0.07-0.47V1077.42z"/>
	<path d="M69.04,1073.25h0.88v3.02h0.02c0.14-0.25,0.36-0.47,0.63-0.62c0.26-0.15,0.57-0.25,0.9-0.25c0.65,0,1.69,0.4,1.69,2.07
		v2.88h-0.88v-2.78c0-0.78-0.29-1.44-1.12-1.44c-0.57,0-1.02,0.4-1.18,0.88c-0.05,0.12-0.06,0.25-0.06,0.42v2.92h-0.88V1073.25z"/>
	<path d="M76.11,1074.12v1.39h1.26v0.67h-1.26v2.61c0,0.6,0.17,0.94,0.66,0.94c0.23,0,0.4-0.03,0.51-0.06l0.04,0.66
		c-0.17,0.07-0.44,0.12-0.78,0.12c-0.41,0-0.74-0.13-0.95-0.37c-0.25-0.26-0.34-0.69-0.34-1.26v-2.64H74.5v-0.67h0.75v-1.16
		L76.11,1074.12z"/>
	<path d="M83.39,1073.41c-0.73,0.98-1.26,2.28-1.26,4.09c0,1.78,0.55,3.06,1.26,4.06H82.7c-0.63-0.83-1.31-2.11-1.31-4.06
		c0.01-1.97,0.68-3.25,1.31-4.09H83.39z"/>
	<path d="M89.44,1080.13c-0.32,0.16-0.96,0.32-1.78,0.32c-1.9,0-3.33-1.2-3.33-3.41c0-2.11,1.43-3.54,3.52-3.54
		c0.84,0,1.37,0.18,1.6,0.3l-0.21,0.71c-0.33-0.16-0.8-0.28-1.36-0.28c-1.58,0-2.63,1.01-2.63,2.78c0,1.65,0.95,2.71,2.59,2.71
		c0.53,0,1.07-0.11,1.42-0.28L89.44,1080.13z"/>
	<path d="M90.64,1081.56c0.71-0.99,1.26-2.29,1.26-4.09c0-1.79-0.54-3.07-1.26-4.06h0.68c0.64,0.82,1.31,2.1,1.31,4.07
		c0,1.96-0.67,3.23-1.31,4.08H90.64z"/>
	<path d="M96.85,1080.35v-0.54l0.69-0.67c1.66-1.58,2.41-2.42,2.42-3.4c0-0.66-0.32-1.27-1.29-1.27c-0.59,0-1.08,0.3-1.38,0.55
		l-0.28-0.62c0.45-0.38,1.09-0.66,1.84-0.66c1.4,0,1.99,0.96,1.99,1.89c0,1.2-0.87,2.17-2.24,3.49l-0.52,0.48v0.02H101v0.73H96.85z"
		/>
	<path d="M106.8,1077.03c0,2.21-0.82,3.43-2.26,3.43c-1.27,0-2.13-1.19-2.15-3.34c0-2.18,0.94-3.38,2.26-3.38
		C106.02,1073.74,106.8,1074.96,106.8,1077.03z M103.27,1077.13c0,1.69,0.52,2.65,1.32,2.65c0.9,0,1.33-1.05,1.33-2.71
		c0-1.6-0.41-2.65-1.32-2.65C103.83,1074.42,103.27,1075.36,103.27,1077.13z"/>
	<path d="M110.02,1074.67H110l-1.13,0.61l-0.17-0.67l1.42-0.76h0.75v6.5h-0.85V1074.67z"/>
	<path d="M118.06,1077.03c0,2.21-0.82,3.43-2.26,3.43c-1.27,0-2.13-1.19-2.15-3.34c0-2.18,0.94-3.38,2.26-3.38
		C117.28,1073.74,118.06,1074.96,118.06,1077.03z M114.53,1077.13c0,1.69,0.52,2.65,1.32,2.65c0.9,0,1.33-1.05,1.33-2.71
		c0-1.6-0.41-2.65-1.32-2.65C115.09,1074.42,114.53,1075.36,114.53,1077.13z"/>
	<path d="M124.31,1077.32v0.65h-2.47v-0.65H124.31z"/>
	<path d="M128.18,1080.35v-0.54l0.69-0.67c1.66-1.58,2.41-2.42,2.42-3.4c0-0.66-0.32-1.27-1.29-1.27c-0.59,0-1.08,0.3-1.38,0.55
		l-0.28-0.62c0.45-0.38,1.09-0.66,1.84-0.66c1.4,0,1.99,0.96,1.99,1.89c0,1.2-0.87,2.17-2.24,3.49l-0.52,0.48v0.02h2.92v0.73H128.18
		z"/>
	<path d="M138.12,1077.03c0,2.21-0.82,3.43-2.26,3.43c-1.27,0-2.13-1.19-2.15-3.34c0-2.18,0.94-3.38,2.26-3.38
		C137.35,1073.74,138.12,1074.96,138.12,1077.03z M134.6,1077.13c0,1.69,0.52,2.65,1.32,2.65c0.9,0,1.33-1.05,1.33-2.71
		c0-1.6-0.41-2.65-1.32-2.65C135.16,1074.42,134.6,1075.36,134.6,1077.13z"/>
	<path d="M141.35,1074.67h-0.02l-1.13,0.61l-0.17-0.67l1.42-0.76h0.75v6.5h-0.85V1074.67z"/>
	<path d="M145.58,1079.73c0.19,0.02,0.41,0,0.71-0.03c0.51-0.07,0.99-0.28,1.36-0.63c0.43-0.39,0.74-0.96,0.86-1.73h-0.03
		c-0.36,0.44-0.88,0.7-1.53,0.7c-1.17,0-1.92-0.88-1.92-1.99c0-1.23,0.89-2.31,2.22-2.31c1.33,0,2.15,1.08,2.15,2.74
		c0,1.43-0.48,2.43-1.12,3.05c-0.5,0.49-1.19,0.79-1.89,0.87c-0.32,0.05-0.6,0.06-0.81,0.05V1079.73z M145.9,1075.99
		c0,0.81,0.49,1.38,1.25,1.38c0.59,0,1.05-0.29,1.28-0.68c0.05-0.08,0.08-0.18,0.08-0.32c0-1.11-0.41-1.96-1.33-1.96
		C146.43,1074.41,145.9,1075.07,145.9,1075.99z"/>
	<path d="M153.51,1079.29c0.39,0.24,0.96,0.44,1.56,0.44c0.89,0,1.41-0.47,1.41-1.15c0-0.63-0.36-0.99-1.27-1.34
		c-1.1-0.39-1.78-0.96-1.78-1.91c0-1.05,0.87-1.83,2.18-1.83c0.69,0,1.19,0.16,1.49,0.33l-0.24,0.71c-0.22-0.12-0.67-0.32-1.28-0.32
		c-0.92,0-1.27,0.55-1.27,1.01c0,0.63,0.41,0.94,1.34,1.3c1.14,0.44,1.72,0.99,1.72,1.98c0,1.04-0.77,1.94-2.36,1.94
		c-0.65,0-1.36-0.19-1.72-0.43L153.51,1079.29z"/>
	<path d="M164.61,1081.34c-0.91-0.24-1.8-0.51-2.58-0.78c-0.14-0.05-0.28-0.1-0.41-0.1c-1.6-0.06-2.97-1.24-2.97-3.41
		c0-2.16,1.32-3.55,3.14-3.55c1.83,0,3.02,1.42,3.02,3.41c0,1.73-0.8,2.84-1.92,3.23v0.04c0.67,0.17,1.4,0.33,1.97,0.43
		L164.61,1081.34z M163.89,1076.95c0-1.35-0.7-2.74-2.13-2.74c-1.47,0-2.19,1.36-2.18,2.82c-0.01,1.43,0.78,2.72,2.14,2.72
		C163.11,1079.75,163.89,1078.49,163.89,1076.95z"/>
	<path d="M167.32,1073.61v3.99c0,1.51,0.67,2.15,1.57,2.15c1,0,1.64-0.66,1.64-2.15v-3.99h0.88v3.93c0,2.07-1.09,2.92-2.55,2.92
		c-1.38,0-2.42-0.79-2.42-2.88v-3.97H167.32z"/>
	<path d="M174.17,1078.23l-0.7,2.12h-0.9l2.29-6.74h1.05l2.3,6.74h-0.93l-0.72-2.12H174.17z M176.37,1077.55l-0.66-1.94
		c-0.15-0.44-0.25-0.84-0.35-1.23h-0.02c-0.1,0.4-0.21,0.81-0.34,1.22l-0.66,1.95H176.37z"/>
	<path d="M179.7,1073.7c0.44-0.09,1.07-0.14,1.67-0.14c0.93,0,1.53,0.17,1.95,0.55c0.34,0.3,0.53,0.76,0.53,1.28
		c0,0.89-0.56,1.48-1.27,1.72v0.03c0.52,0.18,0.83,0.66,0.99,1.36c0.22,0.94,0.38,1.59,0.52,1.85h-0.9
		c-0.11-0.19-0.26-0.77-0.45-1.61c-0.2-0.93-0.56-1.28-1.35-1.31h-0.82v2.92h-0.87V1073.7z M180.57,1076.77h0.89
		c0.93,0,1.52-0.51,1.52-1.28c0-0.87-0.63-1.25-1.55-1.26c-0.42,0-0.72,0.04-0.86,0.08V1076.77z"/>
	<path d="M189.07,1077.19h-2.62v2.43h2.92v0.73h-3.79v-6.74h3.64v0.73h-2.77v2.13h2.62V1077.19z"/>
	<path d="M197.1,1077.19h-2.62v2.43h2.92v0.73h-3.79v-6.74h3.64v0.73h-2.77v2.13h2.62V1077.19z"/>
	<path d="M199.04,1080.35v-6.74h0.95l2.16,3.41c0.5,0.79,0.89,1.5,1.21,2.19l0.02-0.01c-0.08-0.9-0.1-1.72-0.1-2.77v-2.82h0.82v6.74
		h-0.88l-2.14-3.42c-0.47-0.75-0.92-1.52-1.26-2.25l-0.03,0.01c0.05,0.85,0.07,1.66,0.07,2.78v2.88H199.04z"/>
	<path d="M206.99,1073.61v6.74h-0.87v-6.74H206.99z"/>
	<path d="M212.69,1080.35l-0.86-1.49c-0.35-0.57-0.57-0.94-0.78-1.33h-0.02c-0.19,0.39-0.38,0.75-0.73,1.34l-0.81,1.48h-1l2.06-3.41
		l-1.98-3.33h1.01l0.89,1.58c0.25,0.44,0.44,0.78,0.62,1.14h0.03c0.19-0.4,0.36-0.71,0.61-1.14l0.92-1.58h1l-2.05,3.28l2.1,3.46
		H212.69z"/>
	<path d="M222.54,1080.13c-0.32,0.16-0.96,0.32-1.78,0.32c-1.9,0-3.33-1.2-3.33-3.41c0-2.11,1.43-3.54,3.52-3.54
		c0.84,0,1.37,0.18,1.6,0.3l-0.21,0.71c-0.33-0.16-0.8-0.28-1.36-0.28c-1.58,0-2.63,1.01-2.63,2.78c0,1.65,0.95,2.71,2.59,2.71
		c0.53,0,1.07-0.11,1.42-0.28L222.54,1080.13z"/>
	<path d="M229.68,1076.91c0,2.32-1.41,3.55-3.13,3.55c-1.78,0-3.03-1.38-3.03-3.42c0-2.14,1.33-3.54,3.13-3.54
		C228.49,1073.5,229.68,1074.91,229.68,1076.91z M224.46,1077.02c0,1.44,0.78,2.73,2.15,2.73c1.38,0,2.16-1.27,2.16-2.8
		c0-1.34-0.7-2.74-2.15-2.74C225.17,1074.21,224.46,1075.54,224.46,1077.02z"/>
	<path d="M230.74,1079.83c0-0.37,0.25-0.63,0.6-0.63s0.59,0.26,0.59,0.63c0,0.36-0.23,0.63-0.6,0.63
		C230.98,1080.46,230.74,1080.19,230.74,1079.83z"/>
	<path d="M232.95,1081.58c0.22-0.59,0.49-1.66,0.6-2.39l0.98-0.1c-0.23,0.85-0.67,1.96-0.95,2.43L232.95,1081.58z"/>
	<path d="M238.74,1073.61h0.87v6.01h2.88v0.73h-3.75V1073.61z"/>
	<path d="M244.35,1074.35h-2.05v-0.74h4.99v0.74h-2.06v6h-0.88V1074.35z"/>
	<path d="M248.55,1073.7c0.53-0.08,1.16-0.14,1.85-0.14c1.25,0,2.14,0.29,2.73,0.84c0.6,0.55,0.95,1.33,0.95,2.42
		c0,1.1-0.34,2-0.97,2.62c-0.63,0.63-1.67,0.97-2.98,0.97c-0.62,0-1.14-0.03-1.58-0.08V1073.7z M249.41,1079.66
		c0.22,0.04,0.54,0.05,0.88,0.05c1.86,0,2.87-1.04,2.87-2.86c0.01-1.59-0.89-2.6-2.73-2.6c-0.45,0-0.79,0.04-1.02,0.09V1079.66z"/>
	<path d="M255.12,1079.83c0-0.37,0.25-0.63,0.6-0.63c0.35,0,0.59,0.26,0.59,0.63c0,0.36-0.23,0.63-0.6,0.63
		C255.37,1080.46,255.12,1080.19,255.12,1079.83z"/>
	<path d="M261.64,1078.23l-0.7,2.12h-0.9l2.29-6.74h1.05l2.3,6.74h-0.93l-0.72-2.12H261.64z M263.85,1077.55l-0.66-1.94
		c-0.15-0.44-0.25-0.84-0.35-1.23h-0.02c-0.1,0.4-0.21,0.81-0.34,1.22l-0.66,1.95H263.85z"/>
	<path d="M267.12,1073.25H268v7.1h-0.88V1073.25z"/>
	<path d="M269.97,1073.25h0.88v7.1h-0.88V1073.25z"/>
	<path d="M275.49,1073.7c0.44-0.09,1.07-0.14,1.67-0.14c0.93,0,1.53,0.17,1.95,0.55c0.34,0.3,0.53,0.76,0.53,1.28
		c0,0.89-0.56,1.48-1.27,1.72v0.03c0.52,0.18,0.83,0.66,0.99,1.36c0.22,0.94,0.38,1.59,0.52,1.85h-0.9
		c-0.11-0.19-0.26-0.77-0.45-1.61c-0.2-0.93-0.56-1.28-1.35-1.31h-0.82v2.92h-0.87V1073.7z M276.35,1076.77h0.89
		c0.93,0,1.52-0.51,1.52-1.28c0-0.87-0.63-1.25-1.55-1.26c-0.42,0-0.72,0.04-0.86,0.08V1076.77z"/>
	<path d="M282.41,1074.15c0.01,0.3-0.21,0.54-0.56,0.54c-0.31,0-0.53-0.24-0.53-0.54c0-0.31,0.23-0.55,0.55-0.55
		C282.2,1073.6,282.41,1073.84,282.41,1074.15z M281.43,1080.35v-4.84h0.88v4.84H281.43z"/>
	<path d="M288.44,1075.51c-0.02,0.35-0.04,0.74-0.04,1.33v2.81c0,1.11-0.22,1.79-0.69,2.21c-0.47,0.44-1.15,0.58-1.76,0.58
		c-0.58,0-1.22-0.14-1.61-0.4l0.22-0.67c0.32,0.2,0.82,0.38,1.42,0.38c0.9,0,1.56-0.47,1.56-1.69v-0.54h-0.02
		c-0.27,0.45-0.79,0.81-1.54,0.81c-1.2,0-2.06-1.02-2.06-2.36c0-1.64,1.07-2.57,2.18-2.57c0.84,0,1.3,0.44,1.51,0.84h0.02l0.04-0.73
		H288.44z M287.53,1077.42c0-0.15-0.01-0.28-0.05-0.4c-0.16-0.51-0.59-0.93-1.23-0.93c-0.84,0-1.44,0.71-1.44,1.83
		c0,0.95,0.48,1.74,1.43,1.74c0.54,0,1.03-0.34,1.22-0.9c0.05-0.15,0.07-0.32,0.07-0.47V1077.42z"/>
	<path d="M290.36,1073.25h0.88v3.02h0.02c0.14-0.25,0.36-0.47,0.63-0.62c0.26-0.15,0.57-0.25,0.9-0.25c0.65,0,1.69,0.4,1.69,2.07
		v2.88h-0.88v-2.78c0-0.78-0.29-1.44-1.12-1.44c-0.57,0-1.02,0.4-1.18,0.88c-0.05,0.12-0.06,0.25-0.06,0.42v2.92h-0.88V1073.25z"/>
	<path d="M297.43,1074.12v1.39h1.26v0.67h-1.26v2.61c0,0.6,0.17,0.94,0.66,0.94c0.23,0,0.4-0.03,0.51-0.06l0.04,0.66
		c-0.17,0.07-0.44,0.12-0.78,0.12c-0.41,0-0.74-0.13-0.95-0.37c-0.25-0.26-0.34-0.69-0.34-1.26v-2.64h-0.75v-0.67h0.75v-1.16
		L297.43,1074.12z"/>
	<path d="M300.06,1079.45c0.26,0.17,0.72,0.35,1.16,0.35c0.64,0,0.94-0.32,0.94-0.72c0-0.42-0.25-0.65-0.9-0.89
		c-0.87-0.31-1.28-0.79-1.28-1.37c0-0.78,0.63-1.42,1.67-1.42c0.49,0,0.92,0.14,1.19,0.3l-0.22,0.64c-0.19-0.12-0.54-0.28-0.99-0.28
		c-0.52,0-0.81,0.3-0.81,0.66c0,0.4,0.29,0.58,0.92,0.82c0.84,0.32,1.27,0.74,1.27,1.46c0,0.85-0.66,1.45-1.81,1.45
		c-0.53,0-1.02-0.13-1.36-0.33L300.06,1079.45z"/>
	<path d="M307.29,1073.7c0.44-0.09,1.07-0.14,1.67-0.14c0.93,0,1.53,0.17,1.95,0.55c0.34,0.3,0.53,0.76,0.53,1.28
		c0,0.89-0.56,1.48-1.27,1.72v0.03c0.52,0.18,0.83,0.66,0.99,1.36c0.22,0.94,0.38,1.59,0.52,1.85h-0.9
		c-0.11-0.19-0.26-0.77-0.45-1.61c-0.2-0.93-0.56-1.28-1.35-1.31h-0.82v2.92h-0.87V1073.7z M308.16,1076.77h0.89
		c0.93,0,1.52-0.51,1.52-1.28c0-0.87-0.63-1.25-1.55-1.26c-0.42,0-0.72,0.04-0.86,0.08V1076.77z"/>
	<path d="M313.67,1078.09c0.02,1.19,0.78,1.68,1.66,1.68c0.63,0,1.01-0.11,1.34-0.25l0.15,0.63c-0.31,0.14-0.84,0.3-1.61,0.3
		c-1.49,0-2.38-0.98-2.38-2.44c0-1.46,0.86-2.61,2.27-2.61c1.58,0,2,1.39,2,2.28c0,0.18-0.02,0.32-0.03,0.41H313.67z
		 M316.25,1077.46c0.01-0.56-0.23-1.43-1.22-1.43c-0.89,0-1.28,0.82-1.35,1.43H316.25z"/>
	<path d="M318.57,1079.45c0.26,0.17,0.72,0.35,1.16,0.35c0.64,0,0.94-0.32,0.94-0.72c0-0.42-0.25-0.65-0.9-0.89
		c-0.87-0.31-1.28-0.79-1.28-1.37c0-0.78,0.63-1.42,1.67-1.42c0.49,0,0.92,0.14,1.19,0.3l-0.22,0.64c-0.19-0.12-0.54-0.28-0.99-0.28
		c-0.52,0-0.81,0.3-0.81,0.66c0,0.4,0.29,0.58,0.92,0.82c0.84,0.32,1.27,0.74,1.27,1.46c0,0.85-0.66,1.45-1.81,1.45
		c-0.53,0-1.02-0.13-1.36-0.33L318.57,1079.45z"/>
	<path d="M323.64,1078.09c0.02,1.19,0.78,1.68,1.66,1.68c0.63,0,1.01-0.11,1.34-0.25l0.15,0.63c-0.31,0.14-0.84,0.3-1.61,0.3
		c-1.49,0-2.38-0.98-2.38-2.44c0-1.46,0.86-2.61,2.27-2.61c1.58,0,2,1.39,2,2.28c0,0.18-0.02,0.32-0.03,0.41H323.64z
		 M326.22,1077.46c0.01-0.56-0.23-1.43-1.22-1.43c-0.89,0-1.28,0.82-1.35,1.43H326.22z"/>
	<path d="M328.66,1077.02c0-0.57-0.01-1.06-0.04-1.51h0.77l0.03,0.95h0.04c0.22-0.65,0.75-1.06,1.34-1.06c0.1,0,0.17,0.01,0.25,0.03
		v0.83c-0.09-0.02-0.18-0.03-0.3-0.03c-0.62,0-1.06,0.47-1.18,1.13c-0.02,0.12-0.04,0.26-0.04,0.41v2.58h-0.87V1077.02z"/>
	<path d="M333.02,1075.51l0.95,2.72c0.16,0.44,0.29,0.84,0.39,1.24h0.03c0.11-0.4,0.25-0.8,0.41-1.24l0.94-2.72h0.92l-1.9,4.84
		h-0.84l-1.84-4.84H333.02z"/>
	<path d="M338.38,1078.09c0.02,1.19,0.78,1.68,1.66,1.68c0.63,0,1.01-0.11,1.34-0.25l0.15,0.63c-0.31,0.14-0.84,0.3-1.61,0.3
		c-1.49,0-2.38-0.98-2.38-2.44c0-1.46,0.86-2.61,2.27-2.61c1.58,0,2,1.39,2,2.28c0,0.18-0.02,0.32-0.03,0.41H338.38z
		 M340.96,1077.46c0.01-0.56-0.23-1.43-1.22-1.43c-0.89,0-1.28,0.82-1.35,1.43H340.96z"/>
	<path d="M347.58,1073.25v5.85c0,0.43,0.01,0.92,0.04,1.25h-0.79l-0.04-0.84h-0.02c-0.27,0.54-0.86,0.95-1.65,0.95
		c-1.17,0-2.07-0.99-2.07-2.46c-0.01-1.61,0.99-2.6,2.17-2.6c0.74,0,1.24,0.35,1.46,0.74h0.02v-2.89H347.58z M346.7,1077.48
		c0-0.11-0.01-0.26-0.04-0.37c-0.13-0.56-0.61-1.02-1.27-1.02c-0.91,0-1.45,0.8-1.45,1.87c0,0.98,0.48,1.79,1.43,1.79
		c0.59,0,1.13-0.39,1.29-1.05c0.03-0.12,0.04-0.24,0.04-0.38V1077.48z"/>
	<path d="M349.23,1079.83c0-0.37,0.25-0.63,0.6-0.63s0.59,0.26,0.59,0.63c0,0.36-0.23,0.63-0.6,0.63
		C349.47,1080.46,349.23,1080.19,349.23,1079.83z"/>
</g>
<text transform="matrix(1 0 0 1 663.1072 1078.9213)" font-family="'KozGoPr6N-Medium-83pv-RKSJ-H'" font-size="8px">This is an informal card. / Designed by .</text>
</svg>
