<?xml version="1.0" encoding="utf-8"?>
<!-- Generator: Adobe Illustrator 23.0.3, SVG Export Plug-In . SVG Version: 6.00 Build 0)  -->
<svg version="1.1" id="レイヤー_1" xmlns="http://www.w3.org/2000/svg" xmlns:xlink="http://www.w3.org/1999/xlink" x="0px"
	 y="0px" width="1121.23px" height="1121.23px" viewBox="0 0 1121.23 1121.23" enable-background="new 0 0 1121.23 1121.23"
	 xml:space="preserve">
<path fill="none" stroke="#000000" stroke-width="10" stroke-miterlimit="10" d="M1055.15,861.35H66.08c-11.05,0-20-8.95-20-20
	V235.19c0-11.05,8.95-20,20-20h989.07c11.05,0,20,8.95,20,20v606.16C1075.15,852.4,1066.2,861.35,1055.15,861.35z"/>
<g>
	<g>
		<path d="M670.62,774.42c0.04,0.63,0.13,0.98-0.2,1.36c-1.04,0.36-2.25-0.05-3.43,0.25c77.98,59.85,188.73,56.12,261.07-0.14
			c-2.25,0-4.23,0-6,0c-0.39-0.46-0.37-0.73-0.31-1.01c2.03-1.9,2.04-1.9,2.04-4.89c0-6.18-0.02-12.35,0.01-18.53
			c0.01-2.32-0.38-4.59-0.71-6.87c-0.35-2.42-0.69-4.84-1.02-7.26c-0.38-2.69-0.76-5.39-1.13-8.08c-0.34-2.49-0.65-4.98-0.99-7.48
			c-0.29-2.14-0.55-4.29-0.89-6.43c-0.2-1.24-1.06-2.1-1.91-2.68c-0.2-0.61-0.14-1.01,0.04-1.5c3.22,0,6.42,0,9.64,0
			c0.43,0.27,0.31,0.72,0.33,1.01c-0.07,0.41-0.28,0.59-0.53,0.73c-1.1,0.61-1.25,1.6-1.08,2.72c0.43,2.7,0.57,5.42,0.8,8.14
			c0.18,2.09,0.48,4.16,0.68,6.25c0.13,1.31,0.17,2.63,0.32,3.95c0.55-2.61,0.78-5.25,1.06-7.88c0.33-3.12,0.72-6.24,1.14-9.36
			c0.23-1.7,0.2-3.24-1.45-4.13c-0.16-0.53-0.2-0.93,0.16-1.43c3.12,0,6.32,0,9.56,0c0.54,0.42,0.28,0.97,0.22,1.55
			c-0.59,0.27-1.16,0.53-1.63,0.75c-0.53,0.64-0.72,1.28-0.81,2c-0.5,3.88-1.07,7.74-1.58,11.62c-0.34,2.56-0.61,5.13-0.95,7.69
			c-0.35,2.7-0.84,5.38-1.09,8.09c-0.32,3.41-1.07,6.76-1.02,10.21c0.08,5.68,0.03,11.37,0.02,17.06c0,0.99-0.02,1.97,0.83,2.97
			c3.54-2.57,6.81-5.5,10.08-8.42c3.24-2.89,6.39-5.89,9.47-9.04c0.43,0.72-0.16,0.97-0.44,1.27c-5.07,5.44-10.26,10.77-15.88,15.66
			c-0.63,0.55-1.23,1.14-1.85,1.72c-0.08,0.49-0.16,0.95-0.23,1.36c-0.56,0.48-1.18,0.12-1.71,0.4
			c-38.84,31.95-83.29,48.76-133.77,48.75c-50.48-0.01-94.93-16.82-133.86-48.87c-0.5,0-1.06,0-1.62,0c-0.56,0-1.11,0-1.63,0
			c-0.38-1.26-0.38-1.26,0.52-2.46c-1.01-0.94-2.33-2.08-3.45-3.12c-0.04,1.33,0.11,1.99,0.19,2.54c0.35,0.97,1.11,1.19,1.53,1.7
			c0.07,0.39,0.12,0.73-0.06,1.02c-0.08,0.08-0.12,0.17-0.17,0.18c-3,0.34-6.01,0.05-8.9,0.16c-0.61-0.45-0.43-0.94-0.43-1.45
			c0.55-0.33,1.08-0.65,1.75-1.04c0.58-2.83,0.68-3.32,1.05-7.93c-4.06-4.02-7.65-7.72-11.4-12.16c1.1,0.26,1.45,1.04,2,1.54
			c0.67,0.61,1.29,1.29,1.94,1.94c0.6,0.6,1.19,1.19,1.79,1.78c0.6,0.59,1.2,1.18,1.81,1.77c0.66,0.64,1.31,1.27,1.97,1.9
			c0.6,0.56,1.21,1.11,2.09,1.91c0.39-3.76,4.4-49.39,5.03-52.9c1.17-0.44,2.37-0.17,3.54-0.22c1.11-0.05,2.22-0.01,3.44-0.01
			c0.19,1.38,3.89,55.68,3.98,60.02C668.57,772.57,669.15,773.81,670.62,774.42z M661.29,758.52c0-1.08,0.03-1.99-0.01-2.89
			c-0.09-2.38-0.39-4.74-0.43-7.12c-0.07-4.2-0.29-8.39-0.45-12.58c-0.01-0.21-0.07-0.41-0.13-0.72c-0.61,7.81-1.2,15.5-1.81,23.31
			C659.41,758.52,660.23,758.52,661.29,758.52z M657.53,768.7c0.3,0.22,0.65,0.46,0.97,0.72c1.02,0.81,2.02,1.64,3.09,2.5
			c0.03-4.32-0.29-6.33-0.51-8.64c-0.96,0.11-1.66,0.16-3.07,0.2C657.86,765.43,657.73,765.88,657.53,768.7z"/>
		<path d="M809.35,775.86c-2.1,0-4.13,0-6.19,0c-0.49-0.44-0.55-1.11-0.65-1.69c-0.64-3.92-1.17-7.86-1.8-11.79
			c-0.77-4.82-1.63-9.62-2.4-14.44c-0.67-4.2-1.27-8.4-2.15-12.61c0,0.72,0,1.44,0,2.16c0,11.02,0.03,22.03-0.03,33.05
			c-0.01,1.82,0.29,3.34,1.9,4.1c0.22,0.45,0.17,0.72,0.08,0.99c-0.48,0.41-6.41,0.49-9.47,0.11c-0.58-1.75,1.76-1.81,1.96-3.12
			c0-0.77,0-1.54,0-2.31c0-17.61-0.01-35.22,0.01-52.84c0-2.02-0.05-3.94-1.92-5.25c-0.09-0.06-0.12-0.25-0.13-0.38
			c-0.01-0.13,0.04-0.27,0.06-0.41c1.32-0.47,7.09-0.59,10.17-0.18c1.94,11.8,3.5,23.74,5.62,35.6c0-0.83,0-1.66,0-2.5
			c0-8.91-0.01-17.82,0.01-26.73c0-1.34-0.08-2.65-0.5-3.93c-0.25-0.77-1.2-0.97-1.43-1.73c0-0.43,0.18-0.78,0.56-0.81
			c2.71-0.22,5.41-0.07,7.96-0.09c0.36,0.73,0.26,1.13-0.09,1.43c-1.19,1.01-1.38,2.36-1.36,3.81c0.02,3.3,0.01,6.6,0.01,9.89
			c0,15.72,0,31.44-0.01,47.15C809.57,774.12,809.72,774.89,809.35,775.86z"/>
		<path d="M617.68,775.69c-0.23-0.32-0.18-0.65-0.01-1.08c0.58-0.57,1.47-0.97,1.92-2.31c0-0.32,0-1.09,0-1.86
			c0-17.68-0.02-35.37,0.02-53.05c0-2.11-0.06-4.1-2.04-5.2c0-0.85,0.4-1.1,0.95-1.1c2.94-0.01,5.87-0.01,9.01-0.01
			c2.02,11.83,3.83,23.59,5.77,35.34c0.33-0.15,0.15-0.49,0.19-0.75c0.04-0.27,0.01-0.56,0.01-0.84c0-9.54-0.01-19.09,0.01-28.63
			c0-1.53-0.17-2.95-1.6-3.76c-0.17-0.42-0.17-0.76,0-1.1c0.54-0.41,6.32-0.43,8.26-0.02c0.32,0.59,0.11,1.05-0.32,1.5
			c-0.98,1.03-1.24,2.3-1.24,3.67c0.02,11.3,0.03,22.6,0.04,33.89c0,8.07-0.02,16.14-0.03,24.21c0,0.34-0.04,0.69-0.07,1.28
			c-2.16,0.1-4.29,0.07-6.57,0.01c-2.23-13.19-4.44-26.27-6.64-39.36c-0.06,0-0.11,0.01-0.17,0.01c0,12.19,0,24.37,0,36.56
			c0.31,1.01,2.03,1.11,1.62,2.52C625.29,776.01,619.68,776.06,617.68,775.69z"/>
		<path d="M887.85,753.25c2.8-1.63,5.34-3.1,7.87-4.56c0.5,0.45,0.32,0.99,0.22,1.41c-0.79,3.23-0.85,6.51-0.84,9.8
			c0.01,2.67,0.06,5.33,0.03,8c-0.01,1.01,0.31,1.93,0.52,2.88c0.14,0.63,0.54,1.14,1.27,1.19c0.74-0.23,0.98-0.91,1.04-1.48
			c0.13-1.25,0.54-2.45,0.54-3.73c0-1.75,0.24-3.49,0.32-5.24c0.33-6.56-1.25-12.59-4.86-18.11c-1.57-2.4-3.08-4.84-4.33-7.43
			c-1.36-2.82-1.94-5.83-2.1-8.9c-0.13-2.59-0.03-5.19-0.03-7.78c0-1.63,0.46-3.18,0.97-4.7c0.45-1.31,1.41-2.27,2.57-2.96
			c3.28-1.98,7.42-1.82,10.36,0.7c0.84,0.72,1.43,1.54,1.71,2.57c0.31,1.14,0.58,2.3,0.79,3.46c0.3,1.61,0.26,9.14-0.03,11.01
			c-2.11,1.14-4.29,2.33-6.63,3.6c0-1-0.12-1.78,0.02-2.51c0.65-3.55,0.36-7.13,0.32-10.69c-0.01-1.1-0.25-2.22-0.51-3.3
			c-0.14-0.59-0.41-1.22-1.29-1.47c-0.56,0.24-0.97,0.69-1.1,1.46c-0.15,0.97-0.39,1.91-0.4,2.9c-0.06,4.06-0.06,8.1,1.2,12.04
			c1.1,3.44,2.9,6.51,4.85,9.5c2.07,3.19,3.8,6.49,4.69,10.23c0.87,3.7,1.24,7.42,1.15,11.22c-0.08,3.03-0.34,6-1.37,8.86
			c-0.81,2.24-2.01,4.23-4.4,5.05c-3.81,1.32-8.63,0.65-10.81-3.78c-0.65-1.33-1.13-2.7-1.41-4.15
			C887.23,763.33,887.29,758.33,887.85,753.25z"/>
		<path d="M744.37,754.25c-0.83,0.23-1.36,0.29-2-0.06c-0.33-1.63-0.11-3.4-0.59-5.1c-0.38-1.35-0.76-2.69-1.44-3.92
			c-0.45-0.82-1.02-1.5-2-1.64c-0.52,0.4-0.32,0.93-0.32,1.38c-0.01,8.49,0.01,16.99-0.03,25.48c-0.01,1.93,0.48,3.46,2.33,4.15
			c0.22,0.44,0.24,0.77,0.09,1.11c-0.48,0.4-10.38,0.44-12.72,0.06c-0.28-0.3-0.18-0.64-0.1-1.07c0.76-0.59,1.91-0.83,2.35-2.52
			c0-19.02,0-38.6,0-58.11c-0.42-1.15-1.51-1.19-2.28-1.49c-0.25-0.45-0.23-0.79-0.1-1.13c1.4-0.42,18.73-0.57,21.96-0.18
			c0,9.89,0.11,14.85,0.11,22.03c-0.17,0.05-0.36,0.15-0.55,0.16c-0.41,0-0.81-0.04-1.27-0.07c-0.61-3.45-1.17-6.82-2.25-10.06
			c-0.71-2.14-1.58-4.2-2.99-5.97c-1.11-1.39-2.54-2.08-4.44-1.91c0,7.31,0,14.5,0,21.71c1.48,0.27,2.2-0.61,2.77-1.58
			c0.83-1.4,1.21-2.96,1.28-4.59c0.05-1.04-0.1-2.1,0.23-3.05c0.53-0.53,1.08-0.41,1.67-0.29c0.08,0.16,0.24,0.35,0.24,0.53
			c0.03,2.74,0.04,5.47,0.04,8.21c0,5.26,0,10.53,0,15.79C744.37,752.78,744.37,753.48,744.37,754.25z"/>
		<path d="M995.28,712.41c0.03-0.39,0.06-0.74,0.08-1.03c0.57-0.44,6.45-0.52,9.42-0.17c0.4,0.31,0.26,0.75,0.26,1.18
			c-0.32,0.71-1.21,0.95-1.6,1.99c-0.44,1.76,0.24,3.74,0.49,5.73c0.44,3.53,1.02,7.04,1.57,10.56c0.63,4.07,1.3,8.13,1.92,12.2
			c0.53,3.45,1.02,6.9,1.69,10.38c0.31-1.96,0.64-3.93,0.94-5.89c0.53-3.45,1.05-6.9,1.56-10.35c0.48-3.24,0.93-6.49,1.4-9.74
			c0.5-3.45,0.97-6.91,1.53-10.35c0.28-1.76,0.35-3.37-1.33-4.4c-0.18-0.53-0.08-0.91,0.31-1.35c2.64,0,5.34,0,7.99,0
			c0.54,0.45,0.3,0.94,0.36,1.5c-2.44,0.84-2.18,3.04-2.46,4.91c-0.61,4-1.12,8.02-1.64,12.03c-0.34,2.63-0.6,5.27-0.95,7.9
			c-0.34,2.63-0.77,5.25-1.12,7.88c-0.35,2.63-0.64,5.27-0.98,7.9c-0.34,2.63-0.73,5.25-1.08,7.88c-0.34,2.56-0.74,5.12-0.98,7.69
			c-0.12,1.32-0.72,2.59-0.39,3.95c0.2,0.81,0.81,1.26,1.43,1.6c0.3,0.46,0.15,0.87,0.15,1.21c-0.48,0.43-7.21,0.53-11.13,0.22
			c-0.44-0.29-0.33-0.71-0.27-1.2c0.39-0.6,1.31-0.74,1.69-1.94c0.14-1.54,0.1-3.48-0.21-5.43c-0.42-2.62-0.69-5.26-1.04-7.89
			c-0.36-2.7-0.73-5.39-1.09-8.09c-0.35-2.63-0.67-5.26-1.02-7.89c-0.36-2.7-0.73-5.39-1.09-8.09c-0.34-2.56-0.67-5.12-1.01-7.68
			c-0.37-2.77-0.7-5.54-1.12-8.3c-0.18-1.17-0.16-2.36-0.46-3.53C996.66,713.93,996.76,713.9,995.28,712.41z"/>
		<path d="M764.75,711.17c2.42,0,4.71,0,6.98,0c0.16,0.27,4.15,58.17,4.23,60.13c0.06,1.42,0.54,2.07,2.01,3.23
			c0.06,0.4,0.18,0.81-0.18,1.29c-3.41,0-6.9,0-10.39,0c-0.41-0.29-0.34-0.71-0.28-1.28c1.95-0.95,2.25-2.74,1.98-4.73
			c-0.29-2.08-0.33-4.17-0.42-6.37c-1.21-0.27-2.35-0.15-3.64-0.09c0.02,3.34-0.81,6.49-0.44,9.63c0.34,0.76,0.93,1.16,1.44,1.44
			c0.19,0.55,0.23,0.95-0.16,1.41c-2.83,0-5.75,0-8.66,0c-0.54-0.39-0.2-0.9-0.33-1.4c0.81-0.42,1.55-0.82,2.07-1.79
			C759.56,769.89,763.76,719.26,764.75,711.17z M767.36,735.35c-0.04,0-0.07,0-0.11,0.01c-0.59,7.69-1.17,15.39-1.77,23.21
			c1.13,0.01,2.13,0.25,3.06-0.17C768.14,750.63,767.75,742.99,767.36,735.35z"/>
		<path d="M572.78,774.46c0.13,0.57,0.18,0.91-0.1,1.35c-3.89,0-7.84,0-11.76,0c-0.41-0.4-0.26-0.82-0.19-1.35
			c1.9-0.49,2.45-1.91,2.44-3.79c-0.02-18.52-0.01-37.04-0.01-55.56c0-0.28,0-0.56,0-0.66c-0.42-1.33-1.38-1.71-2.34-1.86
			c-0.25-0.56-0.29-0.95,0.08-1.43c6.77,0,13.62,0,20.46,0c0,12.13,0.2,16.82,0.2,21.97c-0.11,0.07-0.21,0.19-0.34,0.22
			c-0.48,0.09-0.97,0.15-1.48-0.11c-0.83-1.41-0.61-3.09-0.92-4.64c-0.61-3.02-1.29-5.99-2.53-8.82c-0.46-1.04-1.03-2-1.75-2.85
			c-1-1.18-2.26-1.83-3.86-1.55c-0.33,1.65-0.38,19.43-0.06,21.72c1.24,0.22,2.08-0.37,2.77-1.35c1.18-1.68,1.37-3.63,1.56-5.58
			c0.08-0.82,0.01-1.65,0.01-2.32c0.73-0.53,1.28-0.39,1.87-0.3c0.08,0.16,0.25,0.34,0.25,0.52c0.03,1.4,0.04,2.8,0.04,4.21
			c0,6.59,0,13.19,0,19.78c0,0.69,0,1.39,0,2.02c-0.66,0.53-1.27,0.37-1.91,0.23c-0.07-0.18-0.21-0.36-0.22-0.55
			c-0.12-2.61-0.7-5.12-1.71-7.51c-0.51-1.19-1.03-2.46-2.52-2.77c-0.55,0.54-0.34,1.13-0.34,1.66c-0.01,8.21-0.01,16.42-0.01,24.63
			c0,0.7,0.05,1.38,0.22,2.08C570.93,773.08,571.46,774.06,572.78,774.46z"/>
		<path d="M830.89,717.97c-1.58,2.44-2.27,5.15-2.93,7.85c-0.66,2.7-1.19,5.43-1.76,8.09c-0.71,0.51-1.39,0.24-2.2,0.28
			c-0.44-7.67,0.54-15.19,0.35-22.94c2.29-0.36,4.45-0.14,6.59-0.18c2.17-0.04,4.35-0.01,6.53-0.01c2.16,0,4.32,0,6.59,0
			c0.6,7.72,0.53,15.27,0.55,22.8c-0.76,0.56-1.52,0.32-2.39,0.26c-1.08-5.43-1.47-11.05-4.35-16.05c0,0.73,0,1.46,0,2.19
			c0,16.49,0,32.98,0,49.47c0,1.82-0.2,3.68,1.51,4.98c0.12,0.09,0.11,0.39,0.11,0.6c0,0.12-0.1,0.25-0.2,0.49
			c-3.22,0-6.49,0-9.75,0c-0.32-0.24-0.43-0.55-0.33-1.08c1.69-0.77,1.93-2.3,1.93-4.1c-0.04-16.91-0.02-33.83-0.03-50.74
			C831.07,719.28,831.22,718.65,830.89,717.97z"/>
		<path d="M982.7,774.5c0,0.44,0,0.78,0,1.09c-0.51,0.46-8.37,0.54-11.06,0.15c-0.33-0.37-0.26-0.76-0.05-1.15
			c2.39-1.64,2.78-2.82,2.1-5.93c-0.72-3.26-1.39-6.54-2.16-10.21c-1.01,2.62-1.26,5.08-1.77,7.45c-0.5,2.36-1.43,4.71-0.79,7.21
			c0.21,0.99,1.96,1.13,1.31,2.75c-2.7,0.17-5.48,0.03-8.14,0.07c-0.55-0.37-0.48-0.79-0.4-1.36c0.98-0.71,2.1-1.48,2.4-2.88
			c0.16-0.75,0.29-1.51,0.43-2.26c1.25-6.86,2.43-13.72,3.77-20.56c0.67-3.42,0.57-6.73-0.17-10.12c-0.76-3.54-1.27-7.14-1.88-10.71
			c-0.71-4.12-1.41-8.24-2.11-12.37c-0.24-1.44-1.11-2.38-2.3-2.86c-0.32-0.61-0.35-1.07,0-1.64c3.42,0,6.9,0,10.43,0
			c0.45,0.33,0.37,0.81,0.23,1.43c-0.97,0.77-2.58,1.08-2.78,2.89c0.72,3.66,1.46,7.46,2.2,11.26c1.26-4.28,2.28-8.59,2.93-12.76
			c-0.88-1.64-0.88-1.64-0.66-2.79c1.33-0.3,2.73-0.11,4.11-0.14c1.39-0.03,2.78-0.01,3.93-0.01c0.63,0.54,0.39,0.97,0.49,1.4
			c-0.27,0.17-0.48,0.37-0.73,0.46c-1.63,0.61-2.34,1.9-2.64,3.51c-0.56,3.01-1.12,6.03-1.69,9.04c-0.93,4.93-1.83,9.87-2.81,14.79
			c-0.43,2.14,0.11,4.17,0.46,6.23c0.62,3.71,1.29,7.41,1.94,11.12c0.73,4.19,1.41,8.39,2.2,12.56
			C979.85,772.08,980.92,773.62,982.7,774.5z"/>
		<path d="M700.84,775.86c-6.57,0-13.01,0-19.4,0c-0.48-0.34-0.35-0.77-0.31-1.3c1.46-1.06,2.08-2.61,2.08-4.46
			c-0.01-18.04,0-36.08-0.01-54.13c0-0.28-0.03-0.56-0.05-0.73c-0.46-1.14-1.39-1.68-2.24-2.27c-0.24-0.56-0.23-1.09,0.08-1.57
			c0.48-0.45,8.2-0.55,11.31-0.16c0.39,0.48,0.22,1.04,0.17,1.71c-1.79,0.99-2.01,2.68-2.01,4.63c0.04,17.27,0.03,34.54,0.03,51.81
			c0,0.69,0,1.38,0,2.22c1.76-0.37,2.64-1.49,3.4-2.75c1.63-2.73,2.47-5.76,3.23-8.82c0.85-3.45,1.42-6.95,1.83-10.43
			c0.63-0.53,1.22-0.4,1.78-0.22C701.12,749.84,701.21,772.5,700.84,775.86z"/>
		<path d="M603.73,774.42c0.23,0.52,0.28,0.86,0.12,1.22c-0.43,0.4-7.83,0.5-11.01,0.13c-0.36-0.33-0.24-0.76-0.2-1.27
			c0.72-0.51,1.64-0.96,2.1-2.23c0-0.27,0-0.83,0-1.39c0-18.02-0.01-36.05,0.01-54.07c0-1.86-0.33-3.49-2.04-4.38
			c-0.15-0.46-0.17-0.8,0.06-1.17c0.15-0.05,0.34-0.19,0.53-0.19c3.09-0.02,6.17-0.02,9.26-0.02c0.56,0,1.17-0.06,1.35,0.74
			c-0.01,0.08,0.01,0.28-0.07,0.34c-1.62,1.22-1.93,2.88-1.92,4.81c0.05,17.95,0.04,35.91,0.01,53.86
			C601.92,772.45,602.05,773.9,603.73,774.42z"/>
		<path d="M984.05,712.66c-0.1-0.62-0.12-0.96,0.07-1.3c0.54-0.44,7.71-0.49,9.96-0.06c0.33,0.22,0.41,0.54,0.33,1.09
			c-1.68,1.18-1.98,3.01-1.97,5.07c0.04,17.68,0.02,35.36,0.02,53.04c0,0.14,0.01,0.28,0,0.42c-0.15,1.68,0.22,3.07,1.95,3.59
			c0.13,0.48,0.17,0.81-0.01,1.14c-0.43,0.4-7.31,0.48-10.24,0.1c-0.05-0.16-0.15-0.35-0.16-0.54c-0.02-0.2,0.04-0.41,0.07-0.67
			c0.71-0.52,1.54-0.95,2.03-2.1c0-0.37,0-1,0-1.62c0-17.89-0.02-35.78,0.02-53.67C986.11,715.25,985.75,713.67,984.05,712.66z"/>
		<path d="M849.78,798.14c0-4.91,0-9.71,0-14.49c1.63-0.37,18.48-0.44,20.65-0.09c0.3,0.78,0.24,1.59,0.01,2.62
			c-1.82,0.34-3.71,0.12-5.57,0.16c-1.82,0.04-3.65,0.01-5.47,0.01c-1.89,0-3.78,0-5.68,0c-0.54,0.92-0.26,1.82-0.28,2.8
			c1.76,0.36,3.51,0.13,5.23,0.17c1.75,0.04,3.51,0.01,5.26,0.01c1.73,0,3.46,0,5.03,0c0.48,0.68,0.33,1.19,0.35,1.67
			c0.02,0.35-0.02,0.7-0.45,1.21c-2.37,0.17-4.94,0.05-7.51,0.07c-2.58,0.02-5.15,0-7.84,0c0,1.01,0,1.83,0,2.76
			c1.29,0.43,2.69,0.15,4.06,0.2c1.47,0.05,2.95,0.01,4.42,0.01c1.4,0,2.81,0,4.21,0c1.39,0,2.78,0,4,0c0.56,0.6,0.4,1.11,0.41,1.58
			c0.01,0.4-0.06,0.81-0.1,1.3C863.57,798.14,856.73,798.14,849.78,798.14z"/>
		<path d="M726.61,798.31c-1.4,0-2.8,0.04-4.2-0.01c-6.05-0.21-7.77-5.38-6.98-9.27c0.86-4.25,4.08-5.79,7.12-5.94
			c2.86-0.14,5.74-0.15,8.6,0.01c2.8,0.15,5.2,1.31,6.45,3.98c1.33,2.85,1.2,5.73-0.57,8.38c-1.2,1.8-3.07,2.64-5.18,2.79
			c-1.74,0.12-3.5,0.02-5.24,0.02C726.61,798.28,726.61,798.3,726.61,798.31z M726.37,786.04c-1.1,0.1-2.65-0.23-4.16,0.25
			c-2.29,0.73-3.27,2.15-3.2,4.75c0.06,2.38,1.15,3.78,3.52,4.24c2.83,0.55,5.69,0.49,8.54,0.03c0.28-0.04,0.56-0.07,0.82-0.17
			c1.24-0.46,2.28-1.27,2.58-2.57c0.76-3.3-0.08-6.12-4.31-6.52C729.04,785.95,727.91,786.04,726.37,786.04z"/>
		<path d="M768.28,798.18c-1.36,0-2.54,0-3.92,0c-4.42-3.49-8.98-7.09-13.77-10.88c0,3.7,0,7.17,0,10.72
			c-1.25,0.38-2.35,0.2-3.43,0.19c-0.43-1.43-0.53-12.28-0.14-14.94c2.14-0.22,4.09-0.32,5.99,1.37c3.24,2.88,6.76,5.45,10.17,8.14
			c0.49,0.38,0.95,0.83,1.76,1.06c0-3.47,0-6.88,0-10.36c1.19-0.18,2.2-0.18,3.34-0.01C768.28,788.36,768.28,793.16,768.28,798.18z"
			/>
		<path d="M822.75,787.14c0,2.09,0,3.83,0,5.57c0,1.75,0,3.49,0,5.27c-1.12,0.44-2.16,0.21-3.17,0.22
			c-0.44-1.43-0.54-12.43-0.13-14.93c1.21-0.27,2.46-0.08,3.93-0.12c4.44,3.5,9,7.09,13.84,10.92c0.14-3.67-0.01-7.05,0.09-10.28
			c0.58-0.61,1.17-0.4,1.71-0.44c0.49-0.03,0.98-0.01,1.44-0.01c0.42,1.53,0.51,12.12,0.13,14.79c-1.22,0-2.46,0-3.9,0
			C832.23,794.62,827.62,790.98,822.75,787.14z"/>
		<path d="M778.01,783.47c1.14-0.18,2.15-0.17,3.36,0c0,3.89,0,7.72,0,11.72c5.2,0,10.23,0,15.21,0c0.58,1,0.33,1.89,0.3,3
			c-6.28,0.13-12.48,0.04-18.64,0.06C777.8,796.62,777.67,787.49,778.01,783.47z"/>
		<path d="M1009.77,704.05c0.04,0.6,0.9,0.43,0.9,1.15c-1.11,0.44-2.21,0.43-3.45-0.08c2.32-1.67,2.48-4.37,3.82-6.51
			c-1.36-2.54-3.72-7.78-3.72-7.78l3.9-0.22c0,0-0.49,0.71-0.54,1.41c0.16,1.12,0.91,2.31,1.36,3.86c0.81-1.4,1.36-2.65,1.64-3.86
			c-0.06-0.72-0.93-1.33-0.93-1.33l3.18,0.04c0,0-2.37,3.91-3.49,6.07c1.24,2.69,1.61,5.81,3.67,8.22c-1.04,0.59-1.73,0.64-3.77,0.2
			c-0.15-0.33,0.1-0.49,0.29-0.69c0.14-0.15,0.22-0.35,0.35-0.57c-0.5-1.35-1.01-2.72-1.55-4.15
			C1010.11,701.59,1009.81,702.37,1009.77,704.05z"/>
		<path d="M806.27,798.14c0-4.9,0-9.69,0-14.58c1.03-0.37,2.05-0.18,3.06-0.15c0.46,1.42,0.6,10.9,0.23,14.65
			C808.5,798.39,807.43,798.27,806.27,798.14z"/>
		<path d="M966.73,697.13c-1.11,0.83-2.22,1.66-3.34,2.49c1.18-2.15,2.89-3.94,3.71-6.31c0.25-0.47-0.36-0.85-0.23-1.33
			c0.8-0.72,2,0.03,2.71,1.66c1.21,0.42,2.12-0.34,3.05-0.81c1.2,0.04,1.82,0.69,2.27,1.83c-1.5,1.17-2.55,2.72-3.56,4.32
			c0.19,1.06,1.2,1.77,1.15,2.94c-0.18,0.57-0.59,0.86-1.22,0.73c-0.8-0.26-0.73-1.2-1.5-1.71c-2.07,1.66-4.06,3.69-7.4,4.13
			c2.59-1.72,4.79-3.32,6.39-5.67c-0.69-0.76-1.38-1.53-2.08-2.3c1.04,0.39,2.08,0.78,3.17,1.2c0.86-1.05,1.51-2.17,1.91-3.52
			c-0.97-0.32-1.86-0.14-2.83-0.13C968.2,695.47,967.47,696.3,966.73,697.13z"/>
		<path d="M863.17,695.72c-1.06-0.56-2.39-0.89-2.17-2.73c1.74,0.36,3.36,0.22,5.01,0.01c1.66-0.21,3.34-0.26,4.9-0.85
			c0.97,0.42,1.73,1.01,2.29,1.96c-1.75,2.91-3.4,5.91-6.33,7.92c-1.45,0.99-2.95,1.83-4.74,2.13c3.26-2.7,6.47-5.42,7.83-9.95
			C867.41,694.06,865.25,694.57,863.17,695.72z"/>
		<path d="M934.14,694.58c-2.5,0.05-4.68,0.31-6.67,1.49c-1.94-0.76-2-0.81-2.38-2.54c3.43,0.32,6.76-0.13,10.18-0.93
			c0.77,0.39,1.45,1.06,2.12,1.77c-2.07,3.76-4.28,7.19-8.12,9.19c-0.91,0.47-1.8,1-3.13,1.01
			C929.54,701.75,932.87,699.14,934.14,694.58z"/>
		<path d="M900.63,691.29c1.58-0.55,1.81-0.5,3.37,0.71c-0.07,1.04-0.91,2.04-0.37,3.29c1.12,0.36,2.26,0.16,3.42-0.24
			c0.67,0.08,1.35,0.23,1.87,0.66c0.26,0.46,0.28,0.84-0.25,1.28c-1.65-0.13-3.44-0.43-5.18-0.05c-1.32,5.13-2.25,6.47-5.67,8.14
			c0.06-0.87,0.88-1.12,1.26-1.69c0.43-0.64,0.95-1.23,1.31-1.9c0.33-0.61,0.47-1.31,0.73-1.96c0.3-0.74,0.31-1.47,0.2-2.29
			c-1.54-0.28-2.82,0.48-4.29,0.61c-0.89-0.24-1.71-0.68-1.98-1.88c2.08-0.27,4.11,0.11,6.25-0.25
			C901.34,694.24,901.94,692.73,900.63,691.29z"/>
		<path d="M1019.44,690.7l1.78-0.13c0,0,0.65,5.32,1.13,7.98c0.54-2.6,1.27-7.81,1.27-7.81l1.47-0.15l-1.98,14.64l-2.01-0.04
			c0,0-0.36-4.84-0.65-7.26C1020.14,695.53,1019.44,690.7,1019.44,690.7z"/>
		<path d="M890.85,693.38c0.26-0.94-0.15-1.65,0.17-2.3c1.78-0.07,1.89-0.01,3.14,1.67c-0.86,1.03-1.74,2.09-2.64,3.16
			c0.04,0.55,0.31,1.03,0.3,1.6c-0.05,2.02-0.09,4.05,0.3,6.06c0.18,0.91,0.15,1.83-0.87,2.35c-0.98-0.01-1.2-0.8-1.5-1.46
			c0.1-0.65,0.25-1.26,0.27-1.88c0.04-1.6,0.01-3.2,0.01-4.95c-1.85,1.28-3.37,2.75-5.54,3.19
			C886.83,698.49,889.13,696.14,890.85,693.38z"/>
		<path d="M951.17,771.03c-0.01,2.82-2.18,5.06-4.98,5.14c-2.78,0.07-5.21-2.37-5.19-5.21c0.02-2.72,2.37-5.12,5.05-5.16
			C948.83,765.75,951.18,768.16,951.17,771.03z M948.6,773.78c1.4-0.51,1.22-1.85,1.55-2.87c-0.97-3.64-3.51-4.85-6.16-3
			c-1.85,0.83-1.91,2.45-1.63,4.07c0.26,1.5,1.31,2.4,2.76,2.84C946.5,775.23,947.71,775.03,948.6,773.78z"/>
		<path d="M879.57,696.44c0.99-0.33,1.54,0.41,2.26,0.56c0.57-0.29,0.61-0.9,0.97-1.47c-2.32-0.37-4.32,0.67-6.43,0.97
			c-0.95-0.8-0.95-0.8-1.19-2.12c3.09,0.63,6.06-0.05,9.07-0.6c0.66,0.56,1.14,1.21,1.28,1.94c-0.18,0.69-0.68,0.57-1.05,0.71
			c-1.55,0.58-2.79,1.4-3.51,3.06c-0.77,1.79-1.84,3.46-3.3,4.83c-0.49,0.46-0.95,0.98-1.93,1.25
			C877.83,702.71,879.61,700,879.57,696.44z"/>
		<path d="M948.04,694.12c0.66,0.64,1.23,1.22,1.48,2.24c-1.34,0.43-2.56,1.03-3.85,1.86c-1.51,2.68-2.64,5.85-5.7,7.62
			c-0.23-0.62,0.23-0.83,0.46-1.13c1.24-1.64,2.14-3.44,2.72-5.41c0.24-0.8,0.64-1.57-0.09-2.28c1.19-0.8,1.85,0.23,2.69,0.39
			c0.39-0.43,0.69-0.89,0.73-1.44c-0.11-0.11-0.2-0.29-0.28-0.28c-2.02,0.21-3.98,0.71-5.87,1.17c-0.92-0.47-1.48-1-1.35-2.11
			C942.04,695.4,944.94,694.74,948.04,694.12z"/>
		<path d="M917.2,703.3c-0.76-0.26-1.42-0.72-1.83-1.56c0.47-2.58,0.51-5.18-0.35-7.74c1.58-0.34,1.58-0.34,2.9,0.63
			c-0.08,1.81-0.76,3.64-0.36,5.68c2.14-1.16,3.77-2.85,5.46-4.45c0.58,0.47,0.08,0.78-0.09,1.07c-0.87,1.44-1.9,2.76-3.13,3.91
			C918.95,701.66,918.09,702.47,917.2,703.3z"/>
		<path d="M991.04,700.26c-1.1-1.01-1.72-1.85-1.06-3.04c0.8-0.34,0.98,0.53,1.51,0.64c3.49,0.1,6.98,0.16,10.46-0.08
			c1.47-0.1,1.74,0,2.62,1.09c-0.19,0.96-0.96,0.84-1.64,0.85c-2.31,0.01-4.61,0.04-6.92,0.01
			C994.34,699.7,992.69,699.82,991.04,700.26z"/>
		<path d="M953.57,704.41c-1.58-0.66-2.7-1.48-2.9-3.32c0.74-0.13,1.11,0.61,1.9,0.57c4.06-1.52,7.24-4.61,10.53-7.52
			c0.5,0.51,0.05,0.82-0.17,1.12c-1.5,2.04-3.11,3.97-5.07,5.59C956.46,702,955.07,703.17,953.57,704.41z"/>
		<path d="M988.07,696.01c-1.48,2.91-6.25,7.2-10.46,9.58c-1.17-0.77-1.74-1.83-1.65-3.3c0.77-0.16,1.27,0.52,1.93,0.3
			C981.47,700.7,984.91,698.57,988.07,696.01z"/>
		<polygon points="1016.84,690.74 1018.77,690.6 1018.64,697.85 1018.82,705.24 1016.94,705.35 		"/>
		<path d="M911.63,694.4c1.49-0.04,1.49-0.04,2.78,1.37c-1.25,3.17-2.61,6.29-6.09,7.9c0.26-0.35,0.55-0.68,0.78-1.04
			c0.66-1.07,1.37-2.12,1.92-3.25C912.03,697.32,912.06,696.66,911.63,694.4z"/>
		<path d="M955.54,696.29c-0.43,0.47-0.96,0.47-1.62,0.28c-0.68-1.09-1.45-2.2-2.57-3.23C954.62,693.12,955.89,694.08,955.54,696.29
			z"/>
		<path d="M978.13,699.68c-0.78-0.86-1.56-1.73-2.47-2.73c0.85-0.42,1.64-0.29,2.37-0.25c0.89,0.35,1.44,0.93,1.67,1.82
			C979.59,699.44,979.13,699.89,978.13,699.68z"/>
		<path d="M981.1,696.37c-1.65-0.2-2.04-2.02-3.65-2.64c1.57-0.76,2.68-0.53,3.68,0.35C981.78,694.64,981.76,695.05,981.1,696.37z"
			/>
		<path d="M983.93,692.11c2.37,0.02,2.54,0.14,3.24,1.94c-0.18,0.49-0.46,0.85-1.14,0.85C985.17,694.24,984.84,693.12,983.93,692.11
			z"/>
		<path d="M985.66,690.47c1.63-0.3,2.76-0.02,3.32,1.43c0.01,0.46-0.21,0.7-0.54,0.93c-0.17-0.03-0.43-0.01-0.55-0.12
			C987.16,692.02,986.47,691.29,985.66,690.47z"/>
		<path d="M943.96,767.87c0.77,0,1.53,0,2.3-0.01c0.74-0.02,1.36,0.23,1.83,0.78c0.4,0.87,0.12,1.65-0.31,2.38
			c0.7,0.83,0.2,1.98,0.86,2.78c-0.47,0.01-0.96,0.22-1.42-0.07c-0.53-0.48-0.16-1.21-0.49-1.79c-0.31-0.34-0.69-0.59-1.23-0.44
			c-0.51,0.65,0.03,1.52-0.39,2.13c-0.26,0.28-0.53,0.23-0.97,0.1C943.78,771.83,944.08,769.84,943.96,767.87z M946.99,769.32
			c-0.44-0.08-0.7-0.15-0.96-0.17c-0.28-0.03-0.53,0.05-0.72,0.33c0.01,0.23-0.1,0.51,0.23,0.79
			C946.12,770.41,946.61,770.26,946.99,769.32z"/>
		<path d="M861.62,711.17c2.42,0,4.71,0,6.98,0c0.16,0.27,4.15,58.17,4.23,60.13c0.06,1.42,0.54,2.07,2.01,3.23
			c0.06,0.4,0.18,0.81-0.18,1.29c-3.41,0-6.9,0-10.39,0c-0.41-0.29-0.34-0.71-0.28-1.28c1.95-0.95,2.25-2.74,1.98-4.73
			c-0.29-2.08-0.33-4.17-0.42-6.37c-1.21-0.27-2.35-0.15-3.64-0.09c0.02,3.34-0.81,6.49-0.44,9.63c0.34,0.76,0.93,1.16,1.44,1.44
			c0.19,0.55,0.23,0.95-0.16,1.41c-2.83,0-5.75,0-8.66,0c-0.54-0.39-0.2-0.9-0.33-1.4c0.81-0.42,1.55-0.82,2.07-1.79
			C856.43,769.89,860.64,719.26,861.62,711.17z M864.23,735.35c-0.04,0-0.07,0-0.11,0.01c-0.59,7.69-1.17,15.39-1.77,23.21
			c1.13,0.01,2.13,0.25,3.06-0.17C865.01,750.63,864.62,742.99,864.23,735.35z"/>
	</g>
</g>
</svg>
