<?xml version="1.0" encoding="utf-8"?>
<!-- Generator: Adobe Illustrator 23.0.3, SVG Export Plug-In . SVG Version: 6.00 Build 0)  -->
<svg version="1.1" id="レイヤー_1" xmlns="http://www.w3.org/2000/svg" xmlns:xlink="http://www.w3.org/1999/xlink" x="0px"
	 y="0px" width="512px" height="512px" viewBox="0 0 512 512" enable-background="new 0 0 512 512" xml:space="preserve">
<path stroke="#000000" stroke-width="20" stroke-miterlimit="10" d="M368.5,240H272v-96.5c0-8.8-7.2-16-16-16s-16,7.2-16,16V240
	h-96.5c-8.8,0-16,7.2-16,16c0,4.4,1.8,8.4,4.7,11.3s6.9,4.7,11.3,4.7H240v96.5c0,4.4,1.8,8.4,4.7,11.3s6.9,4.7,11.3,4.7
	c8.8,0,16-7.2,16-16V272h96.5c8.8,0,16-7.2,16-16S377.3,240,368.5,240z"/>
</svg>
