<?xml version="1.0" encoding="utf-8"?>
<!-- Generator: Adobe Illustrator 23.0.3, SVG Export Plug-In . SVG Version: 6.00 Build 0)  -->
<svg version="1.1" id="レイヤー_1" xmlns="http://www.w3.org/2000/svg" xmlns:xlink="http://www.w3.org/1999/xlink" x="0px"
	 y="0px" width="512px" height="512px" viewBox="0 0 512 512" enable-background="new 0 0 512 512" xml:space="preserve">
<path d="M100.79,313.94c0,8.67,3.38,16.89,9.55,23.06l84.6,84.3c3.82,3.96,8.81,6.02,14.54,6.02c5.28,0,10.42-2.06,14.39-5.73
	l0.15-0.15c3.96-3.82,6.02-9.11,6.02-14.54c0-5.58-2.2-10.72-6.02-14.54l-58.31-59.04h130.95c30.54,0,59.18-11.89,80.92-33.63
	c21.73-21.73,33.63-50.37,33.63-80.92V105.24c0-11.31-9.25-20.56-20.56-20.56s-20.56,9.25-20.56,20.56v113.53
	c0,19.53-7.64,37.89-21.59,51.84c-13.95,13.95-32.45,21.59-51.84,21.59H166.29l60.36-58.89l0.15-0.15
	c3.82-3.82,6.02-8.96,6.02-14.54s-2.2-10.72-6.02-14.54c-3.82-3.96-9.11-6.02-14.54-6.02c-5.58,0-10.72,2.2-14.54,6.02l-87.53,87.24
	C104.02,297.35,100.64,305.42,100.79,313.94z"/>
</svg>
