<?xml version="1.0" encoding="utf-8"?>
<!-- Generator: Adobe Illustrator 23.0.3, SVG Export Plug-In . SVG Version: 6.00 Build 0)  -->
<svg version="1.1" id="レイヤー_1" xmlns="http://www.w3.org/2000/svg" xmlns:xlink="http://www.w3.org/1999/xlink" x="0px"
	 y="0px" width="1121.23px" height="1121.23px" viewBox="0 0 1121.23 1121.23" enable-background="new 0 0 1121.23 1121.23"
	 xml:space="preserve">
<path fill="none" stroke="#000000" stroke-width="10" stroke-miterlimit="10" d="M1055.15,861.35H66.08c-11.05,0-20-8.95-20-20
	V235.19c0-11.05,8.95-20,20-20h989.07c11.05,0,20,8.95,20,20v606.16C1075.15,852.4,1066.2,861.35,1055.15,861.35z"/>
<g>
	<g>
		<path d="M343.44,592.54c0.07,1.11,0.22,1.74-0.36,2.42c-1.85,0.65-3.99-0.09-6.1,0.45c138.55,106.34,335.34,99.72,463.88-0.24
			c-4,0-7.51,0-10.67,0c-0.69-0.82-0.65-1.3-0.55-1.8c3.61-3.38,3.62-3.38,3.62-8.69c0-10.98-0.04-21.95,0.02-32.93
			c0.02-4.13-0.67-8.16-1.26-12.21c-0.63-4.29-1.22-8.59-1.82-12.89c-0.67-4.79-1.35-9.57-2.01-14.36
			c-0.6-4.43-1.16-8.86-1.76-13.28c-0.51-3.81-0.97-7.63-1.59-11.42c-0.36-2.2-1.88-3.73-3.4-4.77c-0.36-1.08-0.26-1.79,0.07-2.67
			c5.72,0,11.41,0,17.12,0c0.77,0.49,0.55,1.28,0.59,1.8c-0.13,0.74-0.51,1.05-0.95,1.3c-1.96,1.09-2.23,2.84-1.91,4.83
			c0.76,4.79,1.01,9.63,1.42,14.46c0.32,3.71,0.85,7.4,1.21,11.1c0.22,2.33,0.3,4.68,0.57,7.02c0.97-4.63,1.39-9.32,1.88-14.01
			c0.58-5.55,1.27-11.09,2.02-16.62c0.41-3.01,0.35-5.76-2.58-7.33c-0.28-0.94-0.35-1.66,0.28-2.54c5.54,0,11.23,0,16.99,0
			c0.95,0.74,0.49,1.72,0.4,2.75c-1.05,0.48-2.05,0.94-2.9,1.33c-0.95,1.14-1.27,2.27-1.44,3.56c-0.89,6.89-1.9,13.76-2.81,20.64
			c-0.6,4.55-1.09,9.12-1.68,13.67c-0.63,4.79-1.48,9.57-1.94,14.38c-0.57,6.05-1.9,12.01-1.81,18.15
			c0.15,10.1,0.05,20.21,0.03,30.31c0,1.76-0.04,3.5,1.47,5.27c6.3-4.56,12.09-9.78,17.9-14.96c5.76-5.14,11.36-10.47,16.82-16.06
			c0.77,1.28-0.29,1.72-0.79,2.26c-9.01,9.67-18.22,19.14-28.21,27.83c-1.13,0.98-2.19,2.03-3.29,3.05
			c-0.15,0.86-0.29,1.7-0.42,2.41c-0.99,0.85-2.09,0.21-3.04,0.71c-69.01,56.77-147.99,86.64-237.68,86.62
			c-89.69-0.02-168.67-29.89-237.84-86.84c-0.89,0-1.88,0-2.87,0c-0.99,0-1.97,0-2.9,0c-0.67-2.25-0.67-2.25,0.92-4.36
			c-1.8-1.67-4.14-3.69-6.14-5.55c-0.07,2.36,0.2,3.53,0.34,4.5c0.63,1.72,1.98,2.11,2.72,3.01c0.12,0.69,0.21,1.3-0.1,1.81
			c-0.13,0.14-0.21,0.3-0.31,0.31c-5.34,0.61-10.68,0.09-15.82,0.28c-1.08-0.79-0.77-1.67-0.77-2.58c0.98-0.58,1.93-1.15,3.11-1.85
			c1.03-5.02,1.2-5.89,1.86-14.08c-7.22-7.14-13.6-13.71-20.26-21.6c1.96,0.46,2.58,1.85,3.56,2.74c1.2,1.09,2.29,2.29,3.44,3.44
			c1.06,1.06,2.12,2.11,3.19,3.16c1.07,1.05,2.14,2.1,3.21,3.14c1.16,1.13,2.32,2.26,3.51,3.37c1.06,1,2.15,1.97,3.71,3.4
			c0.7-6.68,7.82-87.76,8.94-93.99c2.09-0.78,4.21-0.3,6.29-0.39c1.97-0.08,3.95-0.02,6.12-0.02c0.33,2.45,6.92,98.93,7.07,106.65
			C339.81,589.24,340.83,591.45,343.44,592.54z M326.86,564.28c0-1.93,0.05-3.53-0.01-5.13c-0.16-4.22-0.69-8.41-0.76-12.65
			c-0.12-7.46-0.51-14.91-0.8-22.36c-0.01-0.37-0.13-0.73-0.23-1.27c-1.08,13.87-2.14,27.55-3.21,41.42
			C323.53,564.28,324.97,564.28,326.86,564.28z M320.18,582.37c0.54,0.4,1.15,0.82,1.73,1.28c1.8,1.45,3.6,2.91,5.48,4.44
			c0.05-7.68-0.51-11.25-0.9-15.35c-1.7,0.2-2.95,0.28-5.45,0.36C320.77,576.56,320.53,577.35,320.18,582.37z"/>
		<path d="M589.94,595.08c-3.74,0-7.34,0-10.99,0c-0.87-0.78-0.98-1.98-1.15-3.01c-1.13-6.97-2.09-13.97-3.21-20.94
			c-1.37-8.56-2.9-17.1-4.27-25.66c-1.19-7.46-2.26-14.93-3.82-22.4c0,1.28,0,2.56,0,3.84c0,19.57,0.05,39.15-0.05,58.72
			c-0.02,3.24,0.51,5.93,3.38,7.29c0.4,0.79,0.3,1.27,0.15,1.75c-0.86,0.72-11.39,0.87-16.82,0.2c-1.04-3.11,3.14-3.21,3.48-5.54
			c0-1.37,0-2.73,0-4.1c0-31.29-0.02-62.59,0.03-93.88c0.01-3.59-0.09-7.01-3.41-9.33c-0.16-0.11-0.22-0.44-0.23-0.68
			c-0.02-0.24,0.07-0.48,0.12-0.72c2.35-0.83,12.6-1.04,18.07-0.32c3.45,20.97,6.21,42.17,9.99,63.26c0-1.48,0-2.96,0-4.43
			c0-15.83-0.02-31.67,0.02-47.5c0-2.38-0.15-4.72-0.88-6.98c-0.45-1.37-2.13-1.73-2.54-3.07c0-0.77,0.33-1.39,0.99-1.45
			c4.81-0.39,9.61-0.13,14.14-0.17c0.64,1.3,0.47,2.01-0.16,2.54c-2.12,1.8-2.44,4.19-2.43,6.76c0.04,5.86,0.01,11.72,0.01,17.58
			c0,27.93,0,55.86-0.01,83.78C590.34,591.99,590.59,593.37,589.94,595.08z"/>
		<path d="M249.38,594.78c-0.41-0.57-0.31-1.16-0.03-1.92c1.03-1.01,2.6-1.72,3.42-4.11c0-0.57,0-1.94,0-3.3
			c0-31.42-0.03-62.85,0.04-94.27c0.01-3.76-0.1-7.28-3.62-9.24c0-1.52,0.72-1.95,1.69-1.95c5.22-0.03,10.44-0.01,16.01-0.01
			c3.58,21.03,6.81,41.92,10.25,62.8c0.58-0.27,0.26-0.88,0.33-1.33c0.08-0.49,0.02-0.99,0.02-1.49c0-16.96-0.01-33.92,0.01-50.87
			c0-2.72-0.3-5.23-2.84-6.68c-0.3-0.74-0.3-1.34,0.01-1.95c0.96-0.72,11.24-0.76,14.68-0.03c0.57,1.05,0.19,1.86-0.57,2.66
			c-1.74,1.82-2.21,4.08-2.21,6.52c0.03,20.07,0.06,40.15,0.06,60.22c0,14.34-0.04,28.68-0.06,43.01c0,0.61-0.06,1.22-0.12,2.27
			c-3.85,0.18-7.63,0.12-11.67,0.02c-3.96-23.43-7.88-46.68-11.81-69.93c-0.1,0.01-0.2,0.01-0.3,0.02c0,21.65,0,43.31,0,64.96
			c0.55,1.8,3.61,1.97,2.88,4.47C262.9,595.36,252.92,595.44,249.38,594.78z"/>
		<path d="M729.42,554.91c4.98-2.89,9.49-5.51,13.98-8.11c0.9,0.81,0.57,1.75,0.39,2.51c-1.41,5.73-1.51,11.56-1.5,17.41
			c0.02,4.74,0.12,9.47,0.05,14.21c-0.02,1.79,0.55,3.43,0.92,5.12c0.25,1.12,0.97,2.02,2.26,2.12c1.32-0.42,1.74-1.62,1.85-2.64
			c0.24-2.22,0.96-4.35,0.97-6.63c0.01-3.1,0.42-6.2,0.58-9.3c0.58-11.65-2.22-22.38-8.63-32.18c-2.78-4.26-5.47-8.6-7.69-13.21
			c-2.42-5.01-3.45-10.35-3.73-15.82c-0.23-4.6-0.06-9.22-0.06-13.83c0-2.9,0.81-5.65,1.73-8.35c0.79-2.33,2.51-4.02,4.57-5.27
			c5.82-3.51,13.18-3.23,18.4,1.24c1.49,1.27,2.54,2.74,3.04,4.57c0.55,2.03,1.02,4.09,1.4,6.16c0.52,2.86,0.46,16.24-0.05,19.56
			c-3.75,2.03-7.62,4.13-11.79,6.39c0-1.78-0.2-3.16,0.03-4.46c1.16-6.31,0.63-12.67,0.56-19c-0.02-1.96-0.45-3.95-0.9-5.87
			c-0.25-1.05-0.73-2.16-2.29-2.61c-1,0.42-1.73,1.23-1.95,2.6c-0.27,1.71-0.69,3.39-0.72,5.16c-0.11,7.22-0.1,14.4,2.13,21.4
			c1.95,6.11,5.16,11.56,8.61,16.87c3.68,5.67,6.76,11.53,8.32,18.18c1.55,6.58,2.21,13.19,2.04,19.94
			c-0.13,5.38-0.6,10.67-2.44,15.74c-1.44,3.97-3.57,7.51-7.81,8.98c-6.77,2.34-15.33,1.16-19.22-6.72c-1.16-2.36-2.01-4.8-2.5-7.37
			C728.33,572.82,728.43,563.93,729.42,554.91z"/>
		<path d="M474.49,556.69c-1.47,0.41-2.42,0.52-3.55-0.11c-0.59-2.9-0.2-6.05-1.05-9.06c-0.68-2.4-1.34-4.77-2.55-6.96
			c-0.8-1.45-1.81-2.66-3.55-2.92c-0.93,0.71-0.57,1.65-0.58,2.46c-0.02,15.09,0.02,30.19-0.05,45.28
			c-0.02,3.43,0.85,6.15,4.14,7.37c0.4,0.78,0.43,1.38,0.15,1.98c-0.86,0.71-18.44,0.78-22.59,0.1c-0.49-0.53-0.33-1.13-0.19-1.91
			c1.34-1.05,3.4-1.48,4.18-4.47c0-33.79,0-68.58,0-103.25c-0.74-2.05-2.69-2.11-4.06-2.64c-0.45-0.81-0.4-1.41-0.19-2.01
			c2.48-0.75,33.28-1.01,39.03-0.32c0,17.58,0.19,26.39,0.19,39.14c-0.3,0.09-0.63,0.27-0.97,0.28c-0.72,0.01-1.44-0.08-2.26-0.13
			c-1.09-6.14-2.08-12.12-4-17.88c-1.26-3.8-2.8-7.46-5.31-10.61c-1.97-2.48-4.51-3.7-7.89-3.4c0,12.99,0,25.76,0,38.57
			c2.62,0.48,3.91-1.09,4.93-2.81c1.47-2.49,2.15-5.25,2.28-8.16c0.08-1.84-0.18-3.73,0.41-5.41c0.95-0.95,1.92-0.73,2.97-0.52
			c0.14,0.29,0.42,0.62,0.42,0.94c0.04,4.86,0.06,9.73,0.07,14.59c0.01,9.35,0,18.71,0,28.06
			C474.49,554.09,474.49,555.31,474.49,556.69z"/>
		<path d="M920.31,482.35c0.06-0.7,0.11-1.31,0.15-1.83c1.01-0.79,11.46-0.93,16.75-0.31c0.71,0.55,0.46,1.34,0.47,2.1
			c-0.56,1.27-2.14,1.68-2.83,3.54c-0.78,3.12,0.43,6.64,0.88,10.18c0.78,6.27,1.82,12.51,2.79,18.75
			c1.12,7.23,2.31,14.44,3.42,21.67c0.94,6.12,1.82,12.26,3.01,18.44c0.56-3.49,1.13-6.98,1.67-10.47
			c0.94-6.13,1.87-12.25,2.78-18.38c0.85-5.77,1.65-11.54,2.48-17.31c0.89-6.13,1.73-12.28,2.72-18.4c0.5-3.12,0.62-5.99-2.36-7.82
			c-0.32-0.94-0.13-1.62,0.55-2.4c4.68,0,9.5,0,14.2,0c0.95,0.79,0.53,1.67,0.64,2.66c-4.33,1.49-3.87,5.41-4.38,8.72
			c-1.09,7.11-1.99,14.25-2.91,21.38c-0.61,4.68-1.07,9.37-1.68,14.04c-0.61,4.67-1.37,9.32-1.99,13.99
			c-0.62,4.67-1.13,9.36-1.74,14.04c-0.61,4.67-1.3,9.33-1.92,14c-0.61,4.55-1.32,9.09-1.74,13.66c-0.21,2.34-1.28,4.6-0.7,7.02
			c0.35,1.44,1.44,2.24,2.54,2.84c0.53,0.82,0.27,1.54,0.27,2.16c-0.85,0.76-12.82,0.94-19.77,0.39c-0.78-0.51-0.59-1.26-0.49-2.13
			c0.68-1.06,2.33-1.32,3-3.45c0.25-2.74,0.18-6.18-0.37-9.65c-0.75-4.65-1.23-9.35-1.84-14.02c-0.63-4.79-1.31-9.58-1.94-14.38
			c-0.62-4.67-1.19-9.35-1.81-14.03c-0.63-4.79-1.31-9.58-1.94-14.38c-0.61-4.55-1.19-9.1-1.79-13.65c-0.65-4.92-1.24-9.84-2-14.75
			c-0.32-2.08-0.28-4.19-0.82-6.28C922.76,485.04,922.94,484.99,920.31,482.35z"/>
		<path d="M510.69,480.15c4.29,0,8.37,0,12.4,0c0.28,0.48,7.37,103.35,7.52,106.84c0.11,2.51,0.95,3.68,3.57,5.73
			c0.11,0.71,0.31,1.44-0.32,2.3c-6.07,0-12.26,0-18.47,0c-0.73-0.51-0.6-1.27-0.49-2.28c3.46-1.68,4-4.86,3.51-8.41
			c-0.51-3.69-0.6-7.41-0.75-11.32c-2.15-0.47-4.18-0.26-6.46-0.17c0.04,5.93-1.44,11.54-0.78,17.1c0.61,1.36,1.64,2.05,2.55,2.56
			c0.33,0.97,0.41,1.68-0.28,2.51c-5.04,0-10.23,0-15.38,0c-0.95-0.7-0.35-1.6-0.59-2.49c1.43-0.74,2.75-1.46,3.67-3.18
			C501.47,584.48,508.94,494.53,510.69,480.15z M515.33,523.11c-0.06,0-0.13,0.01-0.19,0.01c-1.04,13.67-2.09,27.34-3.15,41.24
			c2.01,0.02,3.79,0.44,5.44-0.3C516.72,550.26,516.03,536.68,515.33,523.11z"/>
		<path d="M169.59,592.59c0.23,1.01,0.31,1.61-0.18,2.39c-6.9,0-13.94,0-20.9,0c-0.73-0.71-0.46-1.45-0.34-2.39
			c3.38-0.88,4.35-3.39,4.34-6.73c-0.04-32.91-0.03-65.82-0.03-98.73c0-0.5,0-0.99,0-1.17c-0.74-2.35-2.45-3.04-4.15-3.3
			c-0.45-0.99-0.51-1.69,0.14-2.55c12.03,0,24.2,0,36.36,0c0,21.56,0.35,29.88,0.35,39.04c-0.2,0.13-0.38,0.34-0.6,0.38
			c-0.85,0.16-1.72,0.27-2.63-0.2c-1.47-2.5-1.08-5.48-1.63-8.24c-1.09-5.36-2.29-10.64-4.5-15.67c-0.81-1.85-1.83-3.55-3.12-5.06
			c-1.78-2.1-4.01-3.25-6.85-2.75c-0.58,2.93-0.67,34.53-0.1,38.6c2.21,0.39,3.7-0.65,4.92-2.4c2.09-2.98,2.43-6.45,2.77-9.91
			c0.14-1.45,0.02-2.93,0.02-4.13c1.3-0.95,2.28-0.69,3.33-0.53c0.15,0.29,0.44,0.61,0.45,0.93c0.06,2.49,0.08,4.98,0.08,7.48
			c0.01,11.72,0,23.44,0,35.15c0,1.23,0,2.47,0,3.59c-1.17,0.93-2.25,0.66-3.4,0.42c-0.13-0.32-0.37-0.65-0.39-0.98
			c-0.22-4.63-1.24-9.09-3.05-13.34c-0.9-2.12-1.83-4.38-4.47-4.92c-0.97,0.95-0.6,2.01-0.6,2.95c-0.03,14.59-0.02,29.17-0.02,43.76
			c0,1.24,0.09,2.46,0.39,3.69C166.31,590.15,167.25,591.9,169.59,592.59z"/>
		<path d="M628.21,492.22c-2.81,4.33-4.04,9.15-5.21,13.94c-1.17,4.79-2.11,9.64-3.13,14.38c-1.26,0.91-2.47,0.42-3.92,0.5
			c-0.79-13.63,0.96-26.99,0.61-40.75c4.07-0.63,7.91-0.25,11.72-0.32c3.86-0.07,7.73-0.02,11.6-0.02c3.84,0,7.68,0,11.71,0
			c1.06,13.72,0.94,27.13,0.97,40.52c-1.36,1-2.7,0.57-4.25,0.47c-1.91-9.65-2.62-19.63-7.74-28.53c0,1.3,0,2.59,0,3.89
			c0,29.3,0,58.61,0,87.91c0,3.23-0.35,6.54,2.69,8.86c0.21,0.16,0.19,0.7,0.19,1.06c0,0.22-0.17,0.44-0.36,0.87
			c-5.72,0-11.53,0-17.33,0c-0.56-0.43-0.76-0.97-0.58-1.92c3.01-1.37,3.43-4.09,3.42-7.29c-0.08-30.05-0.04-60.1-0.06-90.15
			C628.54,494.55,628.79,493.43,628.21,492.22z"/>
		<path d="M897.96,592.67c0,0.78,0,1.39,0,1.93c-0.9,0.81-14.88,0.95-19.66,0.27c-0.58-0.66-0.47-1.35-0.09-2.05
			c4.24-2.92,4.95-5.01,3.73-10.53c-1.27-5.8-2.47-11.62-3.85-18.15c-1.79,4.66-2.24,9.03-3.14,13.24c-0.9,4.2-2.55,8.38-1.41,12.81
			c0.38,1.75,3.48,2.01,2.33,4.88c-4.8,0.3-9.74,0.05-14.46,0.13c-0.98-0.66-0.85-1.41-0.72-2.41c1.75-1.26,3.73-2.62,4.27-5.12
			c0.29-1.33,0.52-2.68,0.77-4.02c2.22-12.18,4.32-24.39,6.7-36.54c1.19-6.07,1-11.97-0.3-17.99c-1.36-6.29-2.25-12.68-3.34-19.03
			c-1.26-7.32-2.51-14.65-3.75-21.98c-0.43-2.56-1.98-4.23-4.09-5.08c-0.56-1.09-0.62-1.9,0-2.92c6.08,0,12.27,0,18.53,0
			c0.8,0.58,0.66,1.43,0.41,2.55c-1.72,1.37-4.58,1.92-4.94,5.13c1.27,6.51,2.59,13.26,3.91,20.01c2.23-7.61,4.06-15.27,5.21-22.67
			c-1.56-2.92-1.56-2.92-1.18-4.96c2.37-0.53,4.86-0.19,7.31-0.25c2.47-0.06,4.93-0.01,6.98-0.01c1.12,0.96,0.7,1.73,0.87,2.49
			c-0.49,0.31-0.86,0.65-1.3,0.82c-2.9,1.08-4.16,3.37-4.68,6.23c-0.99,5.36-1.99,10.71-3,16.07c-1.65,8.76-3.24,17.53-4.99,26.27
			c-0.76,3.81,0.2,7.41,0.82,11.06c1.11,6.59,2.29,13.17,3.44,19.76c1.3,7.44,2.5,14.9,3.91,22.32
			C892.9,588.38,894.8,591.11,897.96,592.67z"/>
		<path d="M397.14,595.08c-11.68,0-23.12,0-34.48,0c-0.85-0.61-0.63-1.37-0.56-2.31c2.59-1.89,3.69-4.64,3.69-7.92
			c-0.01-32.06-0.01-64.11-0.01-96.17c0-0.49-0.06-0.99-0.08-1.29c-0.82-2.03-2.46-2.99-3.99-4.04c-0.43-1-0.42-1.94,0.14-2.79
			c0.85-0.81,14.57-0.98,20.09-0.29c0.7,0.85,0.38,1.85,0.3,3.04c-3.18,1.75-3.57,4.77-3.56,8.22c0.08,30.69,0.05,61.37,0.05,92.06
			c0,1.23,0,2.46,0,3.95c3.13-0.65,4.7-2.65,6.04-4.89c2.9-4.85,4.4-10.23,5.74-15.66c1.52-6.13,2.53-12.36,3.25-18.54
			c1.12-0.94,2.17-0.72,3.16-0.4C397.63,548.85,397.8,589.12,397.14,595.08z"/>
		<path d="M224.6,592.52c0.41,0.93,0.5,1.53,0.21,2.16c-0.76,0.72-13.92,0.89-19.56,0.23c-0.64-0.59-0.43-1.35-0.35-2.26
			c1.29-0.91,2.91-1.7,3.73-3.95c0-0.48,0-1.47,0-2.46c0-32.03-0.02-64.05,0.02-96.08c0-3.31-0.59-6.19-3.62-7.79
			c-0.27-0.82-0.3-1.42,0.1-2.09c0.26-0.1,0.6-0.33,0.94-0.33c5.48-0.03,10.97-0.04,16.45-0.04c1,0,2.08-0.11,2.4,1.32
			c-0.02,0.14,0.02,0.5-0.12,0.6c-2.88,2.17-3.43,5.11-3.42,8.55c0.08,31.9,0.07,63.81,0.01,95.71
			C221.38,589.02,221.61,591.6,224.6,592.52z"/>
		<path d="M900.35,482.79c-0.17-1.1-0.21-1.71,0.13-2.32c0.97-0.78,13.71-0.88,17.69-0.11c0.58,0.4,0.74,0.96,0.59,1.93
			c-2.99,2.1-3.51,5.35-3.51,9.01c0.07,31.41,0.04,62.83,0.04,94.24c0,0.25,0.02,0.5,0,0.75c-0.27,2.98,0.38,5.45,3.46,6.37
			c0.24,0.84,0.3,1.45-0.02,2.03c-0.76,0.72-12.99,0.85-18.19,0.18c-0.09-0.29-0.26-0.62-0.29-0.96c-0.03-0.36,0.07-0.73,0.12-1.19
			c1.25-0.93,2.74-1.69,3.61-3.72c0-0.65,0-1.77,0-2.88c0-31.79-0.03-63.58,0.04-95.37C904.03,487.4,903.37,484.59,900.35,482.79z"
			/>
		<path d="M661.79,634.67c0-8.72,0-17.25,0-25.75c2.9-0.67,32.84-0.78,36.7-0.15c0.54,1.39,0.42,2.83,0.02,4.66
			c-3.24,0.61-6.58,0.22-9.89,0.29c-3.24,0.06-6.48,0.01-9.72,0.01c-3.36,0-6.72,0-10.09,0c-0.96,1.63-0.47,3.23-0.5,4.98
			c3.13,0.64,6.23,0.23,9.29,0.3c3.11,0.08,6.23,0.02,9.35,0.02c3.08,0,6.16,0,8.93,0c0.86,1.21,0.58,2.11,0.63,2.96
			c0.03,0.62-0.03,1.25-0.8,2.15c-4.21,0.29-8.78,0.09-13.35,0.12c-4.58,0.04-9.16,0.01-13.92,0.01c0,1.79,0,3.24,0,4.9
			c2.3,0.76,4.78,0.26,7.22,0.35c2.61,0.09,5.23,0.02,7.85,0.02c2.49,0,4.99,0,7.48,0c2.47,0,4.94,0,7.1,0
			c0.99,1.06,0.72,1.97,0.73,2.82c0.02,0.72-0.11,1.44-0.18,2.31C686.28,634.67,674.13,634.67,661.79,634.67z"/>
		<path d="M442.94,634.97c-2.49,0-4.98,0.07-7.46-0.01c-10.75-0.38-13.81-9.57-12.41-16.48c1.53-7.55,7.26-10.29,12.65-10.55
			c5.09-0.25,10.2-0.26,15.29,0.01c4.98,0.27,9.24,2.33,11.46,7.07c2.37,5.06,2.14,10.19-1.01,14.9c-2.14,3.19-5.45,4.69-9.2,4.95
			c-3.09,0.21-6.21,0.04-9.32,0.04C442.94,634.93,442.94,634.95,442.94,634.97z M442.51,613.17c-1.96,0.18-4.71-0.41-7.4,0.45
			c-4.07,1.3-5.81,3.82-5.69,8.45c0.1,4.22,2.05,6.72,6.26,7.53c5.03,0.97,10.11,0.87,15.17,0.05c0.49-0.08,1-0.13,1.46-0.3
			c2.21-0.83,4.05-2.26,4.58-4.56c1.35-5.87-0.13-10.87-7.66-11.59C447.25,613.01,445.24,613.17,442.51,613.17z"/>
		<path d="M516.96,634.74c-2.41,0-4.51,0-6.96,0c-7.86-6.21-15.95-12.6-24.46-19.33c0,6.57,0,12.74,0,19.04
			c-2.23,0.68-4.18,0.36-6.1,0.33c-0.76-2.54-0.94-21.82-0.25-26.54c3.8-0.39,7.27-0.57,10.65,2.43
			c5.76,5.12,12.01,9.69,18.07,14.47c0.87,0.68,1.68,1.48,3.12,1.88c0-6.17,0-12.23,0-18.41c2.12-0.32,3.91-0.32,5.93-0.01
			C516.96,617.3,516.96,625.83,516.96,634.74z"/>
		<path d="M613.76,615.14c0,3.71,0,6.8,0,9.9c0,3.1,0,6.21,0,9.36c-1.99,0.78-3.83,0.38-5.63,0.39c-0.78-2.55-0.96-22.09-0.24-26.53
			c2.14-0.48,4.37-0.14,6.99-0.22c7.88,6.22,15.98,12.61,24.6,19.4c0.25-6.53-0.01-12.52,0.16-18.26c1.02-1.09,2.08-0.71,3.03-0.78
			c0.86-0.06,1.74-0.01,2.56-0.01c0.75,2.73,0.91,21.54,0.23,26.28c-2.16,0-4.37,0-6.93,0C630.6,628.41,622.4,621.95,613.76,615.14z
			"/>
		<path d="M534.26,608.61c2.02-0.32,3.82-0.3,5.96,0c0,6.91,0,13.71,0,20.82c9.25,0,18.17,0,27.02,0c1.03,1.79,0.59,3.36,0.53,5.33
			c-11.16,0.23-22.17,0.06-33.12,0.1C533.88,631.97,533.66,615.75,534.26,608.61z"/>
		<path d="M946.06,467.5c0.07,1.06,1.6,0.77,1.6,2.04c-1.98,0.77-3.92,0.76-6.13-0.14c4.12-2.97,4.41-7.77,6.79-11.56
			c-2.41-4.51-6.62-13.82-6.62-13.82l6.93-0.39c0,0-0.87,1.25-0.97,2.5c0.29,1.99,1.61,4.11,2.41,6.86
			c1.44-2.49,2.42-4.71,2.91-6.86c-0.11-1.29-1.66-2.37-1.66-2.37l5.66,0.08c0,0-4.22,6.95-6.21,10.78
			c2.2,4.77,2.87,10.32,6.53,14.6c-1.84,1.05-3.08,1.14-6.7,0.36c-0.27-0.59,0.17-0.87,0.51-1.23c0.24-0.26,0.38-0.62,0.62-1.02
			c-0.9-2.41-1.8-4.83-2.75-7.37C946.66,463.12,946.14,464.5,946.06,467.5z"/>
		<path d="M584.46,634.67c0-8.71,0-17.21,0-25.91c1.83-0.65,3.65-0.32,5.44-0.27c0.81,2.52,1.07,19.36,0.4,26.02
			C588.44,635.12,586.54,634.91,584.46,634.67z"/>
		<path d="M869.58,455.2c-1.98,1.47-3.95,2.95-5.93,4.42c2.1-3.82,5.13-7,6.58-11.22c0.44-0.84-0.63-1.51-0.41-2.37
			c1.42-1.27,3.55,0.05,4.81,2.94c2.15,0.75,3.78-0.61,5.42-1.44c2.13,0.08,3.23,1.22,4.03,3.26c-2.67,2.08-4.53,4.84-6.33,7.68
			c0.34,1.89,2.13,3.15,2.04,5.22c-0.32,1.02-1.04,1.53-2.16,1.3c-1.42-0.47-1.29-2.13-2.66-3.04c-3.69,2.96-7.21,6.55-13.14,7.34
			c4.6-3.06,8.5-5.91,11.36-10.08c-1.22-1.35-2.45-2.72-3.69-4.09c1.85,0.7,3.69,1.39,5.63,2.13c1.53-1.87,2.69-3.86,3.4-6.25
			c-1.73-0.56-3.31-0.24-5.03-0.23C872.2,452.25,870.89,453.73,869.58,455.2z"/>
		<path d="M685.57,452.7c-1.89-0.99-4.25-1.57-3.85-4.85c3.08,0.63,5.97,0.39,8.89,0.02c2.96-0.37,5.94-0.47,8.71-1.51
			c1.73,0.75,3.08,1.79,4.08,3.49c-3.11,5.18-6.04,10.5-11.25,14.07c-2.57,1.76-5.23,3.24-8.42,3.79c5.8-4.8,11.5-9.63,13.91-17.67
			C693.11,449.75,689.26,450.64,685.57,452.7z"/>
		<path d="M811.68,450.66c-4.44,0.09-8.31,0.55-11.85,2.65c-3.45-1.34-3.55-1.44-4.22-4.52c6.09,0.57,12-0.24,18.09-1.65
			c1.37,0.69,2.57,1.88,3.78,3.15c-3.69,6.68-7.61,12.78-14.43,16.33c-1.62,0.84-3.2,1.77-5.56,1.79
			C803.51,463.4,809.43,458.77,811.68,450.66z"/>
		<path d="M752.14,444.83c2.82-0.98,3.21-0.89,5.98,1.26c-0.12,1.85-1.61,3.62-0.66,5.84c1.99,0.64,4.01,0.28,6.08-0.42
			c1.2,0.15,2.39,0.41,3.33,1.18c0.46,0.81,0.49,1.49-0.45,2.27c-2.93-0.23-6.12-0.76-9.2-0.1c-2.35,9.12-4.01,11.5-10.07,14.47
			c0.1-1.55,1.56-2,2.23-3.01c0.76-1.14,1.68-2.18,2.32-3.38c0.58-1.08,0.83-2.33,1.3-3.48c0.53-1.31,0.56-2.61,0.36-4.08
			c-2.74-0.5-5.01,0.86-7.61,1.08c-1.59-0.42-3.04-1.2-3.52-3.34c3.69-0.48,7.3,0.19,11.1-0.45
			C753.39,450.06,754.46,447.39,752.14,444.83z"/>
		<path d="M963.23,443.77l3.16-0.22c0,0,1.16,9.46,2,14.19c0.96-4.62,2.25-13.88,2.25-13.88l2.61-0.26l-3.52,26.02l-3.58-0.07
			c0,0-0.65-8.6-1.15-12.89C964.49,452.36,963.23,443.77,963.23,443.77z"/>
		<path d="M734.75,448.53c0.45-1.67-0.27-2.94,0.3-4.09c3.17-0.13,3.36-0.02,5.58,2.97c-1.53,1.83-3.1,3.71-4.68,5.61
			c0.07,0.98,0.55,1.83,0.52,2.84c-0.09,3.59-0.16,7.19,0.53,10.77c0.31,1.62,0.27,3.25-1.55,4.18c-1.74-0.03-2.13-1.43-2.67-2.59
			c0.17-1.16,0.45-2.25,0.47-3.35c0.07-2.84,0.02-5.69,0.02-8.79c-3.29,2.27-6,4.89-9.84,5.67
			C727.62,457.61,731.7,453.43,734.75,448.53z"/>
		<path d="M841.94,586.51c-0.01,5.01-3.88,9-8.85,9.13c-4.94,0.13-9.26-4.21-9.22-9.26c0.04-4.83,4.21-9.1,8.98-9.17
			C837.78,577.13,841.95,581.4,841.94,586.51z M837.36,591.38c2.49-0.91,2.17-3.29,2.75-5.1c-1.72-6.46-6.24-8.62-10.94-5.32
			c-3.28,1.48-3.39,4.35-2.9,7.23c0.45,2.66,2.34,4.27,4.91,5.04C833.65,593.97,835.78,593.61,837.36,591.38z"/>
		<path d="M714.72,453.97c1.75-0.59,2.74,0.72,4.02,1c1.01-0.51,1.08-1.6,1.71-2.61c-4.13-0.65-7.68,1.19-11.42,1.72
			c-1.68-1.42-1.68-1.42-2.11-3.76c5.49,1.12,10.77-0.09,16.11-1.07c1.18,0.99,2.02,2.14,2.27,3.46c-0.32,1.22-1.21,1.02-1.86,1.26
			c-2.75,1.04-4.96,2.5-6.23,5.43c-1.38,3.18-3.27,6.15-5.86,8.57c-0.87,0.82-1.68,1.75-3.43,2.23
			C711.63,465.11,714.79,460.3,714.72,453.97z"/>
		<path d="M836.38,449.86c1.16,1.13,2.19,2.16,2.63,3.98c-2.38,0.76-4.55,1.82-6.85,3.3c-2.68,4.76-4.69,10.4-10.13,13.54
			c-0.42-1.09,0.41-1.47,0.81-2c2.2-2.91,3.8-6.11,4.84-9.61c0.42-1.42,1.14-2.8-0.15-4.06c2.11-1.43,3.29,0.41,4.78,0.68
			c0.7-0.76,1.23-1.57,1.3-2.57c-0.19-0.2-0.36-0.51-0.5-0.5c-3.58,0.37-7.07,1.26-10.42,2.08c-1.63-0.84-2.63-1.78-2.41-3.75
			C825.71,452.12,830.87,450.95,836.38,449.86z"/>
		<path d="M781.58,466.16c-1.36-0.46-2.52-1.29-3.24-2.77c0.84-4.59,0.91-9.21-0.62-13.75c2.8-0.6,2.8-0.6,5.15,1.12
			c-0.14,3.22-1.35,6.47-0.63,10.1c3.8-2.07,6.71-5.06,9.7-7.91c1.04,0.83,0.15,1.39-0.16,1.9c-1.54,2.56-3.37,4.9-5.56,6.95
			C784.69,463.24,783.16,464.68,781.58,466.16z"/>
		<path d="M912.79,460.75c-1.95-1.79-3.05-3.29-1.88-5.4c1.42-0.61,1.74,0.93,2.68,1.13c6.2,0.18,12.4,0.28,18.59-0.14
			c2.62-0.18,3.09,0,4.65,1.94c-0.35,1.7-1.7,1.5-2.92,1.5c-4.1,0.02-8.2,0.07-12.29,0.01
			C918.65,459.76,915.71,459.97,912.79,460.75z"/>
		<path d="M846.19,468.13c-2.81-1.18-4.8-2.64-5.15-5.89c1.31-0.23,1.97,1.08,3.38,1.02c7.22-2.69,12.86-8.2,18.72-13.36
			c0.9,0.91,0.09,1.46-0.3,1.98c-2.66,3.62-5.52,7.06-9.01,9.93C851.34,463.86,848.86,465.92,846.19,468.13z"/>
		<path d="M907.5,453.2c-2.64,5.17-11.11,12.79-18.59,17.02c-2.07-1.37-3.09-3.25-2.92-5.86c1.37-0.28,2.26,0.92,3.44,0.54
			C895.78,461.54,901.88,457.76,907.5,453.2z"/>
		<polygon points="958.62,443.84 962.05,443.59 961.81,456.47 962.15,469.61 958.79,469.81 		"/>
		<path d="M771.68,450.35c2.65-0.07,2.65-0.07,4.93,2.43c-2.23,5.64-4.64,11.17-10.83,14.03c0.47-0.62,0.98-1.2,1.39-1.86
			c1.17-1.9,2.43-3.77,3.41-5.77C772.39,455.54,772.45,454.37,771.68,450.35z"/>
		<path d="M849.71,453.71c-0.76,0.83-1.7,0.84-2.87,0.5c-1.21-1.93-2.57-3.91-4.58-5.75C848.06,448.06,850.33,449.77,849.71,453.71z
			"/>
		<path d="M889.83,459.72c-1.38-1.53-2.78-3.07-4.4-4.85c1.51-0.75,2.92-0.52,4.22-0.45c1.59,0.61,2.56,1.65,2.96,3.24
			C892.44,459.3,891.62,460.1,889.83,459.72z"/>
		<path d="M895.12,453.84c-2.93-0.35-3.62-3.58-6.49-4.7c2.78-1.35,4.76-0.94,6.54,0.61C896.33,450.77,896.29,451.5,895.12,453.84z"
			/>
		<path d="M900.14,446.28c4.2,0.03,4.51,0.24,5.75,3.45c-0.31,0.87-0.81,1.52-2.03,1.51C902.35,450.06,901.77,448.07,900.14,446.28z
			"/>
		<path d="M903.21,443.36c2.9-0.54,4.91-0.03,5.9,2.54c0.01,0.81-0.37,1.25-0.97,1.65c-0.31-0.06-0.76-0.01-0.97-0.21
			C905.89,446.11,904.66,444.83,903.21,443.36z"/>
		<path d="M829.12,580.89c1.36-0.01,2.72,0,4.08-0.02c1.32-0.03,2.42,0.4,3.24,1.39c0.71,1.55,0.21,2.92-0.55,4.23
			c1.24,1.47,0.35,3.51,1.53,4.94c-0.84,0.02-1.7,0.39-2.51-0.13c-0.94-0.86-0.28-2.15-0.88-3.19c-0.54-0.61-1.22-1.05-2.19-0.78
			c-0.91,1.16,0.05,2.69-0.7,3.79c-0.47,0.49-0.94,0.41-1.73,0.18C828.81,587.93,829.33,584.39,829.12,580.89z M834.5,583.47
			c-0.79-0.15-1.24-0.26-1.7-0.31c-0.5-0.05-0.95,0.08-1.27,0.59c0.03,0.41-0.18,0.91,0.41,1.4
			C832.97,585.41,833.84,585.14,834.5,583.47z"/>
		<path d="M682.82,480.15c4.29,0,8.37,0,12.4,0c0.28,0.48,7.37,103.35,7.52,106.84c0.11,2.51,0.95,3.68,3.57,5.73
			c0.11,0.71,0.31,1.44-0.32,2.3c-6.07,0-12.26,0-18.47,0c-0.73-0.51-0.6-1.27-0.49-2.28c3.46-1.68,4-4.86,3.51-8.41
			c-0.51-3.69-0.6-7.41-0.75-11.32c-2.15-0.47-4.18-0.26-6.46-0.17c0.04,5.93-1.44,11.54-0.78,17.1c0.61,1.36,1.64,2.05,2.55,2.56
			c0.33,0.97,0.41,1.68-0.28,2.51c-5.04,0-10.23,0-15.38,0c-0.95-0.7-0.35-1.6-0.59-2.49c1.43-0.74,2.75-1.46,3.67-3.18
			C673.6,584.48,681.07,494.53,682.82,480.15z M687.46,523.11c-0.06,0-0.13,0.01-0.19,0.01c-1.04,13.67-2.09,27.34-3.15,41.24
			c2.01,0.02,3.79,0.44,5.44-0.3C688.85,550.26,688.15,536.68,687.46,523.11z"/>
	</g>
</g>
</svg>
