<?xml version="1.0" encoding="utf-8"?>
<!-- Generator: Adobe Illustrator 23.0.3, SVG Export Plug-In . SVG Version: 6.00 Build 0)  -->
<svg version="1.1" id="レイヤー_1" xmlns="http://www.w3.org/2000/svg" xmlns:xlink="http://www.w3.org/1999/xlink" x="0px"
	 y="0px" width="722.26px" height="490.33px" viewBox="0 0 722.26 490.33" enable-background="new 0 0 722.26 490.33"
	 xml:space="preserve">
<g>
	
		<image overflow="visible" opacity="0.8" width="989" height="578" xlink:href="B7A258862253D675.png"  transform="matrix(1 0 0 1 -127.6195 -43.6383)">
	</image>
	<g>
		<g>
			<defs>
				<path id="card_16_" d="M680.88,450.02h-640c-11.05,0-20-8.95-20-20V43.05c0-11.05,8.95-20,20-20h640c11.05,0,20,8.95,20,20
					v386.98C700.88,441.07,691.93,450.02,680.88,450.02z"/>
			</defs>
			<clipPath id="card_3_">
				<use xlink:href="#card_16_"  overflow="visible"/>
			</clipPath>
			<g clip-path="url(#card_3_)">
				
					<image overflow="visible" width="3840" height="2160" xlink:href="../../../../../プリペイドカード/Enlight21.jpg"  transform="matrix(0.2446 0 0 0.2446 -110.6966 -26.9523)">
				</image>
			</g>
		</g>
	</g>
</g>
<g id="card_12_" opacity="0.9">
	<linearGradient id="SVGID_1_" gradientUnits="userSpaceOnUse" x1="89.8181" y1="-34.527" x2="631.9443" y2="507.5992">
		<stop  offset="0" style="stop-color:#FFFFFF"/>
		<stop  offset="1" style="stop-color:#FFFFFF;stop-opacity:0"/>
	</linearGradient>
	<path fill="none" stroke="url(#SVGID_1_)" stroke-width="0.5" stroke-miterlimit="10" d="M680.88,450.02h-640
		c-11.05,0-20-8.95-20-20V43.05c0-11.05,8.95-20,20-20h640c11.05,0,20,8.95,20,20v386.98C700.88,441.07,691.93,450.02,680.88,450.02
		z"/>
</g>
<g>
	<path d="M206.99,480.46c-0.32,0.16-0.96,0.32-1.78,0.32c-1.9,0-3.33-1.2-3.33-3.41c0-2.11,1.43-3.54,3.52-3.54
		c0.84,0,1.37,0.18,1.6,0.3l-0.21,0.71c-0.33-0.16-0.8-0.28-1.36-0.28c-1.58,0-2.63,1.01-2.63,2.78c0,1.65,0.95,2.71,2.59,2.71
		c0.53,0,1.07-0.11,1.42-0.28L206.99,480.46z"/>
	<path d="M212.82,478.22c0,1.79-1.24,2.57-2.41,2.57c-1.31,0-2.32-0.96-2.32-2.49c0-1.62,1.06-2.57,2.4-2.57
		C211.88,475.73,212.82,476.74,212.82,478.22z M208.98,478.27c0,1.06,0.61,1.86,1.47,1.86c0.84,0,1.47-0.79,1.47-1.88
		c0-0.82-0.41-1.86-1.45-1.86S208.98,477.35,208.98,478.27z"/>
	<path d="M214.43,477.42c0-0.62-0.02-1.12-0.04-1.58h0.79l0.04,0.83h0.02c0.36-0.59,0.93-0.94,1.72-0.94c1.17,0,2.05,0.99,2.05,2.46
		c0,1.74-1.06,2.6-2.2,2.6c-0.64,0-1.2-0.28-1.49-0.76h-0.02v2.63h-0.87V477.42z M215.3,478.71c0,0.13,0.02,0.25,0.04,0.36
		c0.16,0.61,0.69,1.03,1.32,1.03c0.93,0,1.47-0.76,1.47-1.87c0-0.97-0.51-1.8-1.44-1.8c-0.6,0-1.16,0.43-1.33,1.09
		c-0.03,0.11-0.06,0.24-0.06,0.36V478.71z"/>
	<path d="M220.87,475.84l1.06,2.86c0.11,0.32,0.23,0.7,0.31,0.99h0.02c0.09-0.29,0.19-0.66,0.31-1.01l0.96-2.84h0.93l-1.32,3.45
		c-0.63,1.66-1.06,2.51-1.66,3.03c-0.43,0.38-0.86,0.53-1.08,0.57l-0.22-0.74c0.22-0.07,0.51-0.21,0.77-0.43
		c0.24-0.19,0.54-0.53,0.74-0.98c0.04-0.09,0.07-0.16,0.07-0.21s-0.02-0.12-0.06-0.23l-1.79-4.46H220.87z"/>
	<path d="M225.76,477.35c0-0.57-0.01-1.06-0.04-1.51h0.77l0.03,0.95h0.04c0.22-0.65,0.75-1.06,1.34-1.06c0.1,0,0.17,0.01,0.25,0.03
		v0.83c-0.09-0.02-0.18-0.03-0.3-0.03c-0.62,0-1.06,0.47-1.18,1.13c-0.02,0.12-0.04,0.26-0.04,0.41v2.58h-0.87V477.35z"/>
	<path d="M230.55,474.48c0.01,0.3-0.21,0.54-0.56,0.54c-0.31,0-0.53-0.24-0.53-0.54c0-0.31,0.23-0.55,0.55-0.55
		C230.34,473.93,230.55,474.17,230.55,474.48z M229.57,480.68v-4.84h0.88v4.84H229.57z"/>
	<path d="M236.58,475.84c-0.02,0.35-0.04,0.74-0.04,1.33v2.81c0,1.11-0.22,1.79-0.69,2.21c-0.47,0.44-1.15,0.58-1.76,0.58
		c-0.58,0-1.22-0.14-1.61-0.4l0.22-0.67c0.32,0.2,0.82,0.38,1.42,0.38c0.9,0,1.56-0.47,1.56-1.69v-0.54h-0.02
		c-0.27,0.45-0.79,0.81-1.54,0.81c-1.2,0-2.06-1.02-2.06-2.36c0-1.64,1.07-2.57,2.18-2.57c0.84,0,1.3,0.44,1.51,0.84h0.02l0.04-0.73
		H236.58z M235.67,477.75c0-0.15-0.01-0.28-0.05-0.4c-0.16-0.51-0.59-0.93-1.23-0.93c-0.84,0-1.44,0.71-1.44,1.83
		c0,0.95,0.48,1.74,1.43,1.74c0.54,0,1.03-0.34,1.22-0.9c0.05-0.15,0.07-0.32,0.07-0.47V477.75z"/>
	<path d="M238.5,473.58h0.88v3.02h0.02c0.14-0.25,0.36-0.47,0.63-0.62c0.26-0.15,0.57-0.25,0.9-0.25c0.65,0,1.69,0.4,1.69,2.07v2.88
		h-0.88v-2.78c0-0.78-0.29-1.44-1.12-1.44c-0.57,0-1.02,0.4-1.18,0.88c-0.05,0.12-0.06,0.25-0.06,0.42v2.92h-0.88V473.58z"/>
	<path d="M245.57,474.45v1.39h1.26v0.67h-1.26v2.61c0,0.6,0.17,0.94,0.66,0.94c0.23,0,0.4-0.03,0.51-0.06l0.04,0.66
		c-0.17,0.07-0.44,0.12-0.78,0.12c-0.41,0-0.74-0.13-0.95-0.37c-0.25-0.26-0.34-0.69-0.34-1.26v-2.64h-0.75v-0.67h0.75v-1.16
		L245.57,474.45z"/>
	<path d="M252.85,473.74c-0.73,0.98-1.26,2.28-1.26,4.09c0,1.78,0.55,3.06,1.26,4.06h-0.69c-0.63-0.83-1.31-2.11-1.31-4.06
		c0.01-1.97,0.68-3.25,1.31-4.09H252.85z"/>
	<path d="M258.89,480.46c-0.32,0.16-0.96,0.32-1.78,0.32c-1.9,0-3.33-1.2-3.33-3.41c0-2.11,1.43-3.54,3.52-3.54
		c0.84,0,1.37,0.18,1.6,0.3l-0.21,0.71c-0.33-0.16-0.8-0.28-1.36-0.28c-1.58,0-2.63,1.01-2.63,2.78c0,1.65,0.95,2.71,2.59,2.71
		c0.53,0,1.07-0.11,1.42-0.28L258.89,480.46z"/>
	<path d="M260.1,481.89c0.71-0.99,1.26-2.29,1.26-4.09c0-1.79-0.54-3.07-1.26-4.06h0.68c0.64,0.82,1.31,2.1,1.31,4.07
		c0,1.96-0.67,3.23-1.31,4.08H260.1z"/>
	<path d="M266.31,480.68v-0.54l0.69-0.67c1.66-1.58,2.41-2.42,2.42-3.4c0-0.66-0.32-1.27-1.29-1.27c-0.59,0-1.08,0.3-1.38,0.55
		l-0.28-0.62c0.45-0.38,1.09-0.66,1.84-0.66c1.4,0,1.99,0.96,1.99,1.89c0,1.2-0.87,2.17-2.24,3.49l-0.52,0.48v0.02h2.92v0.73H266.31
		z"/>
	<path d="M276.26,477.36c0,2.21-0.82,3.43-2.26,3.43c-1.27,0-2.13-1.19-2.15-3.34c0-2.18,0.94-3.38,2.26-3.38
		C275.48,474.07,276.26,475.29,276.26,477.36z M272.73,477.46c0,1.69,0.52,2.65,1.32,2.65c0.9,0,1.33-1.05,1.33-2.71
		c0-1.6-0.41-2.65-1.32-2.65C273.29,474.75,272.73,475.69,272.73,477.46z"/>
	<path d="M279.48,475h-0.02l-1.13,0.61l-0.17-0.67l1.42-0.76h0.75v6.5h-0.85V475z"/>
	<path d="M287.52,477.36c0,2.21-0.82,3.43-2.26,3.43c-1.27,0-2.13-1.19-2.15-3.34c0-2.18,0.94-3.38,2.26-3.38
		C286.73,474.07,287.52,475.29,287.52,477.36z M283.99,477.46c0,1.69,0.52,2.65,1.32,2.65c0.9,0,1.33-1.05,1.33-2.71
		c0-1.6-0.41-2.65-1.32-2.65C284.55,474.75,283.99,475.69,283.99,477.46z"/>
	<path d="M293.77,477.65v0.65h-2.47v-0.65H293.77z"/>
	<path d="M297.64,480.68v-0.54l0.69-0.67c1.66-1.58,2.41-2.42,2.42-3.4c0-0.66-0.32-1.27-1.29-1.27c-0.59,0-1.08,0.3-1.38,0.55
		l-0.28-0.62c0.45-0.38,1.09-0.66,1.84-0.66c1.4,0,1.99,0.96,1.99,1.89c0,1.2-0.87,2.17-2.24,3.49l-0.52,0.48v0.02h2.92v0.73H297.64
		z"/>
	<path d="M307.58,477.36c0,2.21-0.82,3.43-2.26,3.43c-1.27,0-2.13-1.19-2.15-3.34c0-2.18,0.94-3.38,2.26-3.38
		C306.81,474.07,307.58,475.29,307.58,477.36z M304.06,477.46c0,1.69,0.52,2.65,1.32,2.65c0.9,0,1.33-1.05,1.33-2.71
		c0-1.6-0.41-2.65-1.32-2.65C304.62,474.75,304.06,475.69,304.06,477.46z"/>
	<path d="M310.81,475h-0.02l-1.13,0.61l-0.17-0.67l1.42-0.76h0.75v6.5h-0.85V475z"/>
	<path d="M315.04,480.06c0.19,0.02,0.41,0,0.71-0.03c0.51-0.07,0.99-0.28,1.36-0.63c0.43-0.39,0.74-0.96,0.86-1.73h-0.03
		c-0.36,0.44-0.88,0.7-1.53,0.7c-1.17,0-1.92-0.88-1.92-1.99c0-1.23,0.89-2.31,2.22-2.31c1.33,0,2.15,1.08,2.15,2.74
		c0,1.43-0.48,2.43-1.12,3.05c-0.5,0.49-1.19,0.79-1.89,0.87c-0.32,0.05-0.6,0.06-0.81,0.05V480.06z M315.36,476.32
		c0,0.81,0.49,1.38,1.25,1.38c0.59,0,1.05-0.29,1.28-0.68c0.05-0.08,0.08-0.18,0.08-0.32c0-1.11-0.41-1.96-1.33-1.96
		C315.89,474.74,315.36,475.4,315.36,476.32z"/>
	<path d="M322.97,479.62c0.39,0.24,0.96,0.44,1.56,0.44c0.89,0,1.41-0.47,1.41-1.15c0-0.63-0.36-0.99-1.27-1.34
		c-1.1-0.39-1.78-0.96-1.78-1.91c0-1.05,0.87-1.83,2.18-1.83c0.69,0,1.19,0.16,1.49,0.33l-0.24,0.71c-0.22-0.12-0.67-0.32-1.28-0.32
		c-0.92,0-1.27,0.55-1.27,1.01c0,0.63,0.41,0.94,1.34,1.3c1.14,0.44,1.72,0.99,1.72,1.98c0,1.04-0.77,1.94-2.36,1.94
		c-0.65,0-1.36-0.19-1.72-0.43L322.97,479.62z"/>
	<path d="M334.07,481.67c-0.91-0.24-1.8-0.51-2.58-0.78c-0.14-0.05-0.28-0.1-0.41-0.1c-1.6-0.06-2.97-1.24-2.97-3.41
		c0-2.16,1.32-3.55,3.14-3.55c1.83,0,3.02,1.42,3.02,3.41c0,1.73-0.8,2.84-1.92,3.23v0.04c0.67,0.17,1.4,0.33,1.97,0.43
		L334.07,481.67z M333.35,477.28c0-1.35-0.7-2.74-2.13-2.74c-1.47,0-2.19,1.36-2.18,2.82c-0.01,1.43,0.78,2.72,2.14,2.72
		C332.57,480.08,333.35,478.82,333.35,477.28z"/>
	<path d="M336.78,473.94v3.99c0,1.51,0.67,2.15,1.57,2.15c1,0,1.64-0.66,1.64-2.15v-3.99h0.88v3.93c0,2.07-1.09,2.92-2.55,2.92
		c-1.38,0-2.42-0.79-2.42-2.88v-3.97H336.78z"/>
	<path d="M343.63,478.56l-0.7,2.12h-0.9l2.29-6.74h1.05l2.3,6.74h-0.93l-0.72-2.12H343.63z M345.83,477.88l-0.66-1.94
		c-0.15-0.44-0.25-0.84-0.35-1.23h-0.02c-0.1,0.4-0.21,0.81-0.34,1.22l-0.66,1.95H345.83z"/>
	<path d="M349.16,474.03c0.44-0.09,1.07-0.14,1.67-0.14c0.93,0,1.53,0.17,1.95,0.55c0.34,0.3,0.53,0.76,0.53,1.28
		c0,0.89-0.56,1.48-1.27,1.72v0.03c0.52,0.18,0.83,0.66,0.99,1.36c0.22,0.94,0.38,1.59,0.52,1.85h-0.9
		c-0.11-0.19-0.26-0.77-0.45-1.61c-0.2-0.93-0.56-1.28-1.35-1.31h-0.82v2.92h-0.87V474.03z M350.03,477.1h0.89
		c0.93,0,1.52-0.51,1.52-1.28c0-0.87-0.63-1.25-1.55-1.26c-0.42,0-0.72,0.04-0.86,0.08V477.1z"/>
	<path d="M358.52,477.52h-2.62v2.43h2.92v0.73h-3.79v-6.74h3.64v0.73h-2.77v2.13h2.62V477.52z"/>
	<path d="M366.56,477.52h-2.62v2.43h2.92v0.73h-3.79v-6.74h3.64v0.73h-2.77v2.13h2.62V477.52z"/>
	<path d="M368.5,480.68v-6.74h0.95l2.16,3.41c0.5,0.79,0.89,1.5,1.21,2.19l0.02-0.01c-0.08-0.9-0.1-1.72-0.1-2.77v-2.82h0.82v6.74
		h-0.88l-2.14-3.42c-0.47-0.75-0.92-1.52-1.26-2.25l-0.03,0.01c0.05,0.85,0.07,1.66,0.07,2.78v2.88H368.5z"/>
	<path d="M376.44,473.94v6.74h-0.87v-6.74H376.44z"/>
	<path d="M382.15,480.68l-0.86-1.49c-0.35-0.57-0.57-0.94-0.78-1.33h-0.02c-0.19,0.39-0.38,0.75-0.73,1.34l-0.81,1.48h-1l2.06-3.41
		l-1.98-3.33h1.01l0.89,1.58c0.25,0.44,0.44,0.78,0.62,1.14h0.03c0.19-0.4,0.36-0.71,0.61-1.14l0.92-1.58h1l-2.05,3.28l2.1,3.46
		H382.15z"/>
	<path d="M392,480.46c-0.32,0.16-0.96,0.32-1.78,0.32c-1.9,0-3.33-1.2-3.33-3.41c0-2.11,1.43-3.54,3.52-3.54
		c0.84,0,1.37,0.18,1.6,0.3l-0.21,0.71c-0.33-0.16-0.8-0.28-1.36-0.28c-1.58,0-2.63,1.01-2.63,2.78c0,1.65,0.95,2.71,2.59,2.71
		c0.53,0,1.07-0.11,1.42-0.28L392,480.46z"/>
	<path d="M399.14,477.24c0,2.32-1.41,3.55-3.13,3.55c-1.78,0-3.03-1.38-3.03-3.42c0-2.14,1.33-3.54,3.13-3.54
		C397.95,473.83,399.14,475.24,399.14,477.24z M393.91,477.35c0,1.44,0.78,2.73,2.15,2.73c1.38,0,2.16-1.27,2.16-2.8
		c0-1.34-0.7-2.74-2.15-2.74C394.63,474.54,393.91,475.87,393.91,477.35z"/>
	<path d="M400.2,480.16c0-0.37,0.25-0.63,0.6-0.63s0.59,0.26,0.59,0.63c0,0.36-0.23,0.63-0.6,0.63
		C400.44,480.79,400.2,480.52,400.2,480.16z"/>
	<path d="M402.41,481.91c0.22-0.59,0.49-1.66,0.6-2.39l0.98-0.1c-0.23,0.85-0.67,1.96-0.95,2.43L402.41,481.91z"/>
	<path d="M408.19,473.94h0.87v6.01h2.88v0.73h-3.75V473.94z"/>
	<path d="M413.81,474.68h-2.05v-0.74h4.99v0.74h-2.06v6h-0.88V474.68z"/>
	<path d="M418.01,474.03c0.53-0.08,1.16-0.14,1.85-0.14c1.25,0,2.14,0.29,2.73,0.84c0.6,0.55,0.95,1.33,0.95,2.42
		c0,1.1-0.34,2-0.97,2.62c-0.63,0.63-1.67,0.97-2.98,0.97c-0.62,0-1.14-0.03-1.58-0.08V474.03z M418.87,479.99
		c0.22,0.04,0.54,0.05,0.88,0.05c1.86,0,2.87-1.04,2.87-2.86c0.01-1.59-0.89-2.6-2.73-2.6c-0.45,0-0.79,0.04-1.02,0.09V479.99z"/>
	<path d="M424.58,480.16c0-0.37,0.25-0.63,0.6-0.63s0.59,0.26,0.59,0.63c0,0.36-0.23,0.63-0.6,0.63
		C424.82,480.79,424.58,480.52,424.58,480.16z"/>
	<path d="M431.1,478.56l-0.7,2.12h-0.9l2.29-6.74h1.05l2.3,6.74h-0.93l-0.72-2.12H431.1z M433.31,477.88l-0.66-1.94
		c-0.15-0.44-0.25-0.84-0.35-1.23h-0.02c-0.1,0.4-0.21,0.81-0.34,1.22l-0.66,1.95H433.31z"/>
	<path d="M436.57,473.58h0.88v7.1h-0.88V473.58z"/>
	<path d="M439.43,473.58h0.88v7.1h-0.88V473.58z"/>
	<path d="M444.94,474.03c0.44-0.09,1.07-0.14,1.67-0.14c0.93,0,1.53,0.17,1.95,0.55c0.34,0.3,0.53,0.76,0.53,1.28
		c0,0.89-0.56,1.48-1.27,1.72v0.03c0.52,0.18,0.83,0.66,0.99,1.36c0.22,0.94,0.38,1.59,0.52,1.85h-0.9
		c-0.11-0.19-0.26-0.77-0.45-1.61c-0.2-0.93-0.56-1.28-1.35-1.31h-0.82v2.92h-0.87V474.03z M445.81,477.1h0.89
		c0.93,0,1.52-0.51,1.52-1.28c0-0.87-0.63-1.25-1.55-1.26c-0.42,0-0.72,0.04-0.86,0.08V477.1z"/>
	<path d="M451.87,474.48c0.01,0.3-0.21,0.54-0.56,0.54c-0.31,0-0.53-0.24-0.53-0.54c0-0.31,0.23-0.55,0.55-0.55
		C451.66,473.93,451.87,474.17,451.87,474.48z M450.89,480.68v-4.84h0.88v4.84H450.89z"/>
	<path d="M457.9,475.84c-0.02,0.35-0.04,0.74-0.04,1.33v2.81c0,1.11-0.22,1.79-0.69,2.21c-0.47,0.44-1.15,0.58-1.76,0.58
		c-0.58,0-1.22-0.14-1.61-0.4l0.22-0.67c0.32,0.2,0.82,0.38,1.42,0.38c0.9,0,1.56-0.47,1.56-1.69v-0.54h-0.02
		c-0.27,0.45-0.79,0.81-1.54,0.81c-1.2,0-2.06-1.02-2.06-2.36c0-1.64,1.07-2.57,2.18-2.57c0.84,0,1.3,0.44,1.51,0.84h0.02l0.04-0.73
		H457.9z M456.99,477.75c0-0.15-0.01-0.28-0.05-0.4c-0.16-0.51-0.59-0.93-1.23-0.93c-0.84,0-1.44,0.71-1.44,1.83
		c0,0.95,0.48,1.74,1.43,1.74c0.54,0,1.03-0.34,1.22-0.9c0.05-0.15,0.07-0.32,0.07-0.47V477.75z"/>
	<path d="M459.82,473.58h0.88v3.02h0.02c0.14-0.25,0.36-0.47,0.63-0.62c0.26-0.15,0.57-0.25,0.9-0.25c0.65,0,1.69,0.4,1.69,2.07
		v2.88h-0.88v-2.78c0-0.78-0.29-1.44-1.12-1.44c-0.57,0-1.02,0.4-1.18,0.88c-0.05,0.12-0.06,0.25-0.06,0.42v2.92h-0.88V473.58z"/>
	<path d="M466.89,474.45v1.39h1.26v0.67h-1.26v2.61c0,0.6,0.17,0.94,0.66,0.94c0.23,0,0.4-0.03,0.51-0.06l0.04,0.66
		c-0.17,0.07-0.44,0.12-0.78,0.12c-0.41,0-0.74-0.13-0.95-0.37c-0.25-0.26-0.34-0.69-0.34-1.26v-2.64h-0.75v-0.67h0.75v-1.16
		L466.89,474.45z"/>
	<path d="M469.52,479.78c0.26,0.17,0.72,0.35,1.16,0.35c0.64,0,0.94-0.32,0.94-0.72c0-0.42-0.25-0.65-0.9-0.89
		c-0.87-0.31-1.28-0.79-1.28-1.37c0-0.78,0.63-1.42,1.67-1.42c0.49,0,0.92,0.14,1.19,0.3l-0.22,0.64c-0.19-0.12-0.54-0.28-0.99-0.28
		c-0.52,0-0.81,0.3-0.81,0.66c0,0.4,0.29,0.58,0.92,0.82c0.84,0.32,1.27,0.74,1.27,1.46c0,0.85-0.66,1.45-1.81,1.45
		c-0.53,0-1.02-0.13-1.36-0.33L469.52,479.78z"/>
	<path d="M476.75,474.03c0.44-0.09,1.07-0.14,1.67-0.14c0.93,0,1.53,0.17,1.95,0.55c0.34,0.3,0.53,0.76,0.53,1.28
		c0,0.89-0.56,1.48-1.27,1.72v0.03c0.52,0.18,0.83,0.66,0.99,1.36c0.22,0.94,0.38,1.59,0.52,1.85h-0.9
		c-0.11-0.19-0.26-0.77-0.45-1.61c-0.2-0.93-0.56-1.28-1.35-1.31h-0.82v2.92h-0.87V474.03z M477.62,477.1h0.89
		c0.93,0,1.52-0.51,1.52-1.28c0-0.87-0.63-1.25-1.55-1.26c-0.42,0-0.72,0.04-0.86,0.08V477.1z"/>
	<path d="M483.13,478.42c0.02,1.19,0.78,1.68,1.66,1.68c0.63,0,1.01-0.11,1.34-0.25l0.15,0.63c-0.31,0.14-0.84,0.3-1.61,0.3
		c-1.49,0-2.38-0.98-2.38-2.44c0-1.46,0.86-2.61,2.27-2.61c1.58,0,2,1.39,2,2.28c0,0.18-0.02,0.32-0.03,0.41H483.13z M485.71,477.79
		c0.01-0.56-0.23-1.43-1.22-1.43c-0.89,0-1.28,0.82-1.35,1.43H485.71z"/>
	<path d="M488.03,479.78c0.26,0.17,0.72,0.35,1.16,0.35c0.64,0,0.94-0.32,0.94-0.72c0-0.42-0.25-0.65-0.9-0.89
		c-0.87-0.31-1.28-0.79-1.28-1.37c0-0.78,0.63-1.42,1.67-1.42c0.49,0,0.92,0.14,1.19,0.3l-0.22,0.64c-0.19-0.12-0.54-0.28-0.99-0.28
		c-0.52,0-0.81,0.3-0.81,0.66c0,0.4,0.29,0.58,0.92,0.82c0.84,0.32,1.27,0.74,1.27,1.46c0,0.85-0.66,1.45-1.81,1.45
		c-0.53,0-1.02-0.13-1.36-0.33L488.03,479.78z"/>
	<path d="M493.1,478.42c0.02,1.19,0.78,1.68,1.66,1.68c0.63,0,1.01-0.11,1.34-0.25l0.15,0.63c-0.31,0.14-0.84,0.3-1.61,0.3
		c-1.49,0-2.38-0.98-2.38-2.44c0-1.46,0.86-2.61,2.27-2.61c1.58,0,2,1.39,2,2.28c0,0.18-0.02,0.32-0.03,0.41H493.1z M495.68,477.79
		c0.01-0.56-0.23-1.43-1.22-1.43c-0.89,0-1.28,0.82-1.35,1.43H495.68z"/>
	<path d="M498.12,477.35c0-0.57-0.01-1.06-0.04-1.51h0.77l0.03,0.95h0.04c0.22-0.65,0.75-1.06,1.34-1.06c0.1,0,0.17,0.01,0.25,0.03
		v0.83c-0.09-0.02-0.18-0.03-0.3-0.03c-0.62,0-1.06,0.47-1.18,1.13c-0.02,0.12-0.04,0.26-0.04,0.41v2.58h-0.87V477.35z"/>
	<path d="M502.48,475.84l0.95,2.72c0.16,0.44,0.29,0.84,0.39,1.24h0.03c0.11-0.4,0.25-0.8,0.41-1.24l0.94-2.72h0.92l-1.9,4.84h-0.84
		l-1.84-4.84H502.48z"/>
	<path d="M507.84,478.42c0.02,1.19,0.78,1.68,1.66,1.68c0.63,0,1.01-0.11,1.34-0.25l0.15,0.63c-0.31,0.14-0.84,0.3-1.61,0.3
		c-1.49,0-2.38-0.98-2.38-2.44c0-1.46,0.86-2.61,2.27-2.61c1.58,0,2,1.39,2,2.28c0,0.18-0.02,0.32-0.03,0.41H507.84z M510.42,477.79
		c0.01-0.56-0.23-1.43-1.22-1.43c-0.89,0-1.28,0.82-1.35,1.43H510.42z"/>
	<path d="M517.04,473.58v5.85c0,0.43,0.01,0.92,0.04,1.25h-0.79l-0.04-0.84h-0.02c-0.27,0.54-0.86,0.95-1.65,0.95
		c-1.17,0-2.07-0.99-2.07-2.46c-0.01-1.61,0.99-2.6,2.17-2.6c0.74,0,1.24,0.35,1.46,0.74h0.02v-2.89H517.04z M516.16,477.81
		c0-0.11-0.01-0.26-0.04-0.37c-0.13-0.56-0.61-1.02-1.27-1.02c-0.91,0-1.45,0.8-1.45,1.87c0,0.98,0.48,1.79,1.43,1.79
		c0.59,0,1.13-0.39,1.29-1.05c0.03-0.12,0.04-0.24,0.04-0.38V477.81z"/>
	<path d="M518.69,480.16c0-0.37,0.25-0.63,0.6-0.63s0.59,0.26,0.59,0.63c0,0.36-0.23,0.63-0.6,0.63
		C518.93,480.79,518.69,480.52,518.69,480.16z"/>
</g>
<g>
	
		<image overflow="visible" opacity="0.4" width="245" height="82" xlink:href="B7A258862253D67D.png"  transform="matrix(1 0 0 1 39.6308 36.3617)">
	</image>
	<g>
		
			<image overflow="visible" opacity="0.6" width="232" height="69" xlink:href="B7A258862253D67F.png"  transform="matrix(1 0 0 1 46.0308 42.7617)">
		</image>
		<g>
			<g>
				<path fill="#FFFFFF" d="M101.24,85.45c0.02,0.31,0.06,0.48-0.1,0.67c-0.51,0.18-1.11-0.03-1.7,0.13
					c38.57,29.6,93.35,27.76,129.13-0.07c-1.11,0-2.09,0-2.97,0c-0.19-0.23-0.18-0.36-0.15-0.5c1.01-0.94,1.01-0.94,1.01-2.42
					c0-3.06-0.01-6.11,0.01-9.17c0.01-1.15-0.19-2.27-0.35-3.4c-0.17-1.2-0.34-2.39-0.51-3.59c-0.19-1.33-0.38-2.66-0.56-4
					c-0.17-1.23-0.32-2.47-0.49-3.7c-0.14-1.06-0.27-2.12-0.44-3.18c-0.1-0.61-0.52-1.04-0.95-1.33c-0.1-0.3-0.07-0.5,0.02-0.74
					c1.59,0,3.18,0,4.77,0c0.21,0.14,0.15,0.36,0.16,0.5c-0.04,0.21-0.14,0.29-0.26,0.36c-0.54,0.3-0.62,0.79-0.53,1.34
					c0.21,1.33,0.28,2.68,0.39,4.02c0.09,1.03,0.24,2.06,0.34,3.09c0.06,0.65,0.08,1.3,0.16,1.95c0.27-1.29,0.39-2.59,0.52-3.9
					c0.16-1.55,0.35-3.09,0.56-4.63c0.11-0.84,0.1-1.6-0.72-2.04c-0.08-0.26-0.1-0.46,0.08-0.71c1.54,0,3.13,0,4.73,0
					c0.26,0.21,0.14,0.48,0.11,0.77c-0.29,0.13-0.57,0.26-0.81,0.37c-0.26,0.32-0.35,0.63-0.4,0.99c-0.25,1.92-0.53,3.83-0.78,5.75
					c-0.17,1.27-0.3,2.54-0.47,3.8c-0.17,1.33-0.41,2.66-0.54,4c-0.16,1.68-0.53,3.34-0.5,5.05c0.04,2.81,0.01,5.62,0.01,8.44
					c0,0.49-0.01,0.97,0.41,1.47c1.75-1.27,3.37-2.72,4.98-4.16c1.6-1.43,3.16-2.91,4.68-4.47c0.21,0.36-0.08,0.48-0.22,0.63
					c-2.51,2.69-5.07,5.33-7.85,7.75c-0.31,0.27-0.61,0.57-0.92,0.85c-0.04,0.24-0.08,0.47-0.12,0.67c-0.27,0.24-0.58,0.06-0.85,0.2
					c-19.21,15.8-41.2,24.12-66.16,24.11c-24.97-0.01-46.95-8.32-66.21-24.17c-0.25,0-0.52,0-0.8,0c-0.27,0-0.55,0-0.81,0
					c-0.19-0.63-0.19-0.63,0.26-1.21c-0.5-0.47-1.15-1.03-1.71-1.54c-0.02,0.66,0.06,0.98,0.1,1.25c0.18,0.48,0.55,0.59,0.76,0.84
					c0.03,0.19,0.06,0.36-0.03,0.51c-0.04,0.04-0.06,0.08-0.09,0.09c-1.49,0.17-2.97,0.03-4.4,0.08c-0.3-0.22-0.21-0.47-0.21-0.72
					c0.27-0.16,0.54-0.32,0.87-0.52c0.29-1.4,0.33-1.64,0.52-3.92c-2.01-1.99-3.79-3.82-5.64-6.01c0.55,0.13,0.72,0.51,0.99,0.76
					c0.33,0.3,0.64,0.64,0.96,0.96c0.29,0.29,0.59,0.59,0.89,0.88c0.3,0.29,0.59,0.58,0.89,0.87c0.32,0.31,0.65,0.63,0.98,0.94
					c0.3,0.28,0.6,0.55,1.03,0.95c0.19-1.86,2.18-24.43,2.49-26.16c0.58-0.22,1.17-0.08,1.75-0.11c0.55-0.02,1.1,0,1.7,0
					c0.09,0.68,1.93,27.54,1.97,29.69C100.23,84.53,100.51,85.14,101.24,85.45z M96.62,77.58c0-0.54,0.01-0.98,0-1.43
					c-0.04-1.18-0.19-2.34-0.21-3.52c-0.03-2.08-0.14-4.15-0.22-6.22c0-0.1-0.04-0.2-0.06-0.35c-0.3,3.86-0.6,7.67-0.89,11.53
					C95.7,77.58,96.1,77.58,96.62,77.58z M94.77,82.62c0.15,0.11,0.32,0.23,0.48,0.36c0.5,0.4,1,0.81,1.53,1.23
					c0.01-2.14-0.14-3.13-0.25-4.27c-0.47,0.06-0.82,0.08-1.52,0.1C94.93,81,94.86,81.22,94.77,82.62z"/>
				<path fill="#FFFFFF" d="M169.86,86.15c-1.04,0-2.04,0-3.06,0c-0.24-0.22-0.27-0.55-0.32-0.84c-0.31-1.94-0.58-3.89-0.89-5.83
					c-0.38-2.38-0.81-4.76-1.19-7.14c-0.33-2.08-0.63-4.16-1.06-6.24c0,0.36,0,0.71,0,1.07c0,5.45,0.01,10.9-0.01,16.35
					c0,0.9,0.14,1.65,0.94,2.03c0.11,0.22,0.08,0.35,0.04,0.49c-0.24,0.2-3.17,0.24-4.68,0.06c-0.29-0.87,0.87-0.89,0.97-1.54
					c0-0.38,0-0.76,0-1.14c0-8.71-0.01-17.42,0.01-26.13c0-1-0.02-1.95-0.95-2.6c-0.05-0.03-0.06-0.12-0.07-0.19
					c-0.01-0.07,0.02-0.13,0.03-0.2c0.65-0.23,3.51-0.29,5.03-0.09c0.96,5.84,1.73,11.74,2.78,17.61c0-0.41,0-0.82,0-1.23
					c0-4.41,0-8.82,0-13.22c0-0.66-0.04-1.31-0.25-1.94c-0.13-0.38-0.59-0.48-0.71-0.85c0-0.21,0.09-0.39,0.28-0.4
					c1.34-0.11,2.67-0.04,3.94-0.05c0.18,0.36,0.13,0.56-0.04,0.71c-0.59,0.5-0.68,1.17-0.68,1.88c0.01,1.63,0,3.26,0,4.89
					c0,7.77,0,15.55,0,23.32C169.97,85.29,170.04,85.68,169.86,86.15z"/>
				<path fill="#FFFFFF" d="M75.05,86.07c-0.11-0.16-0.09-0.32-0.01-0.54c0.29-0.28,0.73-0.48,0.95-1.14c0-0.16,0-0.54,0-0.92
					c0-8.75-0.01-17.49,0.01-26.24c0-1.05-0.03-2.03-1.01-2.57c0-0.42,0.2-0.54,0.47-0.54c1.45-0.01,2.91,0,4.46,0
					c1,5.85,1.9,11.67,2.85,17.48c0.16-0.08,0.07-0.24,0.09-0.37c0.02-0.14,0.01-0.28,0.01-0.42c0-4.72,0-9.44,0-14.16
					c0-0.76-0.08-1.46-0.79-1.86c-0.08-0.21-0.08-0.37,0-0.54c0.27-0.2,3.13-0.21,4.09-0.01c0.16,0.29,0.05,0.52-0.16,0.74
					c-0.48,0.51-0.62,1.14-0.61,1.82c0.01,5.59,0.02,11.18,0.02,16.76c0,3.99-0.01,7.98-0.02,11.97c0,0.17-0.02,0.34-0.03,0.63
					c-1.07,0.05-2.12,0.03-3.25,0.01c-1.1-6.52-2.19-12.99-3.29-19.47c-0.03,0-0.06,0-0.08,0.01c0,6.03,0,12.06,0,18.08
					c0.15,0.5,1.01,0.55,0.8,1.24C78.82,86.23,76.04,86.25,75.05,86.07z"/>
				<path fill="#FFFFFF" d="M208.69,74.97c1.39-0.8,2.64-1.53,3.89-2.26c0.25,0.22,0.16,0.49,0.11,0.7
					c-0.39,1.6-0.42,3.22-0.42,4.85c0,1.32,0.03,2.64,0.01,3.95c-0.01,0.5,0.15,0.95,0.26,1.42c0.07,0.31,0.27,0.56,0.63,0.59
					c0.37-0.12,0.48-0.45,0.51-0.73c0.07-0.62,0.27-1.21,0.27-1.85c0-0.86,0.12-1.73,0.16-2.59c0.16-3.24-0.62-6.23-2.4-8.96
					c-0.78-1.19-1.52-2.39-2.14-3.68c-0.67-1.39-0.96-2.88-1.04-4.4c-0.06-1.28-0.02-2.57-0.02-3.85c0-0.81,0.23-1.57,0.48-2.32
					c0.22-0.65,0.7-1.12,1.27-1.47c1.62-0.98,3.67-0.9,5.12,0.34c0.41,0.35,0.71,0.76,0.85,1.27c0.15,0.56,0.28,1.14,0.39,1.71
					c0.15,0.8,0.13,4.52-0.01,5.45c-1.04,0.57-2.12,1.15-3.28,1.78c0-0.5-0.06-0.88,0.01-1.24c0.32-1.76,0.18-3.53,0.16-5.29
					c-0.01-0.55-0.12-1.1-0.25-1.63c-0.07-0.29-0.2-0.6-0.64-0.73c-0.28,0.12-0.48,0.34-0.54,0.72c-0.08,0.48-0.19,0.94-0.2,1.44
					c-0.03,2.01-0.03,4.01,0.59,5.96c0.54,1.7,1.44,3.22,2.4,4.7c1.02,1.58,1.88,3.21,2.32,5.06c0.43,1.83,0.62,3.67,0.57,5.55
					c-0.04,1.5-0.17,2.97-0.68,4.38c-0.4,1.11-0.99,2.09-2.17,2.5c-1.88,0.65-4.27,0.32-5.35-1.87c-0.32-0.66-0.56-1.34-0.7-2.05
					C208.38,79.96,208.41,77.48,208.69,74.97z"/>
				<path fill="#FFFFFF" d="M137.72,75.47c-0.41,0.12-0.67,0.15-0.99-0.03c-0.17-0.81-0.06-1.68-0.29-2.52
					c-0.19-0.67-0.37-1.33-0.71-1.94c-0.22-0.4-0.5-0.74-0.99-0.81c-0.26,0.2-0.16,0.46-0.16,0.68c-0.01,4.2,0.01,8.4-0.01,12.6
					c0,0.95,0.24,1.71,1.15,2.05c0.11,0.22,0.12,0.38,0.04,0.55c-0.24,0.2-5.13,0.22-6.29,0.03c-0.14-0.15-0.09-0.31-0.05-0.53
					c0.37-0.29,0.95-0.41,1.16-1.24c0-9.41,0-19.09,0-28.74c-0.21-0.57-0.75-0.59-1.13-0.74c-0.13-0.22-0.11-0.39-0.05-0.56
					c0.69-0.21,9.26-0.28,10.86-0.09c0,4.89,0.05,7.35,0.05,10.89c-0.08,0.02-0.18,0.08-0.27,0.08c-0.2,0-0.4-0.02-0.63-0.04
					c-0.3-1.71-0.58-3.37-1.11-4.98c-0.35-1.06-0.78-2.08-1.48-2.95c-0.55-0.69-1.26-1.03-2.2-0.95c0,3.62,0,7.17,0,10.74
					c0.73,0.13,1.09-0.3,1.37-0.78c0.41-0.69,0.6-1.46,0.63-2.27c0.02-0.51-0.05-1.04,0.11-1.51c0.26-0.26,0.53-0.2,0.83-0.14
					c0.04,0.08,0.12,0.17,0.12,0.26c0.01,1.35,0.02,2.71,0.02,4.06c0,2.6,0,5.21,0,7.81C137.72,74.74,137.72,75.08,137.72,75.47z"/>
				<path fill="#FFFFFF" d="M261.82,54.77c0.02-0.19,0.03-0.36,0.04-0.51c0.28-0.22,3.19-0.26,4.66-0.09
					c0.2,0.15,0.13,0.37,0.13,0.58c-0.16,0.35-0.6,0.47-0.79,0.98c-0.22,0.87,0.12,1.85,0.24,2.83c0.22,1.75,0.51,3.48,0.78,5.22
					c0.31,2.01,0.64,4.02,0.95,6.03c0.26,1.7,0.51,3.41,0.84,5.13c0.16-0.97,0.32-1.94,0.46-2.91c0.26-1.71,0.52-3.41,0.77-5.12
					c0.24-1.6,0.46-3.21,0.69-4.82c0.25-1.71,0.48-3.42,0.76-5.12c0.14-0.87,0.17-1.67-0.66-2.18c-0.09-0.26-0.04-0.45,0.15-0.67
					c1.3,0,2.64,0,3.95,0c0.27,0.22,0.15,0.46,0.18,0.74c-1.21,0.42-1.08,1.51-1.22,2.43c-0.3,1.98-0.55,3.97-0.81,5.95
					c-0.17,1.3-0.3,2.61-0.47,3.91c-0.17,1.3-0.38,2.6-0.55,3.9c-0.17,1.3-0.31,2.61-0.48,3.91c-0.17,1.3-0.36,2.6-0.54,3.9
					c-0.17,1.27-0.37,2.53-0.48,3.8c-0.06,0.65-0.36,1.28-0.19,1.95c0.1,0.4,0.4,0.62,0.71,0.79c0.15,0.23,0.07,0.43,0.07,0.6
					c-0.24,0.21-3.57,0.26-5.5,0.11c-0.22-0.14-0.17-0.35-0.14-0.59c0.19-0.3,0.65-0.37,0.83-0.96c0.07-0.76,0.05-1.72-0.1-2.69
					c-0.21-1.3-0.34-2.6-0.51-3.9c-0.18-1.33-0.36-2.67-0.54-4c-0.17-1.3-0.33-2.6-0.5-3.9c-0.18-1.33-0.36-2.67-0.54-4
					c-0.17-1.27-0.33-2.53-0.5-3.8c-0.18-1.37-0.34-2.74-0.56-4.1c-0.09-0.58-0.08-1.17-0.23-1.75
					C262.51,55.52,262.56,55.51,261.82,54.77z"/>
				<path fill="#FFFFFF" d="M147.8,54.16c1.2,0,2.33,0,3.45,0c0.08,0.13,2.05,28.77,2.09,29.74c0.03,0.7,0.26,1.03,0.99,1.6
					c0.03,0.2,0.09,0.4-0.09,0.64c-1.69,0-3.41,0-5.14,0c-0.2-0.14-0.17-0.35-0.14-0.63c0.96-0.47,1.11-1.35,0.98-2.34
					c-0.14-1.03-0.17-2.06-0.21-3.15c-0.6-0.13-1.16-0.07-1.8-0.05c0.01,1.65-0.4,3.21-0.22,4.76c0.17,0.38,0.46,0.57,0.71,0.71
					c0.09,0.27,0.11,0.47-0.08,0.7c-1.4,0-2.85,0-4.28,0c-0.26-0.2-0.1-0.45-0.16-0.69c0.4-0.21,0.77-0.41,1.02-0.88
					C145.23,83.2,147.31,58.16,147.8,54.16z M149.09,66.12c-0.02,0-0.04,0-0.05,0c-0.29,3.81-0.58,7.61-0.88,11.48
					c0.56,0.01,1.05,0.12,1.51-0.08C149.48,73.68,149.28,69.9,149.09,66.12z"/>
				<path fill="#FFFFFF" d="M52.84,85.46c0.07,0.28,0.09,0.45-0.05,0.67c-1.92,0-3.88,0-5.82,0c-0.2-0.2-0.13-0.4-0.1-0.67
					c0.94-0.24,1.21-0.94,1.21-1.87c-0.01-9.16-0.01-18.32-0.01-27.48c0-0.14,0-0.28,0-0.33c-0.21-0.66-0.68-0.85-1.16-0.92
					c-0.12-0.28-0.14-0.47,0.04-0.71c3.35,0,6.74,0,10.12,0c0,6,0.1,8.32,0.1,10.87c-0.06,0.04-0.11,0.1-0.17,0.11
					c-0.24,0.04-0.48,0.08-0.73-0.06c-0.41-0.7-0.3-1.53-0.46-2.29c-0.3-1.49-0.64-2.96-1.25-4.36c-0.23-0.51-0.51-0.99-0.87-1.41
					c-0.5-0.59-1.12-0.9-1.91-0.77c-0.16,0.82-0.19,9.61-0.03,10.74c0.62,0.11,1.03-0.18,1.37-0.67c0.58-0.83,0.68-1.8,0.77-2.76
					c0.04-0.4,0.01-0.82,0.01-1.15c0.36-0.26,0.63-0.19,0.93-0.15c0.04,0.08,0.12,0.17,0.12,0.26c0.02,0.69,0.02,1.39,0.02,2.08
					c0,3.26,0,6.52,0,9.79c0,0.34,0,0.69,0,1c-0.33,0.26-0.63,0.18-0.95,0.12c-0.04-0.09-0.1-0.18-0.11-0.27
					c-0.06-1.29-0.34-2.53-0.85-3.71c-0.25-0.59-0.51-1.22-1.25-1.37c-0.27,0.27-0.17,0.56-0.17,0.82c-0.01,4.06-0.01,8.12,0,12.18
					c0,0.35,0.02,0.68,0.11,1.03C51.93,84.78,52.19,85.27,52.84,85.46z"/>
				<path fill="#FFFFFF" d="M180.51,57.52c-0.78,1.21-1.12,2.55-1.45,3.88c-0.33,1.33-0.59,2.68-0.87,4
					c-0.35,0.25-0.69,0.12-1.09,0.14c-0.22-3.79,0.27-7.51,0.17-11.34c1.13-0.18,2.2-0.07,3.26-0.09c1.08-0.02,2.15,0,3.23,0
					c1.07,0,2.14,0,3.26,0c0.29,3.82,0.26,7.55,0.27,11.28c-0.38,0.28-0.75,0.16-1.18,0.13c-0.53-2.69-0.73-5.46-2.15-7.94
					c0,0.36,0,0.72,0,1.08c0,8.16,0,16.31,0,24.47c0,0.9-0.1,1.82,0.75,2.47c0.06,0.05,0.05,0.19,0.05,0.3
					c0,0.06-0.05,0.12-0.1,0.24c-1.59,0-3.21,0-4.82,0c-0.16-0.12-0.21-0.27-0.16-0.53c0.84-0.38,0.95-1.14,0.95-2.03
					c-0.02-8.37-0.01-16.73-0.02-25.1C180.6,58.17,180.67,57.86,180.51,57.52z"/>
				<path fill="#FFFFFF" d="M255.6,85.48c0,0.22,0,0.39,0,0.54c-0.25,0.23-4.14,0.27-5.47,0.07c-0.16-0.18-0.13-0.37-0.02-0.57
					c1.18-0.81,1.38-1.39,1.04-2.93c-0.35-1.61-0.69-3.23-1.07-5.05c-0.5,1.3-0.62,2.51-0.87,3.69c-0.25,1.17-0.71,2.33-0.39,3.57
					c0.1,0.49,0.97,0.56,0.65,1.36c-1.34,0.08-2.71,0.01-4.03,0.04c-0.27-0.18-0.24-0.39-0.2-0.67c0.49-0.35,1.04-0.73,1.19-1.42
					c0.08-0.37,0.15-0.74,0.21-1.12c0.62-3.39,1.2-6.79,1.86-10.17c0.33-1.69,0.28-3.33-0.08-5.01c-0.38-1.75-0.63-3.53-0.93-5.3
					c-0.35-2.04-0.7-4.08-1.05-6.12c-0.12-0.71-0.55-1.18-1.14-1.41c-0.16-0.3-0.17-0.53,0-0.81c1.69,0,3.42,0,5.16,0
					c0.22,0.16,0.18,0.4,0.11,0.71c-0.48,0.38-1.27,0.53-1.38,1.43c0.35,1.81,0.72,3.69,1.09,5.57c0.62-2.12,1.13-4.25,1.45-6.31
					c-0.43-0.81-0.43-0.81-0.33-1.38c0.66-0.15,1.35-0.05,2.04-0.07c0.69-0.02,1.37,0,1.94,0c0.31,0.27,0.2,0.48,0.24,0.69
					c-0.14,0.09-0.24,0.18-0.36,0.23c-0.81,0.3-1.16,0.94-1.3,1.73c-0.28,1.49-0.55,2.98-0.83,4.47c-0.46,2.44-0.9,4.88-1.39,7.31
					c-0.21,1.06,0.06,2.06,0.23,3.08c0.31,1.84,0.64,3.67,0.96,5.5c0.36,2.07,0.7,4.15,1.09,6.21
					C254.19,84.29,254.72,85.05,255.6,85.48z"/>
				<path fill="#FFFFFF" d="M116.19,86.15c-3.25,0-6.44,0-9.6,0c-0.24-0.17-0.17-0.38-0.15-0.64c0.72-0.52,1.03-1.29,1.03-2.21
					c0-8.92,0-17.85,0-26.77c0-0.14-0.02-0.28-0.02-0.36c-0.23-0.57-0.69-0.83-1.11-1.12c-0.12-0.28-0.12-0.54,0.04-0.78
					c0.24-0.22,4.06-0.27,5.59-0.08c0.19,0.24,0.11,0.51,0.08,0.85c-0.89,0.49-0.99,1.33-0.99,2.29c0.02,8.54,0.01,17.08,0.01,25.63
					c0,0.34,0,0.68,0,1.1c0.87-0.18,1.31-0.74,1.68-1.36c0.81-1.35,1.22-2.85,1.6-4.36c0.42-1.71,0.7-3.44,0.9-5.16
					c0.31-0.26,0.6-0.2,0.88-0.11C116.33,73.28,116.37,84.49,116.19,86.15z"/>
				<path fill="#FFFFFF" d="M68.16,85.44c0.11,0.26,0.14,0.42,0.06,0.6c-0.21,0.2-3.87,0.25-5.44,0.06
					c-0.18-0.17-0.12-0.37-0.1-0.63c0.36-0.25,0.81-0.47,1.04-1.1c0-0.13,0-0.41,0-0.69c0-8.92,0-17.83,0.01-26.75
					c0-0.92-0.17-1.72-1.01-2.17c-0.07-0.23-0.08-0.4,0.03-0.58c0.07-0.03,0.17-0.09,0.26-0.09c1.53-0.01,3.05-0.01,4.58-0.01
					c0.28,0,0.58-0.03,0.67,0.37c-0.01,0.04,0.01,0.14-0.03,0.17c-0.8,0.6-0.95,1.42-0.95,2.38c0.02,8.88,0.02,17.76,0,26.64
					C67.26,84.47,67.33,85.18,68.16,85.44z"/>
				<path fill="#FFFFFF" d="M256.27,54.89c-0.05-0.31-0.06-0.48,0.04-0.65c0.27-0.22,3.82-0.24,4.92-0.03
					c0.16,0.11,0.21,0.27,0.16,0.54c-0.83,0.58-0.98,1.49-0.98,2.51c0.02,8.74,0.01,17.49,0.01,26.23c0,0.07,0.01,0.14,0,0.21
					c-0.08,0.83,0.11,1.52,0.96,1.77c0.07,0.24,0.08,0.4-0.01,0.57c-0.21,0.2-3.62,0.24-5.06,0.05c-0.03-0.08-0.07-0.17-0.08-0.27
					c-0.01-0.1,0.02-0.2,0.03-0.33c0.35-0.26,0.76-0.47,1.01-1.04c0-0.18,0-0.49,0-0.8c0-8.85-0.01-17.7,0.01-26.55
					C257.29,56.18,257.11,55.4,256.27,54.89z"/>
				<path fill="#FFFFFF" d="M189.86,97.17c0-2.43,0-4.8,0-7.17c0.81-0.19,9.14-0.22,10.22-0.04c0.15,0.39,0.12,0.79,0,1.3
					c-0.9,0.17-1.83,0.06-2.75,0.08c-0.9,0.02-1.8,0-2.71,0c-0.94,0-1.87,0-2.81,0c-0.27,0.45-0.13,0.9-0.14,1.39
					c0.87,0.18,1.73,0.06,2.59,0.08c0.87,0.02,1.73,0,2.6,0c0.86,0,1.71,0,2.49,0c0.24,0.34,0.16,0.59,0.17,0.82
					c0.01,0.17-0.01,0.35-0.22,0.6c-1.17,0.08-2.44,0.02-3.72,0.03c-1.27,0.01-2.55,0-3.88,0c0,0.5,0,0.9,0,1.37
					c0.64,0.21,1.33,0.07,2.01,0.1c0.73,0.02,1.46,0.01,2.19,0.01c0.69,0,1.39,0,2.08,0c0.69,0,1.37,0,1.98,0
					c0.28,0.3,0.2,0.55,0.2,0.78c0,0.2-0.03,0.4-0.05,0.64C196.68,97.17,193.3,97.17,189.86,97.17z"/>
				<path fill="#FFFFFF" d="M128.94,97.26c-0.69,0-1.39,0.02-2.08,0c-2.99-0.11-3.84-2.66-3.45-4.59c0.43-2.1,2.02-2.86,3.52-2.94
					c1.42-0.07,2.84-0.07,4.26,0c1.39,0.07,2.57,0.65,3.19,1.97c0.66,1.41,0.6,2.84-0.28,4.15c-0.59,0.89-1.52,1.31-2.56,1.38
					c-0.86,0.06-1.73,0.01-2.59,0.01C128.94,97.25,128.94,97.25,128.94,97.26z M128.82,91.19c-0.55,0.05-1.31-0.11-2.06,0.13
					c-1.13,0.36-1.62,1.06-1.58,2.35c0.03,1.17,0.57,1.87,1.74,2.1c1.4,0.27,2.81,0.24,4.22,0.01c0.14-0.02,0.28-0.04,0.41-0.08
					c0.62-0.23,1.13-0.63,1.27-1.27c0.38-1.63-0.04-3.03-2.13-3.23C130.14,91.15,129.58,91.19,128.82,91.19z"/>
				<path fill="#FFFFFF" d="M149.54,97.19c-0.67,0-1.25,0-1.94,0c-2.19-1.73-4.44-3.51-6.81-5.38c0,1.83,0,3.55,0,5.3
					c-0.62,0.19-1.16,0.1-1.7,0.09c-0.21-0.71-0.26-6.07-0.07-7.39c1.06-0.11,2.02-0.16,2.96,0.68c1.6,1.43,3.34,2.7,5.03,4.03
					c0.24,0.19,0.47,0.41,0.87,0.52c0-1.72,0-3.4,0-5.13c0.59-0.09,1.09-0.09,1.65,0C149.54,92.34,149.54,94.71,149.54,97.19z"/>
				<path fill="#FFFFFF" d="M176.49,91.74c0,1.03,0,1.89,0,2.76c0,0.86,0,1.73,0,2.61c-0.55,0.22-1.07,0.11-1.57,0.11
					c-0.22-0.71-0.27-6.15-0.07-7.39c0.6-0.13,1.22-0.04,1.95-0.06c2.19,1.73,4.45,3.51,6.85,5.4c0.07-1.82,0-3.48,0.05-5.08
					c0.28-0.3,0.58-0.2,0.84-0.22c0.24-0.02,0.48,0,0.71,0c0.21,0.76,0.25,6,0.07,7.32c-0.6,0-1.22,0-1.93,0
					C181.18,95.43,178.9,93.63,176.49,91.74z"/>
				<path fill="#FFFFFF" d="M154.36,89.92c0.56-0.09,1.06-0.08,1.66,0c0,1.92,0,3.82,0,5.79c2.57,0,5.06,0,7.52,0
					c0.29,0.5,0.16,0.94,0.15,1.48c-3.11,0.06-6.17,0.02-9.22,0.03C154.25,96.42,154.19,91.91,154.36,89.92z"/>
				<path fill="#FFFFFF" d="M268.99,50.64c0.02,0.3,0.44,0.21,0.45,0.57c-0.55,0.22-1.09,0.21-1.71-0.04
					c1.15-0.83,1.23-2.16,1.89-3.22c-0.67-1.26-1.84-3.85-1.84-3.85l1.93-0.11c0,0-0.24,0.35-0.27,0.7
					c0.08,0.55,0.45,1.14,0.67,1.91c0.4-0.69,0.67-1.31,0.81-1.91c-0.03-0.36-0.46-0.66-0.46-0.66l1.57,0.02c0,0-1.17,1.94-1.73,3
					c0.61,1.33,0.8,2.87,1.82,4.06c-0.51,0.29-0.86,0.32-1.86,0.1c-0.07-0.17,0.05-0.24,0.14-0.34c0.07-0.07,0.11-0.17,0.17-0.28
					c-0.25-0.67-0.5-1.35-0.76-2.05C269.16,49.42,269.01,49.8,268.99,50.64z"/>
				<path fill="#FFFFFF" d="M168.33,97.17c0-2.42,0-4.79,0-7.21c0.51-0.18,1.02-0.09,1.51-0.07c0.23,0.7,0.3,5.39,0.11,7.24
					C169.44,97.3,168.91,97.24,168.33,97.17z"/>
				<path fill="#FFFFFF" d="M247.7,47.22c-0.55,0.41-1.1,0.82-1.65,1.23c0.59-1.06,1.43-1.95,1.83-3.12
					c0.12-0.23-0.18-0.42-0.11-0.66c0.39-0.35,0.99,0.02,1.34,0.82c0.6,0.21,1.05-0.17,1.51-0.4c0.59,0.02,0.9,0.34,1.12,0.91
					c-0.74,0.58-1.26,1.35-1.76,2.14c0.1,0.53,0.59,0.88,0.57,1.45c-0.09,0.28-0.29,0.43-0.6,0.36c-0.4-0.13-0.36-0.59-0.74-0.85
					c-1.03,0.82-2.01,1.82-3.66,2.04c1.28-0.85,2.37-1.64,3.16-2.81c-0.34-0.38-0.68-0.76-1.03-1.14c0.51,0.19,1.03,0.39,1.57,0.59
					c0.43-0.52,0.75-1.08,0.95-1.74c-0.48-0.16-0.92-0.07-1.4-0.07C248.43,46.39,248.07,46.8,247.7,47.22z"/>
				<path fill="#FFFFFF" d="M196.48,46.52c-0.53-0.27-1.18-0.44-1.07-1.35c0.86,0.18,1.66,0.11,2.48,0.01
					c0.82-0.1,1.65-0.13,2.43-0.42c0.48,0.21,0.86,0.5,1.13,0.97c-0.86,1.44-1.68,2.92-3.13,3.92c-0.71,0.49-1.46,0.9-2.34,1.05
					c1.61-1.34,3.2-2.68,3.87-4.92C198.58,45.7,197.51,45.95,196.48,46.52z"/>
				<path fill="#FFFFFF" d="M231.58,45.95c-1.24,0.03-2.31,0.15-3.3,0.74c-0.96-0.37-0.99-0.4-1.18-1.26
					c1.69,0.16,3.34-0.07,5.04-0.46c0.38,0.19,0.72,0.52,1.05,0.88c-1.03,1.86-2.12,3.56-4.02,4.55c-0.45,0.23-0.89,0.49-1.55,0.5
					C229.31,49.5,230.96,48.21,231.58,45.95z"/>
				<path fill="#FFFFFF" d="M215.01,44.33c0.78-0.27,0.89-0.25,1.67,0.35c-0.03,0.52-0.45,1.01-0.18,1.63
					c0.55,0.18,1.12,0.08,1.69-0.12c0.33,0.04,0.67,0.11,0.93,0.33c0.13,0.23,0.14,0.41-0.12,0.63c-0.82-0.06-1.7-0.21-2.56-0.03
					c-0.65,2.54-1.12,3.2-2.8,4.03c0.03-0.43,0.43-0.56,0.62-0.84c0.21-0.32,0.47-0.61,0.65-0.94c0.16-0.3,0.23-0.65,0.36-0.97
					c0.15-0.36,0.15-0.73,0.1-1.13c-0.76-0.14-1.4,0.24-2.12,0.3c-0.44-0.12-0.85-0.33-0.98-0.93c1.03-0.13,2.03,0.05,3.09-0.13
					C215.36,45.78,215.66,45.04,215.01,44.33z"/>
				<path fill="#FFFFFF" d="M273.77,44.03l0.88-0.06c0,0,0.32,2.63,0.56,3.95c0.27-1.29,0.63-3.86,0.63-3.86l0.73-0.07l-0.98,7.24
					l-1-0.02c0,0-0.18-2.39-0.32-3.59C274.12,46.42,273.77,44.03,273.77,44.03z"/>
				<path fill="#FFFFFF" d="M210.17,45.36c0.13-0.47-0.07-0.82,0.08-1.14c0.88-0.03,0.94-0.01,1.55,0.83
					c-0.43,0.51-0.86,1.03-1.3,1.56c0.02,0.27,0.15,0.51,0.15,0.79c-0.02,1-0.05,2,0.15,3c0.09,0.45,0.07,0.91-0.43,1.16
					c-0.49-0.01-0.59-0.4-0.74-0.72c0.05-0.32,0.12-0.63,0.13-0.93c0.02-0.79,0.01-1.58,0.01-2.45c-0.92,0.63-1.67,1.36-2.74,1.58
					C208.19,47.89,209.32,46.72,210.17,45.36z"/>
				<path fill="#FFFFFF" d="M240.01,83.77c0,1.39-1.08,2.5-2.46,2.54c-1.37,0.04-2.58-1.17-2.57-2.58c0.01-1.34,1.17-2.53,2.5-2.55
					C238.85,81.16,240.01,82.35,240.01,83.77z M238.74,85.12c0.69-0.25,0.6-0.92,0.76-1.42c-0.48-1.8-1.74-2.4-3.05-1.48
					c-0.91,0.41-0.94,1.21-0.81,2.01c0.13,0.74,0.65,1.19,1.37,1.4C237.7,85.84,238.3,85.74,238.74,85.12z"/>
				<path fill="#FFFFFF" d="M204.59,46.87c0.49-0.16,0.76,0.2,1.12,0.28c0.28-0.14,0.3-0.45,0.48-0.73
					c-1.15-0.18-2.14,0.33-3.18,0.48c-0.47-0.4-0.47-0.4-0.59-1.05c1.53,0.31,3-0.03,4.48-0.3c0.33,0.27,0.56,0.6,0.63,0.96
					c-0.09,0.34-0.34,0.28-0.52,0.35c-0.76,0.29-1.38,0.69-1.73,1.51c-0.38,0.89-0.91,1.71-1.63,2.39
					c-0.24,0.23-0.47,0.49-0.96,0.62C203.73,49.97,204.61,48.63,204.59,46.87z"/>
				<path fill="#FFFFFF" d="M238.46,45.73c0.32,0.32,0.61,0.6,0.73,1.11c-0.66,0.21-1.27,0.51-1.91,0.92
					c-0.75,1.32-1.31,2.9-2.82,3.77c-0.12-0.3,0.11-0.41,0.23-0.56c0.61-0.81,1.06-1.7,1.35-2.67c0.12-0.4,0.32-0.78-0.04-1.13
					c0.59-0.4,0.92,0.12,1.33,0.19c0.19-0.21,0.34-0.44,0.36-0.71c-0.05-0.05-0.1-0.14-0.14-0.14c-1,0.1-1.97,0.35-2.9,0.58
					c-0.45-0.23-0.73-0.49-0.67-1.04C235.49,46.36,236.93,46.03,238.46,45.73z"/>
				<path fill="#FFFFFF" d="M223.21,50.27c-0.38-0.13-0.7-0.36-0.9-0.77c0.23-1.28,0.25-2.56-0.17-3.83
					c0.78-0.17,0.78-0.17,1.43,0.31c-0.04,0.9-0.37,1.8-0.18,2.81c1.06-0.58,1.87-1.41,2.7-2.2c0.29,0.23,0.04,0.39-0.05,0.53
					c-0.43,0.71-0.94,1.36-1.55,1.94C224.07,49.45,223.65,49.85,223.21,50.27z"/>
				<path fill="#FFFFFF" d="M259.73,48.76c-0.54-0.5-0.85-0.92-0.52-1.5c0.4-0.17,0.48,0.26,0.75,0.32
					c1.72,0.05,3.45,0.08,5.18-0.04c0.73-0.05,0.86,0,1.3,0.54c-0.1,0.47-0.47,0.42-0.81,0.42c-1.14,0.01-2.28,0.02-3.42,0
					C261.36,48.48,260.54,48.54,259.73,48.76z"/>
				<path fill="#FFFFFF" d="M241.19,50.81c-0.78-0.33-1.34-0.73-1.43-1.64c0.36-0.06,0.55,0.3,0.94,0.28
					c2.01-0.75,3.58-2.28,5.21-3.72c0.25,0.25,0.03,0.41-0.08,0.55c-0.74,1.01-1.54,1.97-2.51,2.76
					C242.63,49.62,241.94,50.2,241.19,50.81z"/>
				<path fill="#FFFFFF" d="M258.26,46.66c-0.73,1.44-3.09,3.56-5.17,4.74c-0.58-0.38-0.86-0.91-0.81-1.63
					c0.38-0.08,0.63,0.26,0.96,0.15C255,48.98,256.69,47.93,258.26,46.66z"/>
				<polygon fill="#FFFFFF" points="272.49,44.05 273.44,43.98 273.38,47.57 273.47,51.23 272.54,51.28 				"/>
				<path fill="#FFFFFF" d="M220.45,45.87c0.74-0.02,0.74-0.02,1.37,0.68c-0.62,1.57-1.29,3.11-3.01,3.91
					c0.13-0.17,0.27-0.33,0.39-0.52c0.33-0.53,0.68-1.05,0.95-1.61C220.65,47.31,220.66,46.98,220.45,45.87z"/>
				<path fill="#FFFFFF" d="M242.17,46.8c-0.21,0.23-0.47,0.23-0.8,0.14c-0.34-0.54-0.72-1.09-1.27-1.6
					C241.71,45.23,242.34,45.7,242.17,46.8z"/>
				<path fill="#FFFFFF" d="M253.34,48.47c-0.39-0.43-0.77-0.85-1.22-1.35c0.42-0.21,0.81-0.14,1.17-0.13
					c0.44,0.17,0.71,0.46,0.82,0.9C254.07,48.36,253.84,48.58,253.34,48.47z"/>
				<path fill="#FFFFFF" d="M254.81,46.84c-0.82-0.1-1.01-1-1.81-1.31c0.77-0.38,1.33-0.26,1.82,0.17
					C255.15,45.98,255.14,46.18,254.81,46.84z"/>
				<path fill="#FFFFFF" d="M256.21,44.73c1.17,0.01,1.26,0.07,1.6,0.96c-0.09,0.24-0.23,0.42-0.56,0.42
					C256.82,45.78,256.66,45.23,256.21,44.73z"/>
				<path fill="#FFFFFF" d="M257.07,43.92c0.81-0.15,1.37-0.01,1.64,0.71c0,0.23-0.1,0.35-0.27,0.46c-0.09-0.02-0.21,0-0.27-0.06
					C257.81,44.69,257.47,44.33,257.07,43.92z"/>
				<path fill="#FFFFFF" d="M236.44,82.2c0.38,0,0.76,0,1.14-0.01c0.37-0.01,0.67,0.11,0.9,0.39c0.2,0.43,0.06,0.81-0.15,1.18
					c0.34,0.41,0.1,0.98,0.42,1.38c-0.23,0.01-0.47,0.11-0.7-0.04c-0.26-0.24-0.08-0.6-0.24-0.89c-0.15-0.17-0.34-0.29-0.61-0.22
					c-0.25,0.32,0.02,0.75-0.19,1.05c-0.13,0.14-0.26,0.11-0.48,0.05C236.35,84.16,236.5,83.18,236.44,82.2z M237.94,82.92
					c-0.22-0.04-0.35-0.07-0.47-0.09c-0.14-0.01-0.26,0.02-0.35,0.16c0.01,0.11-0.05,0.25,0.11,0.39
					C237.51,83.46,237.75,83.39,237.94,82.92z"/>
				<path fill="#FFFFFF" d="M195.71,54.16c1.2,0,2.33,0,3.45,0c0.08,0.13,2.05,28.77,2.09,29.74c0.03,0.7,0.26,1.03,0.99,1.6
					c0.03,0.2,0.09,0.4-0.09,0.64c-1.69,0-3.41,0-5.14,0c-0.2-0.14-0.17-0.35-0.14-0.63c0.96-0.47,1.11-1.35,0.98-2.34
					c-0.14-1.03-0.17-2.06-0.21-3.15c-0.6-0.13-1.16-0.07-1.8-0.05c0.01,1.65-0.4,3.21-0.22,4.76c0.17,0.38,0.46,0.57,0.71,0.71
					c0.09,0.27,0.11,0.47-0.08,0.7c-1.4,0-2.85,0-4.28,0c-0.26-0.2-0.1-0.45-0.16-0.69c0.4-0.21,0.77-0.41,1.02-0.88
					C193.15,83.2,195.23,58.16,195.71,54.16z M197.01,66.12c-0.02,0-0.04,0-0.05,0c-0.29,3.81-0.58,7.61-0.88,11.48
					c0.56,0.01,1.05,0.12,1.51-0.08C197.39,73.68,197.2,69.9,197.01,66.12z"/>
			</g>
		</g>
	</g>
</g>
<g>
	
		<image overflow="visible" opacity="0.7" width="92" height="29" xlink:href="B7A258862253D67C.png"  transform="matrix(1 0 0 1 511.3676 45.3297)">
	</image>
	<g>
		
			<image overflow="visible" opacity="0.6" width="80" height="18" xlink:href="B7A258862253D674.png"  transform="matrix(1 0 0 1 516.9676 50.9297)">
		</image>
		<g>
			<g>
				<path d="M524.48,59.8c1.08,0.26,1.95,1.14,1.95,2.44c0,1.66-1.38,3-3.72,3c-1.08,0-2.03-0.26-2.54-0.57l0.48-1.73
					c0.38,0.23,1.16,0.51,1.86,0.51c1.01,0,1.59-0.58,1.59-1.33c0-0.99-0.88-1.43-1.83-1.43h-0.65v-1.6h0.58
					c0.73,0,1.62-0.35,1.62-1.18c0-0.6-0.43-1.03-1.25-1.03c-0.64,0-1.27,0.26-1.65,0.48l-0.44-1.64c0.52-0.33,1.57-0.65,2.65-0.65
					c1.95,0,2.99,1.12,2.99,2.44c0,1.01-0.61,1.83-1.65,2.25V59.8z"/>
				<path d="M527.79,60.19c0-2.78,1.03-5.11,3.39-5.11c2.55,0,3.31,2.59,3.31,5.04c0,3.22-1.25,5.12-3.35,5.12
					C528.63,65.25,527.79,62.68,527.79,60.19z M532.22,60.17c0-2.12-0.33-3.26-1.04-3.26c-0.68,0-1.09,1.01-1.09,3.26
					s0.38,3.26,1.09,3.26C531.72,63.43,532.22,62.86,532.22,60.17z"/>
				<path d="M537.08,55.03h8.38V65.6h-1.88v-0.79h-4.7v0.79h-1.8V55.03z M543.58,56.79h-4.7v2.24h4.7V56.79z M538.88,63.05h4.7
					v-2.29h-4.7V63.05z"/>
				<path d="M554.59,59.52v0.49c0.6,0.43,1.73,1.36,2.02,1.61l-0.98,1.51c-0.26-0.35-0.65-0.79-1.03-1.21v3.83h-1.7v-3.77
					c-0.46,0.9-0.98,1.74-1.54,2.34c-0.17-0.52-0.59-1.26-0.88-1.73c0.79-0.77,1.56-1.97,2.06-3.07h-1.78v-1.61h2.12v-1.16
					c-0.59,0.14-1.17,0.26-1.75,0.36c-0.08-0.38-0.34-0.98-0.53-1.33c1.63-0.32,3.37-0.85,4.46-1.43l1.43,1.31
					c-0.07,0.07-0.17,0.07-0.36,0.07c-0.44,0.2-0.97,0.4-1.55,0.56v1.62h1.96v1.61H554.59z M559.08,55.94
					c-0.01,0.13-0.11,0.22-0.35,0.25v6.5h-1.69v-6.86L559.08,55.94z M559.81,54.61l2.09,0.1c-0.01,0.13-0.1,0.23-0.36,0.26v8.73
					c0,1.62-0.47,2.06-3.26,2.06c-0.07-0.5-0.35-1.32-0.6-1.81c0.76,0.04,1.55,0.04,1.81,0.04c0.23,0,0.32-0.07,0.32-0.3V54.61z"/>
				<path d="M573.42,55.13v8.66c0,1.55-0.6,1.91-3.07,1.88c-0.06-0.47-0.32-1.22-0.55-1.67c0.4,0.04,0.86,0.04,1.21,0.04
					c0.6,0,0.67,0,0.67-0.28v-1.44h-2.23v3.21h-1.7v-3.21h-2.12c-0.23,1.31-0.68,2.59-1.52,3.5c-0.28-0.34-1-0.92-1.38-1.14
					c1.31-1.43,1.4-3.59,1.4-5.28v-4.28H573.42z M565.85,59.52c0,0.36-0.01,0.75-0.04,1.16h1.93v-1.16H565.85z M567.75,56.79h-1.9
					v1.12h1.9V56.79z M571.68,57.9v-1.12h-2.23v1.12H571.68z M569.45,60.69h2.23v-1.16h-2.23V60.69z"/>
				<path d="M586.08,60.12h-1.76c0.56,0.55,1.24,1.01,2,1.33c-0.38,0.32-0.9,0.98-1.15,1.43c-0.43-0.2-0.83-0.46-1.19-0.73
					c-0.23,3.17-0.46,3.62-2.6,3.62c-0.18,0-0.37,0-0.56-0.01c-0.04-0.5-0.23-1.19-0.5-1.63c0.46,0.05,0.91,0.06,1.14,0.06
					c0.18,0,0.3-0.02,0.42-0.14c0.13-0.13,0.24-0.56,0.31-1.46h-1.54c-0.34,1.4-1.01,2.54-3.74,3.21c-0.16-0.44-0.6-1.14-0.95-1.49
					c1.91-0.37,2.58-0.94,2.85-1.73h-1.61v-0.56c-0.41,0.3-0.85,0.58-1.33,0.82c-0.23-0.41-0.77-1.05-1.08-1.4
					c0.76-0.33,1.4-0.79,1.96-1.31h-1.68v-1.57h2.91c0.14-0.24,0.28-0.48,0.4-0.73h-2.45V56.3h1.08c-0.14-0.42-0.4-0.94-0.62-1.34
					l1.44-0.52c0.34,0.5,0.68,1.18,0.83,1.63l-0.62,0.23h0.95c0.2-0.65,0.36-1.32,0.47-1.98l2.09,0.42
					c-0.04,0.12-0.16,0.2-0.36,0.22c-0.1,0.44-0.22,0.9-0.33,1.34h1.68l-0.43-0.17c0.3-0.48,0.65-1.21,0.83-1.76l1.87,0.66
					c-0.05,0.1-0.18,0.14-0.36,0.14c-0.16,0.34-0.4,0.75-0.62,1.13h1.54v1.52h-2.59c0.11,0.25,0.23,0.49,0.37,0.73h2.96V60.12z
					 M582.79,61.01c-0.24-0.28-0.46-0.58-0.66-0.89h-3.08c-0.22,0.31-0.47,0.61-0.73,0.9h4.38L582.79,61.01z M581.32,58.55
					c-0.11-0.24-0.2-0.48-0.3-0.73h-0.71l-0.32,0.73H581.32z"/>
				<path d="M591,65.16h-1.37l3-9.96H594L591,65.16z"/>
			</g>
		</g>
	</g>
</g>
<g>
	
		<image overflow="visible" opacity="0.7" width="91" height="39" xlink:href="B7A258862253D669.png"  transform="matrix(1 0 0 1 590.3676 38.3297)">
	</image>
	<g>
		
			<image overflow="visible" opacity="0.6" width="80" height="27" xlink:href="B7A258862253D66A.png"  transform="matrix(1 0 0 1 595.9676 43.9297)">
		</image>
		<g>
			<g>
				<path d="M603.74,65.42v-3.49h-4.45v-2.57h4.45v-0.75l-0.44-0.95h-3.98l-0.03-2.57h3.21l-3.29-7.45h4.11l2.62,7.73H606l2.7-7.73
					h4.03l-3.26,7.45h2.67v2.57h-3.98l-0.44,0.95v0.75h4.42v2.57h-4.42v3.49H603.74z"/>
				<path d="M614.58,50.24c1.59-0.67,3.11-1.57,4.47-2.59h3.6v17.78h-3.85V51.5c-1.31,0.92-2.72,1.7-4.21,2.29V50.24z"/>
				<path d="M625.81,62.01h3.8l-3.06,6.3h-2.65L625.81,62.01z"/>
				<path d="M639.85,51.93c-0.03-0.75-0.26-1.29-0.59-1.62c-0.36-0.33-0.85-0.49-1.46-0.49c-2.31,0-2.52,3.8-2.52,5.37
					c0.9-0.98,2.03-1.31,3.34-1.31c3.31,0,5.47,2.29,5.47,5.5c0,1.85-0.59,3.37-1.44,4.32c-0.93,1.05-2.98,2.11-5.17,2.11
					c-4.19,0-6.19-2.6-6.19-7.76c0-5.04,0.72-10.79,6.96-10.79c2.9,0,5.42,1.57,5.4,4.68H639.85z M637.69,56.46
					c-1.67,0-2.42,1.9-2.42,3.31c0,1.46,0.62,3.47,2.42,3.47c1.77,0,2.42-1.95,2.42-3.47C640.1,58.2,639.51,56.46,637.69,56.46z"/>
				<path d="M645.52,61.8c1.62-1.77,8.61-6.96,8.61-9.64c0-1.29-0.9-2.34-2.18-2.34c-1.44,0-2.24,1.44-2.24,2.75h-3.93
					c-0.13-3.67,2.77-5.32,6.09-5.32c3.11,0,6.12,1.46,6.12,4.99c0,4.39-6.09,7.76-8.61,10.61h0.05h8.68v2.57h-12.59V61.8z"/>
				<path d="M663.48,55.99c-2.13-0.57-3.44-1.77-3.44-4.06c0-2.93,3.31-4.68,6.19-4.68c2.85,0,6.14,1.31,6.14,4.68
					c0,2.06-1.59,3.75-3.52,4.03v-0.03v0.05c2.24,0.51,3.78,2.21,3.78,4.52c0,3.29-3.26,5.29-6.4,5.29c-3.21,0-6.45-1.67-6.45-5.29
					c0-2.34,1.72-3.93,3.7-4.47V55.99z M666.41,54.55c1.29,0,2.36-0.9,2.36-2.34c0-1.44-1.08-2.39-2.72-2.39
					c-1.29,0-2.42,0.95-2.42,2.39C663.64,53.65,664.77,54.55,666.41,54.55z M666.29,63.24c1.41,0,2.49-1.18,2.49-2.8
					c0-1.62-0.98-2.8-2.57-2.8c-1.39,0-2.57,1.08-2.57,2.8C663.64,62.03,664.59,63.24,666.29,63.24z"/>
			</g>
		</g>
	</g>
</g>
</svg>
