<?xml version="1.0" encoding="utf-8"?>
<!-- Generator: Adobe Illustrator 23.0.3, SVG Export Plug-In . SVG Version: 6.00 Build 0)  -->
<svg version="1.1" id="レイヤー_1" xmlns="http://www.w3.org/2000/svg" xmlns:xlink="http://www.w3.org/1999/xlink" x="0px"
	 y="0px" width="836px" height="825.62px" viewBox="0 0 836 825.62" enable-background="new 0 0 836 825.62" xml:space="preserve">
<g>
	<path d="M41.07,817.75c-0.32,0.16-0.96,0.32-1.78,0.32c-1.9,0-3.33-1.2-3.33-3.41c0-2.11,1.43-3.54,3.52-3.54
		c0.84,0,1.37,0.18,1.6,0.3l-0.21,0.71c-0.33-0.16-0.8-0.28-1.36-0.28c-1.58,0-2.63,1.01-2.63,2.78c0,1.65,0.95,2.71,2.59,2.71
		c0.53,0,1.07-0.11,1.42-0.28L41.07,817.75z"/>
	<path d="M46.9,815.51c0,1.79-1.24,2.57-2.41,2.57c-1.31,0-2.32-0.96-2.32-2.49c0-1.62,1.06-2.57,2.4-2.57
		C45.96,813.02,46.9,814.03,46.9,815.51z M43.06,815.56c0,1.06,0.61,1.86,1.47,1.86c0.84,0,1.47-0.79,1.47-1.88
		c0-0.82-0.41-1.86-1.45-1.86C43.51,813.68,43.06,814.64,43.06,815.56z"/>
	<path d="M48.51,814.71c0-0.62-0.02-1.12-0.04-1.58h0.79l0.04,0.83h0.02c0.36-0.59,0.93-0.94,1.72-0.94c1.17,0,2.05,0.99,2.05,2.46
		c0,1.74-1.06,2.6-2.2,2.6c-0.64,0-1.2-0.28-1.49-0.76h-0.02v2.63h-0.87V814.71z M49.38,816c0,0.13,0.02,0.25,0.04,0.36
		c0.16,0.61,0.69,1.03,1.32,1.03c0.93,0,1.47-0.76,1.47-1.87c0-0.97-0.51-1.8-1.44-1.8c-0.6,0-1.16,0.43-1.33,1.09
		c-0.03,0.11-0.06,0.24-0.06,0.36V816z"/>
	<path d="M54.95,813.13l1.06,2.86c0.11,0.32,0.23,0.7,0.31,0.99h0.02c0.09-0.29,0.19-0.66,0.31-1.01l0.96-2.84h0.93l-1.32,3.45
		c-0.63,1.66-1.06,2.51-1.66,3.03c-0.43,0.38-0.86,0.53-1.08,0.57l-0.22-0.74c0.22-0.07,0.51-0.21,0.77-0.43
		c0.24-0.19,0.54-0.53,0.74-0.98c0.04-0.09,0.07-0.16,0.07-0.21s-0.02-0.12-0.06-0.23l-1.79-4.46H54.95z"/>
	<path d="M59.84,814.64c0-0.57-0.01-1.06-0.04-1.51h0.77l0.03,0.95h0.04c0.22-0.65,0.75-1.06,1.34-1.06c0.1,0,0.17,0.01,0.25,0.03
		v0.83c-0.09-0.02-0.18-0.03-0.3-0.03c-0.62,0-1.06,0.47-1.18,1.13c-0.02,0.12-0.04,0.26-0.04,0.41v2.58h-0.87V814.64z"/>
	<path d="M64.63,811.78c0.01,0.3-0.21,0.54-0.56,0.54c-0.31,0-0.53-0.24-0.53-0.54c0-0.31,0.23-0.55,0.55-0.55
		C64.42,811.23,64.63,811.47,64.63,811.78z M63.65,817.97v-4.84h0.88v4.84H63.65z"/>
	<path d="M70.66,813.13c-0.02,0.35-0.04,0.74-0.04,1.33v2.81c0,1.11-0.22,1.79-0.69,2.21c-0.47,0.44-1.15,0.58-1.76,0.58
		c-0.58,0-1.22-0.14-1.61-0.4l0.22-0.67c0.32,0.2,0.82,0.38,1.42,0.38c0.9,0,1.56-0.47,1.56-1.69v-0.54h-0.02
		c-0.27,0.45-0.79,0.81-1.54,0.81c-1.2,0-2.06-1.02-2.06-2.36c0-1.64,1.07-2.57,2.18-2.57c0.84,0,1.3,0.44,1.51,0.84h0.02l0.04-0.73
		H70.66z M69.75,815.04c0-0.15-0.01-0.28-0.05-0.4c-0.16-0.51-0.59-0.93-1.23-0.93c-0.84,0-1.44,0.71-1.44,1.83
		c0,0.95,0.48,1.74,1.43,1.74c0.54,0,1.03-0.34,1.22-0.9c0.05-0.15,0.07-0.32,0.07-0.47V815.04z"/>
	<path d="M72.58,810.88h0.88v3.02h0.02c0.14-0.25,0.36-0.47,0.63-0.62c0.26-0.15,0.57-0.25,0.9-0.25c0.65,0,1.69,0.4,1.69,2.07v2.88
		h-0.88v-2.78c0-0.78-0.29-1.44-1.12-1.44c-0.57,0-1.02,0.4-1.18,0.88c-0.05,0.12-0.06,0.25-0.06,0.42v2.92h-0.88V810.88z"/>
	<path d="M79.65,811.74v1.39h1.26v0.67h-1.26v2.61c0,0.6,0.17,0.94,0.66,0.94c0.23,0,0.4-0.03,0.51-0.06l0.04,0.66
		c-0.17,0.07-0.44,0.12-0.78,0.12c-0.41,0-0.74-0.13-0.95-0.37c-0.25-0.26-0.34-0.69-0.34-1.26v-2.64h-0.75v-0.67h0.75v-1.16
		L79.65,811.74z"/>
	<path d="M86.93,811.04c-0.73,0.98-1.26,2.28-1.26,4.09c0,1.78,0.55,3.06,1.26,4.06h-0.69c-0.63-0.83-1.31-2.11-1.31-4.06
		c0.01-1.97,0.68-3.25,1.31-4.09H86.93z"/>
	<path d="M92.98,817.75c-0.32,0.16-0.96,0.32-1.78,0.32c-1.9,0-3.33-1.2-3.33-3.41c0-2.11,1.43-3.54,3.52-3.54
		c0.84,0,1.37,0.18,1.6,0.3l-0.21,0.71c-0.33-0.16-0.8-0.28-1.36-0.28c-1.58,0-2.63,1.01-2.63,2.78c0,1.65,0.95,2.71,2.59,2.71
		c0.53,0,1.07-0.11,1.42-0.28L92.98,817.75z"/>
	<path d="M94.18,819.18c0.71-0.99,1.26-2.29,1.26-4.09c0-1.79-0.54-3.07-1.26-4.06h0.68c0.64,0.82,1.31,2.1,1.31,4.07
		c0,1.96-0.67,3.23-1.31,4.08H94.18z"/>
	<path d="M100.39,817.97v-0.54l0.69-0.67c1.66-1.58,2.41-2.42,2.42-3.4c0-0.66-0.32-1.27-1.29-1.27c-0.59,0-1.08,0.3-1.38,0.55
		l-0.28-0.62c0.45-0.38,1.09-0.66,1.84-0.66c1.4,0,1.99,0.96,1.99,1.89c0,1.2-0.87,2.17-2.24,3.49l-0.52,0.48v0.02h2.92v0.73H100.39
		z"/>
	<path d="M110.34,814.65c0,2.21-0.82,3.43-2.26,3.43c-1.27,0-2.13-1.19-2.15-3.34c0-2.18,0.94-3.38,2.26-3.38
		C109.56,811.36,110.34,812.58,110.34,814.65z M106.81,814.75c0,1.69,0.52,2.65,1.32,2.65c0.9,0,1.33-1.05,1.33-2.71
		c0-1.6-0.41-2.65-1.32-2.65C107.37,812.04,106.81,812.98,106.81,814.75z"/>
	<path d="M113.56,812.29h-0.02l-1.13,0.61l-0.17-0.67l1.42-0.76h0.75v6.5h-0.85V812.29z"/>
	<path d="M121.6,814.65c0,2.21-0.82,3.43-2.26,3.43c-1.27,0-2.13-1.19-2.15-3.34c0-2.18,0.94-3.38,2.26-3.38
		C120.82,811.36,121.6,812.58,121.6,814.65z M118.07,814.75c0,1.69,0.52,2.65,1.32,2.65c0.9,0,1.33-1.05,1.33-2.71
		c0-1.6-0.41-2.65-1.32-2.65C118.63,812.04,118.07,812.98,118.07,814.75z"/>
	<path d="M127.85,814.94v0.65h-2.47v-0.65H127.85z"/>
	<path d="M131.72,817.97v-0.54l0.69-0.67c1.66-1.58,2.41-2.42,2.42-3.4c0-0.66-0.32-1.27-1.29-1.27c-0.59,0-1.08,0.3-1.38,0.55
		l-0.28-0.62c0.45-0.38,1.09-0.66,1.84-0.66c1.4,0,1.99,0.96,1.99,1.89c0,1.2-0.87,2.17-2.24,3.49l-0.52,0.48v0.02h2.92v0.73H131.72
		z"/>
	<path d="M141.67,814.65c0,2.21-0.82,3.43-2.26,3.43c-1.27,0-2.13-1.19-2.15-3.34c0-2.18,0.94-3.38,2.26-3.38
		C140.89,811.36,141.67,812.58,141.67,814.65z M138.14,814.75c0,1.69,0.52,2.65,1.32,2.65c0.9,0,1.33-1.05,1.33-2.71
		c0-1.6-0.41-2.65-1.32-2.65C138.7,812.04,138.14,812.98,138.14,814.75z"/>
	<path d="M144.89,812.29h-0.02l-1.13,0.61l-0.17-0.67l1.42-0.76h0.75v6.5h-0.85V812.29z"/>
	<path d="M149.12,817.35c0.19,0.02,0.41,0,0.71-0.03c0.51-0.07,0.99-0.28,1.36-0.63c0.43-0.39,0.74-0.96,0.86-1.73h-0.03
		c-0.36,0.44-0.88,0.7-1.53,0.7c-1.17,0-1.92-0.88-1.92-1.99c0-1.23,0.89-2.31,2.22-2.31c1.33,0,2.15,1.08,2.15,2.74
		c0,1.43-0.48,2.43-1.12,3.05c-0.5,0.49-1.19,0.79-1.89,0.87c-0.32,0.05-0.6,0.06-0.81,0.05V817.35z M149.44,813.61
		c0,0.81,0.49,1.38,1.25,1.38c0.59,0,1.05-0.29,1.28-0.68c0.05-0.08,0.08-0.18,0.08-0.32c0-1.11-0.41-1.96-1.33-1.96
		C149.97,812.03,149.44,812.69,149.44,813.61z"/>
	<path d="M157.05,816.91c0.39,0.24,0.96,0.44,1.56,0.44c0.89,0,1.41-0.47,1.41-1.15c0-0.63-0.36-0.99-1.27-1.34
		c-1.1-0.39-1.78-0.96-1.78-1.91c0-1.05,0.87-1.83,2.18-1.83c0.69,0,1.19,0.16,1.49,0.33l-0.24,0.71c-0.22-0.12-0.67-0.32-1.28-0.32
		c-0.92,0-1.27,0.55-1.27,1.01c0,0.63,0.41,0.94,1.34,1.3c1.14,0.44,1.72,0.99,1.72,1.98c0,1.04-0.77,1.94-2.36,1.94
		c-0.65,0-1.36-0.19-1.72-0.43L157.05,816.91z"/>
	<path d="M168.16,818.96c-0.91-0.24-1.8-0.51-2.58-0.78c-0.14-0.05-0.28-0.1-0.41-0.1c-1.6-0.06-2.97-1.24-2.97-3.41
		c0-2.16,1.32-3.55,3.14-3.55c1.83,0,3.02,1.42,3.02,3.41c0,1.73-0.8,2.84-1.92,3.23v0.04c0.67,0.17,1.4,0.33,1.97,0.43
		L168.16,818.96z M167.44,814.57c0-1.35-0.7-2.74-2.13-2.74c-1.47,0-2.19,1.36-2.18,2.82c-0.01,1.43,0.78,2.72,2.14,2.72
		C166.66,817.37,167.44,816.11,167.44,814.57z"/>
	<path d="M170.86,811.23v3.99c0,1.51,0.67,2.15,1.57,2.15c1,0,1.64-0.66,1.64-2.15v-3.99h0.88v3.93c0,2.07-1.09,2.92-2.55,2.92
		c-1.38,0-2.42-0.79-2.42-2.88v-3.97H170.86z"/>
	<path d="M177.71,815.85l-0.7,2.12h-0.9l2.29-6.74h1.05l2.3,6.74h-0.93l-0.72-2.12H177.71z M179.92,815.17l-0.66-1.94
		c-0.15-0.44-0.25-0.84-0.35-1.23h-0.02c-0.1,0.4-0.21,0.81-0.34,1.22l-0.66,1.95H179.92z"/>
	<path d="M183.24,811.32c0.44-0.09,1.07-0.14,1.67-0.14c0.93,0,1.53,0.17,1.95,0.55c0.34,0.3,0.53,0.76,0.53,1.28
		c0,0.89-0.56,1.48-1.27,1.72v0.03c0.52,0.18,0.83,0.66,0.99,1.36c0.22,0.94,0.38,1.59,0.52,1.85h-0.9
		c-0.11-0.19-0.26-0.77-0.45-1.61c-0.2-0.93-0.56-1.28-1.35-1.31h-0.82v2.92h-0.87V811.32z M184.11,814.39H185
		c0.93,0,1.52-0.51,1.52-1.28c0-0.87-0.63-1.25-1.55-1.26c-0.42,0-0.72,0.04-0.86,0.08V814.39z"/>
	<path d="M192.61,814.81h-2.62v2.43h2.92v0.73h-3.79v-6.74h3.64v0.73h-2.77v2.13h2.62V814.81z"/>
	<path d="M200.65,814.81h-2.62v2.43h2.92v0.73h-3.79v-6.74h3.64v0.73h-2.77v2.13h2.62V814.81z"/>
	<path d="M202.58,817.97v-6.74h0.95l2.16,3.41c0.5,0.79,0.89,1.5,1.21,2.19l0.02-0.01c-0.08-0.9-0.1-1.72-0.1-2.77v-2.82h0.82v6.74
		h-0.88l-2.14-3.42c-0.47-0.75-0.92-1.52-1.26-2.25l-0.03,0.01c0.05,0.85,0.07,1.66,0.07,2.78v2.88H202.58z"/>
	<path d="M210.53,811.23v6.74h-0.87v-6.74H210.53z"/>
	<path d="M216.24,817.97l-0.86-1.49c-0.35-0.57-0.57-0.94-0.78-1.33h-0.02c-0.19,0.39-0.38,0.75-0.73,1.34l-0.81,1.48h-1l2.06-3.41
		l-1.98-3.33h1.01l0.89,1.58c0.25,0.44,0.44,0.78,0.62,1.14h0.03c0.19-0.4,0.36-0.71,0.61-1.14l0.92-1.58h1l-2.05,3.28l2.1,3.46
		H216.24z"/>
	<path d="M226.09,817.75c-0.32,0.16-0.96,0.32-1.78,0.32c-1.9,0-3.33-1.2-3.33-3.41c0-2.11,1.43-3.54,3.52-3.54
		c0.84,0,1.37,0.18,1.6,0.3l-0.21,0.71c-0.33-0.16-0.8-0.28-1.36-0.28c-1.58,0-2.63,1.01-2.63,2.78c0,1.65,0.95,2.71,2.59,2.71
		c0.53,0,1.07-0.11,1.42-0.28L226.09,817.75z"/>
	<path d="M233.23,814.53c0,2.32-1.41,3.55-3.13,3.55c-1.78,0-3.03-1.38-3.03-3.42c0-2.14,1.33-3.54,3.13-3.54
		C232.04,811.13,233.23,812.53,233.23,814.53z M228,814.64c0,1.44,0.78,2.73,2.15,2.73c1.38,0,2.16-1.27,2.16-2.8
		c0-1.34-0.7-2.74-2.15-2.74C228.72,811.83,228,813.16,228,814.64z"/>
	<path d="M234.28,817.45c0-0.37,0.25-0.63,0.6-0.63s0.59,0.26,0.59,0.63c0,0.36-0.23,0.63-0.6,0.63
		C234.52,818.08,234.28,817.81,234.28,817.45z"/>
	<path d="M236.49,819.2c0.22-0.59,0.49-1.66,0.6-2.39l0.98-0.1c-0.23,0.85-0.67,1.96-0.95,2.43L236.49,819.2z"/>
	<path d="M242.28,811.23h0.87v6.01h2.88v0.73h-3.75V811.23z"/>
	<path d="M247.9,811.98h-2.05v-0.74h4.99v0.74h-2.06v6h-0.88V811.98z"/>
	<path d="M252.09,811.32c0.53-0.08,1.16-0.14,1.85-0.14c1.25,0,2.14,0.29,2.73,0.84c0.6,0.55,0.95,1.33,0.95,2.42
		c0,1.1-0.34,2-0.97,2.62c-0.63,0.63-1.67,0.97-2.98,0.97c-0.62,0-1.14-0.03-1.58-0.08V811.32z M252.96,817.28
		c0.22,0.04,0.54,0.05,0.88,0.05c1.86,0,2.87-1.04,2.87-2.86c0.01-1.59-0.89-2.6-2.73-2.6c-0.45,0-0.79,0.04-1.02,0.09V817.28z"/>
	<path d="M258.67,817.45c0-0.37,0.25-0.63,0.6-0.63s0.59,0.26,0.59,0.63c0,0.36-0.23,0.63-0.6,0.63
		C258.91,818.08,258.67,817.81,258.67,817.45z"/>
	<path d="M265.19,815.85l-0.7,2.12h-0.9l2.29-6.74h1.05l2.3,6.74h-0.93l-0.72-2.12H265.19z M267.4,815.17l-0.66-1.94
		c-0.15-0.44-0.25-0.84-0.35-1.23h-0.02c-0.1,0.4-0.21,0.81-0.34,1.22l-0.66,1.95H267.4z"/>
	<path d="M270.66,810.88h0.88v7.1h-0.88V810.88z"/>
	<path d="M273.52,810.88h0.88v7.1h-0.88V810.88z"/>
	<path d="M279.03,811.32c0.44-0.09,1.07-0.14,1.67-0.14c0.93,0,1.53,0.17,1.95,0.55c0.34,0.3,0.53,0.76,0.53,1.28
		c0,0.89-0.56,1.48-1.27,1.72v0.03c0.52,0.18,0.83,0.66,0.99,1.36c0.22,0.94,0.38,1.59,0.52,1.85h-0.9
		c-0.11-0.19-0.26-0.77-0.45-1.61c-0.2-0.93-0.56-1.28-1.35-1.31h-0.82v2.92h-0.87V811.32z M279.9,814.39h0.89
		c0.93,0,1.52-0.51,1.52-1.28c0-0.87-0.63-1.25-1.55-1.26c-0.42,0-0.72,0.04-0.86,0.08V814.39z"/>
	<path d="M285.96,811.78c0.01,0.3-0.21,0.54-0.56,0.54c-0.31,0-0.53-0.24-0.53-0.54c0-0.31,0.23-0.55,0.55-0.55
		C285.75,811.23,285.96,811.47,285.96,811.78z M284.98,817.97v-4.84h0.88v4.84H284.98z"/>
	<path d="M291.99,813.13c-0.02,0.35-0.04,0.74-0.04,1.33v2.81c0,1.11-0.22,1.79-0.69,2.21c-0.47,0.44-1.15,0.58-1.76,0.58
		c-0.58,0-1.22-0.14-1.61-0.4l0.22-0.67c0.32,0.2,0.82,0.38,1.42,0.38c0.9,0,1.56-0.47,1.56-1.69v-0.54h-0.02
		c-0.27,0.45-0.79,0.81-1.54,0.81c-1.2,0-2.06-1.02-2.06-2.36c0-1.64,1.07-2.57,2.18-2.57c0.84,0,1.3,0.44,1.51,0.84h0.02l0.04-0.73
		H291.99z M291.08,815.04c0-0.15-0.01-0.28-0.05-0.4c-0.16-0.51-0.59-0.93-1.23-0.93c-0.84,0-1.44,0.71-1.44,1.83
		c0,0.95,0.48,1.74,1.43,1.74c0.54,0,1.03-0.34,1.22-0.9c0.05-0.15,0.07-0.32,0.07-0.47V815.04z"/>
	<path d="M293.91,810.88h0.88v3.02h0.02c0.14-0.25,0.36-0.47,0.63-0.62c0.26-0.15,0.57-0.25,0.9-0.25c0.65,0,1.69,0.4,1.69,2.07
		v2.88h-0.88v-2.78c0-0.78-0.29-1.44-1.12-1.44c-0.57,0-1.02,0.4-1.18,0.88c-0.05,0.12-0.06,0.25-0.06,0.42v2.92h-0.88V810.88z"/>
	<path d="M300.98,811.74v1.39h1.26v0.67h-1.26v2.61c0,0.6,0.17,0.94,0.66,0.94c0.23,0,0.4-0.03,0.51-0.06l0.04,0.66
		c-0.17,0.07-0.44,0.12-0.78,0.12c-0.41,0-0.74-0.13-0.95-0.37c-0.25-0.26-0.34-0.69-0.34-1.26v-2.64h-0.75v-0.67h0.75v-1.16
		L300.98,811.74z"/>
	<path d="M303.61,817.07c0.26,0.17,0.72,0.35,1.16,0.35c0.64,0,0.94-0.32,0.94-0.72c0-0.42-0.25-0.65-0.9-0.89
		c-0.87-0.31-1.28-0.79-1.28-1.37c0-0.78,0.63-1.42,1.67-1.42c0.49,0,0.92,0.14,1.19,0.3l-0.22,0.64c-0.19-0.12-0.54-0.28-0.99-0.28
		c-0.52,0-0.81,0.3-0.81,0.66c0,0.4,0.29,0.58,0.92,0.82c0.84,0.32,1.27,0.74,1.27,1.46c0,0.85-0.66,1.45-1.81,1.45
		c-0.53,0-1.02-0.13-1.36-0.33L303.61,817.07z"/>
	<path d="M310.84,811.32c0.44-0.09,1.07-0.14,1.67-0.14c0.93,0,1.53,0.17,1.95,0.55c0.34,0.3,0.53,0.76,0.53,1.28
		c0,0.89-0.56,1.48-1.27,1.72v0.03c0.52,0.18,0.83,0.66,0.99,1.36c0.22,0.94,0.38,1.59,0.52,1.85h-0.9
		c-0.11-0.19-0.26-0.77-0.45-1.61c-0.2-0.93-0.56-1.28-1.35-1.31h-0.82v2.92h-0.87V811.32z M311.71,814.39h0.89
		c0.93,0,1.52-0.51,1.52-1.28c0-0.87-0.63-1.25-1.55-1.26c-0.42,0-0.72,0.04-0.86,0.08V814.39z"/>
	<path d="M317.22,815.71c0.02,1.19,0.78,1.68,1.66,1.68c0.63,0,1.01-0.11,1.34-0.25l0.15,0.63c-0.31,0.14-0.84,0.3-1.61,0.3
		c-1.49,0-2.38-0.98-2.38-2.44c0-1.46,0.86-2.61,2.27-2.61c1.58,0,2,1.39,2,2.28c0,0.18-0.02,0.32-0.03,0.41H317.22z M319.8,815.08
		c0.01-0.56-0.23-1.43-1.22-1.43c-0.89,0-1.28,0.82-1.35,1.43H319.8z"/>
	<path d="M322.12,817.07c0.26,0.17,0.72,0.35,1.16,0.35c0.64,0,0.94-0.32,0.94-0.72c0-0.42-0.25-0.65-0.9-0.89
		c-0.87-0.31-1.28-0.79-1.28-1.37c0-0.78,0.63-1.42,1.67-1.42c0.49,0,0.92,0.14,1.19,0.3l-0.22,0.64c-0.19-0.12-0.54-0.28-0.99-0.28
		c-0.52,0-0.81,0.3-0.81,0.66c0,0.4,0.29,0.58,0.92,0.82c0.84,0.32,1.27,0.74,1.27,1.46c0,0.85-0.66,1.45-1.81,1.45
		c-0.53,0-1.02-0.13-1.36-0.33L322.12,817.07z"/>
	<path d="M327.19,815.71c0.02,1.19,0.78,1.68,1.66,1.68c0.63,0,1.01-0.11,1.34-0.25l0.15,0.63c-0.31,0.14-0.84,0.3-1.61,0.3
		c-1.49,0-2.38-0.98-2.38-2.44c0-1.46,0.86-2.61,2.27-2.61c1.58,0,2,1.39,2,2.28c0,0.18-0.02,0.32-0.03,0.41H327.19z M329.77,815.08
		c0.01-0.56-0.23-1.43-1.22-1.43c-0.89,0-1.28,0.82-1.35,1.43H329.77z"/>
	<path d="M332.21,814.64c0-0.57-0.01-1.06-0.04-1.51h0.77l0.03,0.95h0.04c0.22-0.65,0.75-1.06,1.34-1.06c0.1,0,0.17,0.01,0.25,0.03
		v0.83c-0.09-0.02-0.18-0.03-0.3-0.03c-0.62,0-1.06,0.47-1.18,1.13c-0.02,0.12-0.04,0.26-0.04,0.41v2.58h-0.87V814.64z"/>
	<path d="M336.57,813.13l0.95,2.72c0.16,0.44,0.29,0.84,0.39,1.24h0.03c0.11-0.4,0.25-0.8,0.41-1.24l0.94-2.72h0.92l-1.9,4.84h-0.84
		l-1.84-4.84H336.57z"/>
	<path d="M341.93,815.71c0.02,1.19,0.78,1.68,1.66,1.68c0.63,0,1.01-0.11,1.34-0.25l0.15,0.63c-0.31,0.14-0.84,0.3-1.61,0.3
		c-1.49,0-2.38-0.98-2.38-2.44c0-1.46,0.86-2.61,2.27-2.61c1.58,0,2,1.39,2,2.28c0,0.18-0.02,0.32-0.03,0.41H341.93z M344.51,815.08
		c0.01-0.56-0.23-1.43-1.22-1.43c-0.89,0-1.28,0.82-1.35,1.43H344.51z"/>
	<path d="M351.13,810.88v5.85c0,0.43,0.01,0.92,0.04,1.25h-0.79l-0.04-0.84h-0.02c-0.27,0.54-0.86,0.95-1.65,0.95
		c-1.17,0-2.07-0.99-2.07-2.46c-0.01-1.61,0.99-2.6,2.17-2.6c0.74,0,1.24,0.35,1.46,0.74h0.02v-2.89H351.13z M350.25,815.1
		c0-0.11-0.01-0.26-0.04-0.37c-0.13-0.56-0.61-1.02-1.27-1.02c-0.91,0-1.45,0.8-1.45,1.87c0,0.98,0.48,1.79,1.43,1.79
		c0.59,0,1.13-0.39,1.29-1.05c0.03-0.12,0.04-0.24,0.04-0.38V815.1z"/>
	<path d="M352.78,817.45c0-0.37,0.25-0.63,0.6-0.63s0.59,0.26,0.59,0.63c0,0.36-0.23,0.63-0.6,0.63
		C353.02,818.08,352.78,817.81,352.78,817.45z"/>
</g>
</svg>
