<?xml version="1.0" encoding="utf-8"?>
<!-- Generator: Adobe Illustrator 23.0.3, SVG Export Plug-In . SVG Version: 6.00 Build 0)  -->
<svg version="1.1" id="レイヤー_1" xmlns="http://www.w3.org/2000/svg" xmlns:xlink="http://www.w3.org/1999/xlink" x="0px"
	 y="0px" width="1121.23px" height="1121.23px" viewBox="0 0 1121.23 1121.23" enable-background="new 0 0 1121.23 1121.23"
	 xml:space="preserve">
<g>
	<g>
		<path d="M418.36,858.15c0.05,0.73,0.15,1.15-0.23,1.6c-1.22,0.43-2.64-0.05-4.03,0.31c91.85,69.88,221.86,64.97,306.52-1.44
			c-2.65,0.01-4.97,0.02-7.05,0.03c-0.46-0.54-0.43-0.86-0.37-1.19c2.38-2.24,2.38-2.24,2.37-5.76c-0.03-7.25-0.09-14.51-0.08-21.76
			c0-2.73-0.46-5.39-0.87-8.07c-0.43-2.84-0.83-5.68-1.24-8.51c-0.46-3.16-0.92-6.32-1.36-9.48c-0.41-2.92-0.79-5.85-1.2-8.77
			c-0.35-2.52-0.66-5.04-1.08-7.54c-0.24-1.45-1.25-2.46-2.26-3.14c-0.24-0.71-0.17-1.18,0.04-1.77c3.78-0.02,7.54-0.03,11.31-0.05
			c0.51,0.32,0.37,0.84,0.39,1.19c-0.09,0.49-0.33,0.7-0.62,0.86c-1.29,0.72-1.46,1.88-1.25,3.19c0.52,3.16,0.69,6.36,0.98,9.55
			c0.22,2.45,0.58,4.89,0.83,7.33c0.15,1.54,0.21,3.09,0.4,4.64c0.63-3.06,0.89-6.16,1.2-9.26c0.37-3.67,0.81-7.33,1.29-10.99
			c0.26-1.99,0.22-3.81-1.73-4.84c-0.19-0.62-0.24-1.09,0.18-1.68c3.66-0.02,7.42-0.03,11.22-0.05c0.63,0.49,0.33,1.14,0.27,1.82
			c-0.7,0.32-1.35,0.63-1.91,0.89c-0.62,0.76-0.83,1.51-0.94,2.36c-0.57,4.55-1.22,9.1-1.8,13.65c-0.39,3.01-0.69,6.03-1.07,9.04
			c-0.4,3.17-0.95,6.32-1.24,9.5c-0.36,4-1.22,7.94-1.15,12c0.13,6.67,0.09,13.35,0.1,20.03c0,1.16-0.02,2.31,0.99,3.48
			c4.15-3.03,7.97-6.49,11.79-9.93c3.79-3.41,7.48-6.95,11.07-10.66c0.51,0.84-0.19,1.14-0.51,1.49
			c-5.93,6.42-11.99,12.7-18.57,18.46c-0.74,0.65-1.44,1.35-2.17,2.03c-0.1,0.57-0.19,1.12-0.27,1.59c-0.65,0.56-1.38,0.14-2,0.48
			c-45.44,37.7-97.55,57.66-156.82,57.89c-59.26,0.23-111.54-19.29-157.4-56.73c-0.59,0-1.24,0.01-1.9,0.01
			c-0.65,0-1.3,0.01-1.92,0.01c-0.45-1.48-0.45-1.48,0.6-2.89c-1.19-1.1-2.75-2.43-4.07-3.65c-0.04,1.56,0.14,2.33,0.24,2.98
			c0.42,1.14,1.31,1.39,1.8,1.98c0.08,0.45,0.14,0.86-0.06,1.2c-0.09,0.09-0.14,0.2-0.2,0.21c-3.52,0.41-7.06,0.09-10.45,0.23
			c-0.72-0.52-0.51-1.1-0.52-1.7c0.65-0.39,1.27-0.76,2.05-1.23c0.67-3.32,0.78-3.9,1.19-9.31c-4.79-4.7-9.02-9.02-13.45-14.22
			c1.3,0.3,1.71,1.21,2.36,1.8c0.79,0.72,1.52,1.51,2.28,2.26c0.7,0.7,1.41,1.39,2.12,2.08c0.71,0.69,1.42,1.38,2.13,2.07
			c0.77,0.74,1.54,1.49,2.33,2.22c0.7,0.66,1.42,1.3,2.46,2.24c0.44-4.41,4.93-58.01,5.65-62.13c1.38-0.52,2.78-0.21,4.15-0.27
			c1.3-0.06,2.61-0.02,4.04-0.03c0.23,1.62,4.84,65.35,4.97,70.45C415.95,855.98,416.63,857.44,418.36,858.15z M407.33,839.52
			c-0.01-1.27,0.02-2.33-0.02-3.39c-0.12-2.79-0.48-5.56-0.53-8.36c-0.1-4.93-0.38-9.85-0.59-14.77c-0.01-0.24-0.09-0.48-0.16-0.84
			c-0.67,9.17-1.34,18.21-2.01,27.38C405.13,839.53,406.08,839.53,407.33,839.52z M402.96,851.49c0.36,0.26,0.76,0.54,1.15,0.84
			c1.2,0.95,2.38,1.91,3.63,2.92c0.01-5.07-0.37-7.44-0.64-10.14c-1.13,0.14-1.95,0.19-3.6,0.25
			C403.33,847.65,403.18,848.18,402.96,851.49z"/>
		<path d="M581.25,859.15c-2.47,0.01-4.85,0.02-7.27,0.03c-0.58-0.51-0.66-1.3-0.77-1.99c-0.77-4.6-1.42-9.23-2.18-13.83
			c-0.93-5.65-1.96-11.29-2.89-16.94c-0.81-4.92-1.54-9.86-2.58-14.79c0,0.85,0.01,1.69,0.01,2.54c0.05,12.93,0.14,25.87,0.13,38.8
			c0,2.14,0.35,3.92,2.26,4.81c0.27,0.52,0.2,0.84,0.1,1.16c-0.56,0.48-7.52,0.6-11.12,0.18c-0.69-2.05,2.06-2.13,2.28-3.67
			c0-0.9-0.01-1.8-0.01-2.71c-0.09-20.68-0.18-41.36-0.24-62.04c-0.01-2.37-0.08-4.63-2.28-6.15c-0.11-0.07-0.14-0.29-0.16-0.45
			c-0.01-0.16,0.05-0.32,0.07-0.48c1.55-0.55,8.32-0.73,11.94-0.26c2.34,13.85,4.22,27.85,6.78,41.77c0-0.98-0.01-1.95-0.01-2.93
			c-0.04-10.46-0.1-20.93-0.12-31.39c0-1.57-0.11-3.12-0.6-4.61c-0.3-0.9-1.41-1.14-1.69-2.02c0-0.51,0.21-0.92,0.65-0.96
			c3.18-0.27,6.35-0.11,9.34-0.15c0.43,0.86,0.32,1.33-0.1,1.68c-1.4,1.19-1.6,2.77-1.58,4.48c0.04,3.87,0.04,7.74,0.06,11.62
			c0.08,18.45,0.16,36.91,0.22,55.36C581.5,857.11,581.68,858.02,581.25,859.15z"/>
		<path d="M356.21,859.89c-0.27-0.37-0.21-0.76-0.02-1.27c0.68-0.67,1.72-1.14,2.25-2.73c0-0.38-0.01-1.28-0.01-2.18
			c-0.09-20.76-0.19-41.53-0.24-62.29c-0.01-2.48-0.09-4.81-2.42-6.09c0-1,0.47-1.29,1.11-1.29c3.45-0.03,6.9-0.04,10.58-0.05
			c2.43,13.88,4.62,27.68,6.95,41.47c0.39-0.18,0.17-0.58,0.22-0.88c0.05-0.32,0.01-0.66,0.01-0.99
			c-0.05-11.21-0.1-22.41-0.13-33.62c0-1.8-0.21-3.46-1.89-4.41c-0.2-0.49-0.2-0.89,0-1.29c0.63-0.48,7.42-0.53,9.7-0.06
			c0.38,0.69,0.13,1.23-0.37,1.76c-1.14,1.21-1.45,2.7-1.44,4.31c0.08,13.27,0.15,26.53,0.21,39.8c0.04,9.47,0.06,18.95,0.08,28.42
			c0,0.4-0.04,0.81-0.08,1.5c-2.54,0.13-5.04,0.1-7.71,0.05c-2.68-15.47-5.34-30.82-7.99-46.18c-0.07,0.01-0.13,0.01-0.2,0.02
			c0.06,14.31,0.12,28.62,0.18,42.93c0.37,1.19,2.39,1.29,1.91,2.95C365.15,860.24,358.55,860.32,356.21,859.89z"/>
		<path d="M673.31,832.22c3.28-1.92,6.25-3.66,9.21-5.4c0.59,0.53,0.38,1.16,0.26,1.65c-0.92,3.79-0.97,7.65-0.94,11.51
			c0.02,3.13,0.1,6.26,0.07,9.39c-0.01,1.19,0.37,2.27,0.62,3.38c0.17,0.74,0.64,1.33,1.5,1.39c0.87-0.28,1.14-1.07,1.21-1.75
			c0.15-1.47,0.62-2.88,0.62-4.38c0-2.05,0.26-4.1,0.35-6.15c0.35-7.7-1.53-14.78-5.79-21.24c-1.85-2.81-3.64-5.67-5.12-8.71
			c-1.61-3.3-2.31-6.83-2.51-10.44c-0.17-3.04-0.06-6.09-0.07-9.14c-0.01-1.91,0.52-3.73,1.12-5.52c0.52-1.55,1.65-2.67,3-3.49
			c3.84-2.34,8.7-2.17,12.16,0.77c0.99,0.84,1.69,1.8,2.02,3.01c0.37,1.34,0.69,2.7,0.94,4.06c0.35,1.89,0.35,10.73,0.02,12.93
			c-2.47,1.35-5.02,2.75-7.77,4.26c0-1.18-0.14-2.09,0.01-2.95c0.75-4.17,0.38-8.37,0.32-12.56c-0.02-1.3-0.31-2.61-0.61-3.88
			c-0.17-0.69-0.49-1.43-1.52-1.72c-0.66,0.28-1.14,0.82-1.28,1.72c-0.18,1.13-0.45,2.24-0.46,3.41c-0.06,4.77-0.03,9.51,1.47,14.13
			c1.31,4.03,3.44,7.62,5.74,11.12c2.45,3.73,4.5,7.6,5.55,11.99c1.04,4.34,1.5,8.71,1.4,13.17c-0.07,3.55-0.37,7.05-1.57,10.41
			c-0.94,2.63-2.34,4.97-5.14,5.96c-4.47,1.57-10.13,0.81-12.72-4.39c-0.78-1.56-1.34-3.16-1.67-4.86
			C672.63,844.06,672.68,838.18,673.31,832.22z"/>
		<path d="M504.86,834.1c-0.97,0.28-1.6,0.35-2.35-0.06c-0.4-1.92-0.15-4-0.72-5.99c-0.45-1.58-0.9-3.15-1.7-4.59
			c-0.53-0.96-1.2-1.75-2.36-1.92c-0.61,0.47-0.38,1.09-0.37,1.62c0.03,9.97,0.1,19.95,0.09,29.92c0,2.27,0.58,4.06,2.76,4.86
			c0.26,0.52,0.29,0.91,0.11,1.31c-0.56,0.47-12.18,0.57-14.93,0.13c-0.33-0.35-0.22-0.75-0.13-1.26c0.89-0.7,2.24-0.99,2.75-2.97
			c-0.09-22.33-0.19-45.32-0.28-68.23c-0.49-1.35-1.78-1.39-2.69-1.73c-0.3-0.53-0.27-0.93-0.13-1.33
			c1.64-0.5,21.99-0.76,25.79-0.32c0.05,11.62,0.2,17.44,0.24,25.86c-0.2,0.06-0.42,0.18-0.64,0.19c-0.48,0.01-0.95-0.05-1.49-0.08
			c-0.74-4.05-1.4-8-2.69-11.8c-0.85-2.51-1.87-4.92-3.54-7c-1.31-1.63-2.99-2.43-5.22-2.23c0.04,8.58,0.07,17.02,0.11,25.49
			c1.73,0.31,2.58-0.73,3.25-1.87c0.97-1.65,1.41-3.48,1.48-5.4c0.05-1.22-0.13-2.47,0.25-3.58c0.62-0.63,1.27-0.49,1.96-0.35
			c0.09,0.19,0.28,0.41,0.28,0.62c0.04,3.21,0.07,6.43,0.08,9.64c0.03,6.18,0.05,12.36,0.08,18.54
			C504.85,832.38,504.85,833.19,504.86,834.1z"/>
		<path d="M799.24,783.75c0.04-0.46,0.07-0.87,0.09-1.21c0.67-0.52,7.57-0.65,11.07-0.25c0.47,0.36,0.31,0.88,0.32,1.39
			c-0.37,0.84-1.41,1.12-1.86,2.35c-0.51,2.06,0.31,4.39,0.61,6.73c0.53,4.14,1.24,8.26,1.89,12.39c0.76,4.77,1.57,9.54,2.32,14.31
			c0.64,4.04,1.23,8.1,2.04,12.18c0.36-2.31,0.73-4.61,1.07-6.92c0.6-4.05,1.2-8.1,1.78-12.15c0.55-3.81,1.06-7.63,1.59-11.44
			c0.57-4.06,1.11-8.12,1.74-12.16c0.32-2.06,0.39-3.96-1.58-5.16c-0.21-0.62-0.09-1.07,0.36-1.59c3.09-0.01,6.28-0.03,9.38-0.04
			c0.63,0.52,0.36,1.1,0.43,1.75c-2.86,1-2.54,3.58-2.87,5.77c-0.7,4.7-1.27,9.42-1.87,14.13c-0.39,3.09-0.68,6.19-1.07,9.29
			c-0.39,3.09-0.88,6.17-1.27,9.25c-0.4,3.09-0.72,6.19-1.11,9.28c-0.39,3.09-0.83,6.17-1.23,9.26c-0.39,3.01-0.85,6.01-1.11,9.03
			c-0.13,1.55-0.84,3.05-0.44,4.64c0.24,0.95,0.96,1.48,1.69,1.87c0.35,0.54,0.18,1.02,0.18,1.42c-0.56,0.51-8.47,0.66-13.06,0.32
			c-0.52-0.33-0.4-0.83-0.33-1.4c0.45-0.7,1.54-0.88,1.97-2.29c0.16-1.81,0.1-4.08-0.27-6.38c-0.51-3.07-0.84-6.17-1.26-9.26
			c-0.43-3.17-0.89-6.33-1.32-9.49c-0.42-3.09-0.81-6.18-1.23-9.26c-0.43-3.17-0.89-6.33-1.32-9.49c-0.41-3-0.81-6.01-1.22-9.02
			c-0.44-3.25-0.84-6.5-1.36-9.74c-0.22-1.38-0.2-2.77-0.56-4.15C800.86,785.52,800.99,785.49,799.24,783.75z"/>
		<path d="M528.57,783.42c2.84-0.01,5.53-0.02,8.2-0.03c0.18,0.32,5.15,68.27,5.26,70.57c0.08,1.66,0.64,2.43,2.37,3.78
			c0.08,0.47,0.21,0.95-0.21,1.52c-4.01,0.02-8.1,0.03-12.2,0.05c-0.48-0.34-0.4-0.84-0.33-1.5c2.28-1.12,2.63-3.22,2.3-5.57
			c-0.35-2.44-0.41-4.9-0.52-7.48c-1.42-0.31-2.76-0.16-4.27-0.09c0.04,3.92-0.92,7.63-0.47,11.3c0.41,0.89,1.09,1.35,1.69,1.68
			c0.22,0.64,0.28,1.11-0.18,1.66c-3.33,0.01-6.76,0.03-10.16,0.04c-0.63-0.46-0.24-1.06-0.4-1.65c0.95-0.49,1.82-0.97,2.42-2.11
			C522.76,852.38,527.45,792.93,528.57,783.42z M531.75,811.79c-0.04,0-0.08,0.01-0.13,0.01c-0.65,9.04-1.3,18.07-1.97,27.26
			c1.33,0.01,2.5,0.28,3.59-0.21C532.74,829.73,532.25,820.76,531.75,811.79z"/>
		<path d="M303.48,858.66c0.16,0.66,0.21,1.06-0.11,1.58c-4.56,0.02-9.21,0.04-13.81,0.06c-0.48-0.46-0.31-0.96-0.23-1.58
			c2.23-0.59,2.86-2.25,2.85-4.46c-0.12-21.75-0.2-43.49-0.29-65.24c0-0.33,0-0.65,0-0.78c-0.5-1.55-1.63-2-2.75-2.17
			c-0.3-0.66-0.34-1.12,0.08-1.68c7.95-0.03,15.99-0.07,24.02-0.1c0.06,14.24,0.32,19.75,0.34,25.8c-0.13,0.09-0.25,0.23-0.39,0.25
			c-0.56,0.11-1.13,0.18-1.74-0.13c-0.98-1.65-0.73-3.62-1.1-5.44c-0.73-3.54-1.54-7.03-3.02-10.34c-0.54-1.22-1.22-2.34-2.07-3.34
			c-1.18-1.38-2.66-2.14-4.53-1.8c-0.38,1.94-0.35,22.82,0.04,25.51c1.46,0.25,2.44-0.44,3.24-1.6c1.38-1.98,1.59-4.27,1.8-6.56
			c0.09-0.96,0.01-1.94,0-2.73c0.86-0.63,1.5-0.47,2.2-0.36c0.1,0.19,0.29,0.4,0.3,0.61c0.05,1.65,0.06,3.29,0.07,4.94
			c0.04,7.74,0.07,15.49,0.1,23.23c0,0.81,0.01,1.63,0.01,2.37c-0.77,0.62-1.49,0.44-2.24,0.28c-0.09-0.21-0.25-0.43-0.26-0.65
			c-0.16-3.06-0.84-6-2.05-8.81c-0.6-1.4-1.22-2.89-2.97-3.24c-0.64,0.63-0.39,1.33-0.39,1.95c0.02,9.64,0.07,19.28,0.11,28.91
			c0,0.82,0.07,1.62,0.27,2.44C301.31,857.06,301.93,858.21,303.48,858.66z"/>
		<path d="M606.25,791.08c-1.84,2.87-2.64,6.05-3.41,9.23c-0.76,3.17-1.37,6.38-2.03,9.51c-0.83,0.6-1.63,0.28-2.59,0.34
			c-0.56-9,0.56-17.84,0.29-26.93c2.69-0.43,5.23-0.19,7.74-0.24c2.55-0.06,5.11-0.03,7.66-0.04c2.54-0.01,5.07-0.02,7.74-0.03
			c0.74,9.06,0.69,17.92,0.75,26.77c-0.9,0.67-1.79,0.38-2.81,0.32c-1.29-6.37-1.79-12.96-5.19-18.83c0,0.86,0.01,1.71,0.01,2.57
			c0.08,19.36,0.16,38.73,0.24,58.09c0.01,2.13-0.21,4.32,1.8,5.85c0.14,0.11,0.13,0.46,0.13,0.7c0,0.15-0.11,0.29-0.24,0.57
			c-3.78,0.02-7.62,0.03-11.45,0.05c-0.37-0.28-0.51-0.64-0.39-1.27c1.98-0.92,2.26-2.71,2.24-4.83
			c-0.13-19.86-0.19-39.71-0.29-59.57C606.48,792.61,606.64,791.87,606.25,791.08z"/>
		<path d="M784.78,856.71c0,0.52,0,0.92,0.01,1.28c-0.59,0.54-9.83,0.67-12.99,0.23c-0.38-0.43-0.31-0.89-0.06-1.35
			c2.79-1.94,3.25-3.32,2.44-6.97c-0.86-3.83-1.66-7.67-2.59-11.98c-1.17,3.09-1.46,5.97-2.04,8.76c-0.58,2.78-1.66,5.54-0.9,8.47
			c0.25,1.16,2.3,1.32,1.55,3.22c-3.17,0.21-6.44,0.06-9.56,0.12c-0.65-0.43-0.57-0.93-0.48-1.59c1.15-0.84,2.46-1.74,2.81-3.39
			c0.19-0.88,0.34-1.77,0.5-2.66c1.43-8.06,2.79-16.13,4.32-24.16c0.77-4.01,0.63-7.91-0.24-11.89c-0.91-4.15-1.52-8.37-2.26-12.57
			c-0.85-4.84-1.7-9.67-2.54-14.51c-0.29-1.69-1.32-2.79-2.72-3.35c-0.37-0.72-0.41-1.26-0.01-1.93c4.02-0.02,8.11-0.03,12.25-0.05
			c0.53,0.38,0.44,0.94,0.28,1.68c-1.14,0.91-3.02,1.28-3.25,3.41c0.86,4.3,1.75,8.75,2.64,13.21c1.46-5.03,2.64-10.1,3.38-15
			c-1.04-1.92-1.04-1.92-0.79-3.27c1.56-0.36,3.21-0.14,4.83-0.19c1.63-0.05,3.26-0.02,4.61-0.03c0.74,0.63,0.47,1.14,0.58,1.64
			c-0.32,0.21-0.57,0.43-0.86,0.54c-1.91,0.72-2.74,2.24-3.08,4.13c-0.64,3.54-1.29,7.08-1.94,10.62
			c-1.07,5.79-2.1,11.59-3.23,17.38c-0.49,2.52,0.15,4.89,0.57,7.31c0.75,4.35,1.55,8.7,2.33,13.05c0.88,4.91,1.7,9.84,2.65,14.74
			C781.42,853.88,782.68,855.68,784.78,856.71z"/>
		<path d="M453.85,859.68c-7.72,0.03-15.28,0.06-22.78,0.1c-0.56-0.4-0.42-0.9-0.37-1.52c1.7-1.25,2.43-3.07,2.42-5.25
			c-0.09-21.18-0.18-42.37-0.27-63.55c0-0.33-0.04-0.65-0.06-0.85c-0.55-1.34-1.63-1.97-2.65-2.66c-0.29-0.66-0.28-1.28,0.09-1.85
			c0.56-0.54,9.62-0.69,13.27-0.25c0.46,0.56,0.26,1.22,0.21,2.01c-2.1,1.17-2.35,3.16-2.33,5.44c0.14,20.28,0.2,40.55,0.28,60.83
			c0,0.81,0.01,1.62,0.01,2.61c2.06-0.44,3.1-1.76,3.97-3.25c1.9-3.22,2.88-6.77,3.75-10.37c0.99-4.06,1.64-8.17,2.1-12.26
			c0.74-0.63,1.43-0.48,2.09-0.27C454.05,829.13,454.27,855.74,453.85,859.68z"/>
		<path d="M339.83,858.46c0.27,0.61,0.33,1.01,0.14,1.43c-0.5,0.47-9.19,0.62-12.92,0.2c-0.43-0.39-0.29-0.89-0.24-1.49
			c0.85-0.61,1.92-1.13,2.45-2.62c0-0.32,0-0.97-0.01-1.63c-0.09-21.16-0.19-42.33-0.25-63.49c-0.01-2.19-0.41-4.09-2.42-5.14
			c-0.18-0.54-0.2-0.94,0.06-1.38c0.17-0.06,0.39-0.22,0.62-0.22c3.62-0.04,7.25-0.06,10.87-0.07c0.66,0,1.37-0.08,1.59,0.87
			c-0.02,0.09,0.02,0.33-0.08,0.4c-1.9,1.44-2.25,3.39-2.24,5.66c0.14,21.08,0.22,42.16,0.27,63.24
			C337.69,856.16,337.85,857.86,339.83,858.46z"/>
		<path d="M786.06,784.09c-0.12-0.72-0.14-1.13,0.08-1.53c0.64-0.52,9.06-0.62,11.69-0.12c0.39,0.26,0.49,0.64,0.39,1.28
			c-1.97,1.39-2.31,3.55-2.29,5.96c0.13,20.76,0.2,41.52,0.28,62.27c0,0.16,0.01,0.33,0,0.49c-0.17,1.97,0.27,3.6,2.3,4.2
			c0.16,0.56,0.2,0.96-0.01,1.34c-0.5,0.48-8.58,0.6-12.02,0.17c-0.06-0.19-0.17-0.41-0.2-0.64c-0.02-0.24,0.04-0.48,0.08-0.78
			c0.83-0.62,1.81-1.12,2.38-2.47c0-0.43,0-1.17-0.01-1.91c-0.09-21.01-0.19-42.01-0.23-63.02
			C788.49,787.13,788.05,785.28,786.06,784.09z"/>
		<path d="M628.83,885.11c-0.02-5.76-0.05-11.4-0.07-17.01c1.91-0.45,21.7-0.6,24.25-0.2c0.36,0.92,0.28,1.87,0.02,3.08
			c-2.14,0.41-4.35,0.16-6.54,0.22c-2.14,0.05-4.28,0.03-6.42,0.04c-2.22,0.01-4.44,0.02-6.67,0.03c-0.63,1.08-0.3,2.14-0.31,3.29
			c2.07,0.42,4.12,0.13,6.14,0.17c2.06,0.04,4.12-0.01,6.18-0.01c2.03-0.01,4.07-0.02,5.9-0.02c0.57,0.8,0.39,1.39,0.42,1.95
			c0.02,0.41-0.02,0.82-0.52,1.42c-2.78,0.21-5.8,0.08-8.82,0.12c-3.03,0.04-6.05,0.03-9.2,0.04c0,1.18,0.01,2.14,0.01,3.24
			c1.52,0.49,3.16,0.16,4.77,0.21c1.73,0.05,3.46,0,5.19-0.01c1.65-0.01,3.29-0.01,4.94-0.02c1.63-0.01,3.26-0.01,4.69-0.02
			c0.66,0.7,0.48,1.3,0.49,1.86c0.01,0.47-0.07,0.95-0.11,1.53C645.01,885.04,636.99,885.08,628.83,885.11z"/>
		<path d="M484.22,885.91c-1.64,0.01-3.29,0.06-4.93,0.01c-7.11-0.22-9.15-6.28-8.24-10.85c0.99-4.99,4.77-6.82,8.33-7.01
			c3.36-0.18,6.74-0.2,10.1-0.03c3.29,0.16,6.11,1.52,7.59,4.64c1.58,3.34,1.44,6.73-0.63,9.85c-1.4,2.11-3.59,3.12-6.06,3.3
			c-2.04,0.15-4.1,0.05-6.16,0.05C484.22,885.88,484.22,885.9,484.22,885.91z M483.88,871.51c-1.3,0.13-3.11-0.26-4.89,0.32
			c-2.69,0.87-3.83,2.54-3.74,5.6c0.08,2.79,1.37,4.43,4.16,4.96c3.33,0.63,6.68,0.54,10.02-0.01c0.32-0.05,0.66-0.09,0.96-0.2
			c1.46-0.55,2.67-1.51,3.01-3.02c0.88-3.88-0.12-7.18-5.1-7.64C487.01,871.39,485.69,871.5,483.88,871.51z"/>
		<path d="M533.14,885.56c-1.59,0.01-2.98,0.01-4.6,0.02c-5.21-4.08-10.57-8.28-16.22-12.71c0.02,4.34,0.04,8.42,0.05,12.58
			c-1.47,0.46-2.76,0.25-4.03,0.24c-0.51-1.68-0.68-14.42-0.24-17.53c2.51-0.27,4.8-0.4,7.04,1.58c3.82,3.37,7.96,6.37,11.98,9.51
			c0.57,0.45,1.12,0.97,2.07,1.23c-0.02-4.07-0.03-8.08-0.05-12.17c1.4-0.21,2.59-0.22,3.92-0.02
			C533.09,874.03,533.11,879.67,533.14,885.56z"/>
		<path d="M597.04,872.34c0.01,2.45,0.02,4.5,0.03,6.54c0.01,2.05,0.02,4.1,0.03,6.19c-1.31,0.52-2.53,0.26-3.72,0.28
			c-0.52-1.68-0.7-14.59-0.23-17.53c1.42-0.33,2.89-0.11,4.62-0.16c5.23,4.09,10.6,8.29,16.31,12.75c0.15-4.31-0.04-8.27,0.06-12.07
			c0.67-0.72,1.37-0.48,2-0.52c0.57-0.04,1.15-0.01,1.69-0.02c0.51,1.8,0.66,14.23,0.23,17.37c-1.43,0.01-2.89,0.01-4.58,0.02
			C608.21,881.06,602.77,876.81,597.04,872.34z"/>
		<path d="M544.5,868.24c1.34-0.22,2.53-0.21,3.94-0.02c0.02,4.57,0.04,9.06,0.06,13.76c6.11-0.03,12.01-0.05,17.86-0.07
			c0.69,1.18,0.4,2.22,0.36,3.52c-7.37,0.18-14.65,0.1-21.89,0.16C544.31,883.68,544.11,872.96,544.5,868.24z"/>
		<path d="M816.22,773.86c0.05,0.7,1.06,0.5,1.06,1.34c-1.31,0.52-2.59,0.51-4.05-0.08c2.71-1.98,2.89-5.14,4.45-7.66
			c-1.61-2.97-4.41-9.12-4.41-9.12l4.58-0.28c0,0-0.57,0.83-0.63,1.66c0.2,1.31,1.08,2.71,1.61,4.53c0.94-1.65,1.59-3.12,1.91-4.54
			c-0.08-0.85-1.1-1.56-1.1-1.56l3.74,0.04c0,0-2.77,4.61-4.07,7.14c1.46,3.15,1.92,6.81,4.35,9.63c-1.21,0.7-2.03,0.76-4.42,0.26
			c-0.18-0.39,0.11-0.57,0.33-0.81c0.16-0.17,0.25-0.41,0.41-0.67c-0.6-1.59-1.2-3.19-1.84-4.86
			C816.6,770.97,816.26,771.88,816.22,773.86z"/>
		<path d="M577.74,885.32c-0.02-5.75-0.05-11.37-0.07-17.12c1.21-0.44,2.41-0.22,3.59-0.19c0.54,1.66,0.76,12.79,0.34,17.19
			C580.37,885.61,579.11,885.47,577.74,885.32z"/>
		<path d="M765.65,765.95c-1.3,0.98-2.6,1.96-3.9,2.94c1.38-2.53,3.37-4.64,4.32-7.43c0.29-0.55-0.42-1-0.28-1.56
			c0.93-0.84,2.35,0.03,3.19,1.93c1.42,0.49,2.49-0.41,3.58-0.97c1.41,0.04,2.14,0.8,2.67,2.14c-1.76,1.38-2.98,3.21-4.16,5.09
			c0.23,1.25,1.42,2.08,1.36,3.44c-0.21,0.67-0.68,1.02-1.42,0.87c-0.94-0.3-0.86-1.4-1.77-2c-2.43,1.96-4.75,4.35-8.66,4.89
			c3.03-2.04,5.6-3.93,7.48-6.69c-0.81-0.89-1.63-1.79-2.45-2.69c1.22,0.46,2.44,0.91,3.73,1.39c1.01-1.24,1.76-2.56,2.23-4.14
			c-1.14-0.37-2.19-0.15-3.32-0.14C767.37,763.99,766.51,764.97,765.65,765.95z"/>
		<path d="M644.05,764.8c-1.25-0.65-2.82-1.03-2.56-3.2c2.04,0.41,3.94,0.24,5.88-0.01c1.95-0.25,3.92-0.33,5.75-1.02
			c1.15,0.49,2.04,1.18,2.7,2.29c-2.04,3.43-3.96,6.96-7.39,9.33c-1.69,1.17-3.45,2.16-5.55,2.53c3.82-3.19,7.57-6.4,9.14-11.72
			C649.02,762.83,646.48,763.43,644.05,764.8z"/>
		<path d="M727.37,763.11c-2.93,0.07-5.49,0.39-7.82,1.78c-2.29-0.88-2.35-0.94-2.8-2.98c4.02,0.36,7.93-0.19,11.95-1.14
			c0.91,0.46,1.71,1.23,2.5,2.07c-2.42,4.42-4.99,8.46-9.49,10.83c-1.07,0.56-2.11,1.18-3.67,1.2
			C722.01,771.55,725.91,768.47,727.37,763.11z"/>
		<path d="M688.01,759.42c1.86-0.66,2.12-0.6,3.96,0.82c-0.08,1.22-1.06,2.4-0.42,3.86c1.32,0.42,2.65,0.17,4.01-0.3
			c0.79,0.1,1.58,0.27,2.2,0.77c0.31,0.53,0.33,0.98-0.29,1.5c-1.94-0.14-4.04-0.48-6.08-0.04c-1.53,6.04-2.62,7.61-6.61,9.59
			c0.06-1.03,1.03-1.32,1.47-1.99c0.5-0.75,1.1-1.45,1.52-2.24c0.38-0.72,0.54-1.54,0.85-2.3c0.35-0.87,0.36-1.73,0.23-2.69
			c-1.81-0.32-3.31,0.58-5.03,0.73c-1.05-0.27-2.01-0.78-2.33-2.2c2.44-0.33,4.83,0.1,7.33-0.33
			C688.86,762.87,689.55,761.1,688.01,759.42z"/>
		<path d="M827.5,758.14l2.08-0.16c0,0,0.79,6.25,1.36,9.37c0.62-3.06,1.45-9.18,1.45-9.18l1.72-0.18l-2.26,17.2l-2.36-0.04
			c0,0-0.45-5.68-0.8-8.52C828.35,763.81,827.5,758.14,827.5,758.14z"/>
		<path d="M676.53,761.91c0.3-1.11-0.18-1.94,0.19-2.7c2.09-0.09,2.22-0.03,3.7,1.95c-1.01,1.22-2.04,2.46-3.08,3.72
			c0.05,0.65,0.37,1.21,0.35,1.88c-0.05,2.37-0.09,4.75,0.38,7.11c0.21,1.07,0.19,2.15-1.02,2.77c-1.15-0.01-1.41-0.94-1.77-1.7
			c0.11-0.76,0.29-1.49,0.3-2.21c0.04-1.88,0-3.76-0.01-5.81c-2.17,1.51-3.95,3.25-6.48,3.77
			C671.85,767.93,674.53,765.16,676.53,761.91z"/>
		<path d="M747.74,852.79c0.01,3.31-2.54,5.96-5.82,6.06c-3.26,0.1-6.13-2.76-6.12-6.09c0.01-3.19,2.76-6.02,5.91-6.08
			C744.97,846.6,747.74,849.41,747.74,852.79z M744.73,856.02c1.64-0.61,1.42-2.18,1.8-3.38c-1.15-4.27-4.15-5.68-7.24-3.49
			c-2.17,0.98-2.23,2.88-1.9,4.79c0.31,1.76,1.56,2.82,3.26,3.32C742.28,857.74,743.69,857.5,744.73,856.02z"/>
		<path d="M663.31,765.56c1.16-0.39,1.82,0.47,2.66,0.65c0.67-0.34,0.71-1.06,1.13-1.73c-2.73-0.42-5.07,0.81-7.54,1.17
			c-1.12-0.93-1.12-0.93-1.41-2.48c3.63,0.73,7.12-0.09,10.64-0.75c0.78,0.65,1.34,1.41,1.51,2.28c-0.21,0.81-0.8,0.68-1.23,0.84
			c-1.81,0.69-3.27,1.66-4.1,3.61c-0.9,2.11-2.15,4.07-3.85,5.68c-0.58,0.54-1.11,1.16-2.26,1.48
			C661.3,772.93,663.38,769.74,663.31,765.56z"/>
		<path d="M743.69,762.51c0.77,0.75,1.45,1.42,1.75,2.62c-1.57,0.51-3,1.22-4.51,2.2c-1.76,3.15-3.07,6.89-6.65,8.97
			c-0.28-0.72,0.27-0.97,0.53-1.33c1.44-1.93,2.5-4.04,3.17-6.36c0.27-0.94,0.75-1.85-0.11-2.68c1.39-0.95,2.17,0.26,3.16,0.44
			c0.46-0.51,0.81-1.04,0.85-1.7c-0.13-0.13-0.24-0.34-0.33-0.33c-2.37,0.25-4.67,0.85-6.88,1.4c-1.08-0.55-1.74-1.17-1.6-2.47
			C736.64,764.03,740.05,763.25,743.69,762.51z"/>
		<path d="M707.53,773.43c-0.9-0.3-1.67-0.84-2.15-1.82c0.54-3.04,0.57-6.09-0.45-9.08c1.85-0.4,1.85-0.4,3.41,0.72
			c-0.08,2.13-0.87,4.28-0.39,6.68c2.51-1.38,4.42-3.36,6.39-5.25c0.69,0.55,0.1,0.92-0.1,1.26c-1.01,1.7-2.21,3.25-3.65,4.61
			C709.57,771.49,708.57,772.45,707.53,773.43z"/>
		<path d="M794.21,769.5c-1.3-1.18-2.03-2.17-1.26-3.57c0.94-0.41,1.15,0.61,1.78,0.74c4.09,0.1,8.19,0.15,12.29-0.15
			c1.73-0.12,2.04-0.01,3.08,1.27c-0.22,1.13-1.12,0.99-1.92,1c-2.71,0.02-5.42,0.07-8.12,0.04
			C798.08,768.82,796.14,768.97,794.21,769.5z"/>
		<path d="M750.23,774.56c-1.86-0.77-3.18-1.73-3.42-3.88c0.86-0.16,1.31,0.71,2.23,0.66c4.76-1.8,8.48-5.45,12.33-8.88
			c0.59,0.6,0.06,0.96-0.19,1.31c-1.75,2.4-3.63,4.68-5.93,6.59C753.62,771.72,751.98,773.09,750.23,774.56z"/>
		<path d="M790.69,764.52c-1.73,3.42-7.31,8.48-12.24,11.3c-1.37-0.9-2.05-2.14-1.95-3.86c0.91-0.19,1.5,0.6,2.27,0.35
			C782.98,770.07,786.99,767.55,790.69,764.52z"/>
		<polygon points="824.45,758.2 826.71,758.02 826.59,766.53 826.85,775.21 824.63,775.36 		"/>
		<path d="M700.94,763.01c1.75-0.06,1.75-0.06,3.27,1.6c-1.46,3.73-3.04,7.4-7.12,9.3c0.31-0.41,0.65-0.8,0.91-1.23
			c0.77-1.26,1.59-2.5,2.24-3.82C701.42,766.44,701.46,765.66,700.94,763.01z"/>
		<path d="M752.51,765.02c-0.5,0.55-1.12,0.56-1.9,0.34c-0.8-1.27-1.71-2.58-3.04-3.78C751.41,761.29,752.91,762.41,752.51,765.02z"
			/>
		<path d="M779.04,768.88c-0.92-1.01-1.84-2.02-2.92-3.2c0.99-0.5,1.93-0.35,2.79-0.31c1.05,0.4,1.7,1.08,1.97,2.13
			C780.76,768.59,780.22,769.12,779.04,768.88z"/>
		<path d="M782.51,764.98c-1.94-0.22-2.4-2.36-4.3-3.09c1.83-0.9,3.15-0.64,4.33,0.39C783.31,762.95,783.28,763.43,782.51,764.98z"
			/>
		<path d="M785.81,759.97c2.78,0.01,2.98,0.15,3.81,2.27c-0.2,0.58-0.53,1-1.34,1.01C787.28,762.46,786.9,761.15,785.81,759.97z"/>
		<path d="M787.83,758.03c1.91-0.37,3.24-0.03,3.91,1.66c0.01,0.54-0.24,0.83-0.63,1.1c-0.2-0.04-0.5,0-0.64-0.14
			C789.61,759.84,788.8,759,787.83,758.03z"/>
		<path d="M739.25,849.11c0.9-0.01,1.8,0,2.7-0.03c0.87-0.02,1.6,0.26,2.15,0.91c0.48,1.02,0.15,1.93-0.35,2.8
			c0.82,0.97,0.24,2.32,1.02,3.26c-0.56,0.02-1.12,0.26-1.66-0.08c-0.62-0.56-0.19-1.42-0.59-2.1c-0.36-0.4-0.81-0.69-1.45-0.51
			c-0.6,0.77,0.04,1.78-0.45,2.5c-0.31,0.33-0.62,0.27-1.14,0.12C739.07,853.76,739.41,851.42,739.25,849.11z M742.82,850.8
			c-0.52-0.09-0.82-0.17-1.13-0.2c-0.33-0.03-0.63,0.06-0.84,0.39c0.02,0.27-0.12,0.6,0.27,0.92
			C741.81,852.09,742.38,851.91,742.82,850.8z"/>
		<path d="M642.3,782.95c2.84-0.01,5.53-0.02,8.2-0.03c0.18,0.32,5.15,68.27,5.26,70.57c0.08,1.66,0.64,2.43,2.37,3.78
			c0.08,0.47,0.21,0.95-0.21,1.52c-4.01,0.02-8.1,0.03-12.2,0.05c-0.48-0.34-0.4-0.84-0.33-1.5c2.28-1.12,2.63-3.22,2.3-5.57
			c-0.35-2.44-0.41-4.9-0.52-7.48c-1.42-0.31-2.76-0.16-4.27-0.09c0.04,3.92-0.92,7.63-0.47,11.3c0.41,0.89,1.09,1.35,1.69,1.68
			c0.22,0.64,0.28,1.11-0.18,1.66c-3.33,0.01-6.76,0.03-10.16,0.04c-0.63-0.46-0.24-1.06-0.4-1.65c0.95-0.49,1.82-0.97,2.42-2.11
			C636.5,851.91,641.19,792.45,642.3,782.95z M645.49,811.32c-0.04,0-0.08,0.01-0.13,0.01c-0.65,9.04-1.3,18.07-1.97,27.26
			c1.33,0.01,2.5,0.28,3.59-0.21C646.48,829.26,645.99,820.29,645.49,811.32z"/>
	</g>
</g>
<path fill="none" stroke="#000000" stroke-width="10" stroke-miterlimit="10" d="M882.59,1031.34l-639.99,2.67
	c-11.05,0.05-20.04-8.87-20.08-19.92l-1.61-386.97c-0.05-11.05,8.87-20.04,19.92-20.08l639.99-2.67
	c11.05-0.05,20.04,8.87,20.08,19.92l1.61,386.97C902.56,1022.31,893.64,1031.3,882.59,1031.34z"/>
<path fill="none" stroke="#000000" stroke-width="10" stroke-miterlimit="10" d="M938.21,32.14l-759.55,3.17
	c-11.05,0.05-19.96,9.04-19.92,20.08l4.21,1008.95c0.05,11.05,9.04,19.96,20.08,19.92l759.55-3.17
	c11.05-0.05,19.96-9.04,19.92-20.08L958.29,52.06C958.24,41.01,949.25,32.1,938.21,32.14z M665.88,107.05
	c0.04,8.99-7.22,16.32-16.22,16.35l-181.71,0.76c-8.99,0.04-16.32-7.22-16.35-16.22l-0.01-1.71c-0.04-8.99,7.22-16.32,16.22-16.35
	l66.61-0.28c3.49-10,12.98-17.2,24.17-17.24c11.2-0.05,20.74,7.07,24.32,17.04l66.61-0.28c8.99-0.04,16.32,7.22,16.35,16.22
	L665.88,107.05z"/>
</svg>
