<?xml version="1.0" encoding="utf-8"?>
<!-- Generator: Adobe Illustrator 23.0.3, SVG Export Plug-In . SVG Version: 6.00 Build 0)  -->
<svg version="1.1" id="レイヤー_1" xmlns="http://www.w3.org/2000/svg" xmlns:xlink="http://www.w3.org/1999/xlink" x="0px"
	 y="0px" width="1121.23px" height="1121.23px" viewBox="0 0 1121.23 1121.23" enable-background="new 0 0 1121.23 1121.23"
	 xml:space="preserve">
<g>
	<g>
		<path d="M375.98,772c0.06,0.94,0.19,1.46-0.31,2.04c-1.55,0.54-3.36-0.08-5.13,0.38c116.61,89.49,282.23,83.93,390.41-0.2
			c-3.37,0-6.32,0-8.98,0c-0.58-0.69-0.55-1.1-0.46-1.51c3.04-2.84,3.04-2.84,3.05-7.32c0-9.24-0.03-18.48,0.02-27.71
			c0.02-3.48-0.56-6.87-1.06-10.28c-0.53-3.61-1.02-7.23-1.53-10.85c-0.57-4.03-1.14-8.06-1.69-12.09
			c-0.51-3.72-0.98-7.45-1.48-11.18c-0.43-3.21-0.82-6.42-1.33-9.61c-0.3-1.85-1.58-3.14-2.86-4.01c-0.3-0.91-0.22-1.5,0.06-2.25
			c4.81,0,9.6,0,14.41,0c0.65,0.41,0.47,1.07,0.5,1.52c-0.11,0.62-0.43,0.89-0.8,1.09c-1.65,0.92-1.87,2.39-1.61,4.06
			c0.64,4.03,0.85,8.11,1.19,12.17c0.27,3.12,0.72,6.23,1.02,9.34c0.19,1.96,0.25,3.94,0.48,5.91c0.82-3.9,1.17-7.84,1.58-11.79
			c0.49-4.67,1.07-9.34,1.7-13.99c0.34-2.54,0.29-4.85-2.17-6.17c-0.24-0.79-0.3-1.39,0.23-2.14c4.66,0,9.45,0,14.3,0
			c0.8,0.63,0.41,1.45,0.33,2.32c-0.89,0.41-1.73,0.79-2.44,1.12c-0.8,0.96-1.07,1.91-1.21,3c-0.75,5.8-1.6,11.58-2.37,17.37
			c-0.51,3.83-0.91,7.67-1.41,11.5c-0.53,4.04-1.25,8.05-1.63,12.1c-0.48,5.09-1.6,10.11-1.52,15.27c0.13,8.5,0.04,17.01,0.03,25.51
			c0,1.48-0.04,2.94,1.24,4.44c5.3-3.84,10.18-8.23,15.07-12.59c4.85-4.33,9.56-8.81,14.16-13.52c0.64,1.07-0.24,1.45-0.66,1.9
			c-7.58,8.14-15.34,16.11-23.74,23.42c-0.95,0.82-1.84,1.71-2.77,2.57c-0.13,0.73-0.25,1.43-0.35,2.03
			c-0.83,0.71-1.76,0.17-2.55,0.6c-58.08,47.78-124.55,72.92-200.04,72.9c-75.48-0.02-141.96-25.16-200.17-73.09
			c-0.75,0-1.58,0-2.42,0c-0.83,0-1.66,0-2.44,0c-0.57-1.89-0.57-1.89,0.78-3.67c-1.52-1.41-3.49-3.11-5.17-4.67
			c-0.06,1.99,0.17,2.97,0.29,3.79c0.53,1.45,1.66,1.78,2.29,2.54c0.1,0.58,0.18,1.09-0.09,1.53c-0.11,0.12-0.18,0.25-0.26,0.26
			c-4.49,0.51-8.99,0.08-13.32,0.23c-0.91-0.67-0.65-1.41-0.65-2.17c0.82-0.49,1.62-0.97,2.62-1.56c0.87-4.23,1.01-4.96,1.57-11.85
			c-6.08-6.01-11.45-11.54-17.05-18.18c1.65,0.39,2.17,1.55,2.99,2.3c1.01,0.92,1.93,1.93,2.89,2.89c0.89,0.89,1.79,1.78,2.68,2.66
			c0.9,0.88,1.8,1.76,2.7,2.64c0.98,0.95,1.96,1.9,2.95,2.84c0.89,0.84,1.81,1.66,3.12,2.86c0.59-5.62,6.58-73.86,7.53-79.1
			c1.76-0.66,3.55-0.25,5.29-0.33c1.66-0.07,3.32-0.02,5.15-0.02c0.28,2.06,5.82,83.26,5.95,89.76
			C372.92,769.22,373.78,771.08,375.98,772z M362.02,748.22c0-1.62,0.04-2.97-0.01-4.32c-0.13-3.55-0.58-7.08-0.64-10.65
			c-0.1-6.27-0.43-12.55-0.68-18.82c-0.01-0.31-0.11-0.61-0.19-1.07c-0.91,11.67-1.8,23.19-2.71,34.86
			C359.22,748.22,360.44,748.22,362.02,748.22z M356.4,763.44c0.45,0.33,0.97,0.69,1.45,1.08c1.52,1.22,3.03,2.45,4.61,3.73
			c0.04-6.46-0.43-9.47-0.76-12.92c-1.43,0.17-2.48,0.23-4.59,0.3C356.9,758.55,356.69,759.22,356.4,763.44z"/>
		<path d="M583.43,774.14c-3.15,0-6.17,0-9.25,0c-0.73-0.66-0.83-1.67-0.97-2.53c-0.95-5.87-1.76-11.76-2.7-17.63
			c-1.16-7.2-2.44-14.39-3.59-21.59c-1-6.28-1.9-12.57-3.21-18.86c0,1.08,0,2.16,0,3.24c0,16.47,0.04,32.95-0.04,49.42
			c-0.01,2.72,0.43,4.99,2.85,6.14c0.34,0.67,0.25,1.07,0.13,1.47c-0.72,0.61-9.58,0.73-14.16,0.17c-0.87-2.62,2.64-2.7,2.93-4.66
			c0-1.15,0-2.3,0-3.45c0-26.34-0.02-52.68,0.02-79.01c0-3.02-0.07-5.9-2.87-7.85c-0.14-0.09-0.18-0.37-0.2-0.57
			c-0.02-0.2,0.06-0.4,0.1-0.61c1.98-0.7,10.6-0.88,15.21-0.27c2.9,17.65,5.23,35.49,8.41,53.24c0-1.24,0-2.49,0-3.73
			c0-13.33-0.01-26.65,0.01-39.98c0-2-0.12-3.97-0.74-5.88c-0.38-1.15-1.8-1.45-2.14-2.58c0-0.65,0.28-1.17,0.84-1.22
			c4.05-0.33,8.09-0.11,11.9-0.14c0.54,1.1,0.39,1.69-0.13,2.14c-1.78,1.51-2.06,3.52-2.04,5.69c0.04,4.93,0.01,9.86,0.01,14.8
			c0,23.5,0,47.01-0.01,70.51C583.77,771.54,583.99,772.7,583.43,774.14z"/>
		<path d="M296.81,773.89c-0.34-0.48-0.27-0.98-0.02-1.62c0.87-0.85,2.19-1.45,2.88-3.46c0-0.48,0-1.63,0-2.78
			c0-26.45-0.02-52.89,0.03-79.34c0.01-3.16-0.08-6.13-3.05-7.77c0-1.28,0.6-1.64,1.42-1.64c4.39-0.02,8.78-0.01,13.47-0.01
			c3.01,17.7,5.73,35.28,8.63,52.85c0.49-0.23,0.22-0.74,0.28-1.12c0.06-0.41,0.02-0.84,0.02-1.26c0-14.27-0.01-28.54,0.01-42.82
			c0-2.29-0.25-4.41-2.39-5.62c-0.25-0.62-0.25-1.13,0.01-1.64c0.81-0.61,9.46-0.64,12.36-0.03c0.48,0.88,0.16,1.57-0.48,2.24
			c-1.46,1.53-1.86,3.43-1.86,5.49c0.03,16.9,0.05,33.79,0.05,50.69c0,12.07-0.03,24.13-0.05,36.2c0,0.51-0.05,1.03-0.1,1.91
			c-3.24,0.15-6.42,0.1-9.82,0.02c-3.33-19.72-6.63-39.29-9.94-58.86c-0.09,0.01-0.17,0.01-0.26,0.02c0,18.22,0,36.45,0,54.67
			c0.46,1.51,3.04,1.66,2.42,3.76C308.19,774.37,299.79,774.44,296.81,773.89z"/>
		<path d="M700.83,740.33c4.19-2.43,7.99-4.63,11.76-6.83c0.75,0.68,0.48,1.48,0.32,2.11c-1.19,4.82-1.27,9.73-1.26,14.65
			c0.01,3.99,0.1,7.97,0.04,11.96c-0.02,1.51,0.46,2.89,0.78,4.31c0.21,0.94,0.81,1.7,1.9,1.78c1.11-0.35,1.46-1.36,1.55-2.22
			c0.2-1.87,0.81-3.66,0.81-5.58c0-2.61,0.35-5.22,0.48-7.83c0.49-9.8-1.87-18.83-7.26-27.09c-2.34-3.59-4.6-7.24-6.47-11.11
			c-2.03-4.21-2.91-8.71-3.14-13.31c-0.19-3.87-0.05-7.76-0.05-11.64c0-2.44,0.68-4.75,1.45-7.02c0.67-1.97,2.12-3.39,3.85-4.43
			c4.9-2.96,11.09-2.72,15.49,1.04c1.25,1.07,2.14,2.3,2.56,3.85c0.47,1.71,0.86,3.44,1.18,5.18c0.44,2.41,0.38,13.66-0.04,16.47
			c-3.15,1.71-6.41,3.48-9.92,5.38c0-1.5-0.17-2.66,0.03-3.76c0.98-5.31,0.53-10.66,0.48-15.99c-0.02-1.65-0.38-3.32-0.76-4.94
			c-0.21-0.88-0.61-1.82-1.93-2.19c-0.84,0.36-1.45,1.04-1.64,2.19c-0.23,1.44-0.58,2.85-0.6,4.34c-0.1,6.08-0.09,12.12,1.8,18.01
			c1.64,5.14,4.34,9.73,7.25,14.2c3.1,4.77,5.69,9.71,7.01,15.3c1.31,5.54,1.86,11.1,1.72,16.78c-0.11,4.52-0.51,8.98-2.05,13.25
			c-1.21,3.34-3.01,6.32-6.57,7.56c-5.7,1.97-12.9,0.97-16.17-5.66c-0.98-1.99-1.69-4.04-2.1-6.2
			C699.91,755.4,699.99,747.92,700.83,740.33z"/>
		<path d="M486.27,741.83c-1.23,0.35-2.04,0.44-2.99-0.09c-0.5-2.44-0.17-5.09-0.89-7.63c-0.57-2.02-1.13-4.02-2.15-5.86
			c-0.67-1.22-1.52-2.24-2.99-2.46c-0.78,0.59-0.48,1.39-0.48,2.07c-0.02,12.7,0.02,25.4-0.04,38.11c-0.01,2.89,0.72,5.18,3.48,6.21
			c0.33,0.66,0.36,1.16,0.13,1.67c-0.72,0.59-15.52,0.66-19.02,0.08c-0.42-0.45-0.28-0.95-0.16-1.61c1.13-0.88,2.86-1.24,3.52-3.76
			c0-28.44,0-57.72,0-86.9c-0.62-1.72-2.26-1.78-3.42-2.22c-0.38-0.68-0.34-1.18-0.16-1.7c2.09-0.63,28.01-0.85,32.84-0.27
			c0,14.79,0.16,22.21,0.16,32.94c-0.25,0.08-0.53,0.23-0.82,0.23c-0.61,0.01-1.21-0.07-1.9-0.11c-0.92-5.17-1.75-10.2-3.36-15.05
			c-1.06-3.2-2.36-6.27-4.47-8.93c-1.66-2.08-3.8-3.11-6.64-2.86c0,10.93,0,21.68,0,32.46c2.21,0.4,3.29-0.92,4.15-2.37
			c1.24-2.1,1.81-4.42,1.92-6.87c0.07-1.55-0.15-3.14,0.34-4.56c0.8-0.8,1.62-0.62,2.5-0.44c0.12,0.25,0.35,0.52,0.36,0.79
			c0.04,4.09,0.05,8.19,0.06,12.28c0.01,7.87,0,15.75,0,23.62C486.27,739.63,486.27,740.67,486.27,741.83z"/>
		<path d="M861.48,679.26c0.05-0.59,0.09-1.1,0.13-1.54c0.85-0.66,9.65-0.78,14.09-0.26c0.6,0.47,0.39,1.12,0.4,1.77
			c-0.47,1.07-1.8,1.42-2.39,2.98c-0.66,2.63,0.37,5.59,0.74,8.57c0.66,5.28,1.53,10.53,2.35,15.78c0.94,6.08,1.94,12.15,2.88,18.24
			c0.79,5.15,1.53,10.32,2.53,15.52c0.47-2.94,0.95-5.87,1.4-8.81c0.79-5.16,1.58-10.31,2.34-15.47c0.72-4.85,1.39-9.71,2.09-14.56
			c0.75-5.16,1.45-10.33,2.29-15.48c0.42-2.63,0.52-5.04-1.98-6.59c-0.27-0.79-0.11-1.36,0.46-2.02c3.94,0,7.99,0,11.95,0
			c0.8,0.67,0.45,1.4,0.54,2.24c-3.65,1.26-3.26,4.55-3.68,7.34c-0.92,5.98-1.67,11.99-2.45,17.99c-0.51,3.94-0.9,7.89-1.42,11.82
			c-0.51,3.93-1.15,7.85-1.67,11.78c-0.52,3.93-0.95,7.88-1.46,11.81c-0.51,3.93-1.09,7.86-1.62,11.79
			c-0.52,3.83-1.11,7.65-1.46,11.49c-0.18,1.97-1.08,3.87-0.59,5.91c0.3,1.21,1.21,1.89,2.14,2.39c0.45,0.69,0.23,1.3,0.23,1.81
			c-0.72,0.64-10.79,0.79-16.64,0.33c-0.66-0.43-0.5-1.06-0.41-1.79c0.58-0.89,1.96-1.11,2.52-2.91c0.21-2.31,0.16-5.2-0.31-8.12
			c-0.63-3.92-1.03-7.87-1.55-11.8c-0.53-4.03-1.1-8.06-1.63-12.1c-0.52-3.93-1-7.87-1.52-11.81c-0.53-4.03-1.1-8.07-1.64-12.1
			c-0.51-3.83-1-7.66-1.5-11.49c-0.55-4.14-1.04-8.29-1.68-12.41c-0.27-1.75-0.24-3.52-0.69-5.28
			C863.54,681.53,863.7,681.49,861.48,679.26z"/>
		<path d="M516.74,677.41c3.61,0,7.05,0,10.44,0c0.23,0.41,6.2,86.98,6.33,89.91c0.09,2.12,0.8,3.1,3,4.82
			c0.09,0.6,0.26,1.21-0.27,1.93c-5.11,0-10.32,0-15.54,0c-0.62-0.43-0.51-1.07-0.42-1.92c2.91-1.42,3.37-4.09,2.95-7.08
			c-0.43-3.11-0.5-6.24-0.63-9.53c-1.81-0.4-3.52-0.22-5.44-0.14c0.03,4.99-1.21,9.71-0.66,14.39c0.51,1.14,1.38,1.73,2.15,2.15
			c0.28,0.82,0.35,1.41-0.24,2.12c-4.24,0-8.61,0-12.95,0c-0.8-0.59-0.3-1.35-0.5-2.1c1.21-0.62,2.32-1.23,3.09-2.68
			C508.98,765.21,515.27,689.51,516.74,677.41z M520.64,713.56c-0.05,0-0.11,0.01-0.16,0.01c-0.88,11.5-1.76,23.01-2.65,34.71
			c1.69,0.02,3.19,0.37,4.57-0.25C521.81,736.41,521.23,724.99,520.64,713.56z"/>
		<path d="M229.66,772.04c0.2,0.85,0.27,1.35-0.15,2.01c-5.81,0-11.73,0-17.59,0c-0.62-0.59-0.39-1.22-0.29-2.01
			c2.84-0.74,3.66-2.85,3.65-5.66c-0.04-27.7-0.02-55.4-0.02-83.09c0-0.42,0-0.83,0-0.99c-0.63-1.98-2.06-2.56-3.49-2.78
			c-0.38-0.84-0.43-1.42,0.11-2.14c10.13,0,20.37,0,30.6,0c0,18.14,0.3,25.15,0.3,32.86c-0.17,0.11-0.32,0.29-0.5,0.32
			c-0.72,0.13-1.44,0.23-2.22-0.17c-1.24-2.11-0.91-4.61-1.38-6.93c-0.92-4.51-1.93-8.96-3.79-13.19c-0.68-1.55-1.54-2.98-2.62-4.26
			c-1.5-1.77-3.38-2.73-5.77-2.32c-0.49,2.47-0.56,29.06-0.09,32.49c1.86,0.33,3.11-0.55,4.14-2.02c1.76-2.51,2.05-5.43,2.33-8.34
			c0.12-1.22,0.02-2.47,0.02-3.47c1.1-0.8,1.92-0.58,2.8-0.45c0.12,0.24,0.37,0.51,0.38,0.78c0.05,2.1,0.06,4.19,0.06,6.29
			c0.01,9.86,0,19.72,0,29.59c0,1.04,0,2.08,0,3.02c-0.99,0.79-1.89,0.56-2.86,0.35c-0.11-0.27-0.31-0.54-0.33-0.83
			c-0.18-3.9-1.04-7.65-2.56-11.23c-0.76-1.78-1.54-3.68-3.77-4.14c-0.82,0.8-0.5,1.69-0.51,2.48c-0.02,12.28-0.02,24.55-0.01,36.83
			c0,1.05,0.07,2.07,0.33,3.11C226.9,769.98,227.69,771.46,229.66,772.04z"/>
		<path d="M615.65,687.57c-2.36,3.65-3.4,7.7-4.39,11.74c-0.99,4.03-1.77,8.12-2.63,12.1c-1.06,0.76-2.08,0.35-3.3,0.42
			c-0.66-11.47,0.81-22.72,0.52-34.3c3.43-0.53,6.66-0.21,9.86-0.27c3.25-0.06,6.51-0.01,9.76-0.01c3.23,0,6.46,0,9.85,0
			c0.89,11.54,0.79,22.83,0.82,34.1c-1.14,0.84-2.28,0.48-3.58,0.4c-1.61-8.12-2.21-16.52-6.51-24.01c0,1.09,0,2.18,0,3.27
			c0,24.66,0,49.32,0,73.99c0,2.72-0.29,5.5,2.26,7.45c0.18,0.14,0.16,0.59,0.16,0.89c0,0.19-0.15,0.37-0.3,0.73
			c-4.81,0-9.7,0-14.58,0c-0.47-0.36-0.64-0.82-0.49-1.62c2.53-1.16,2.89-3.44,2.88-6.13c-0.07-25.29-0.04-50.58-0.05-75.87
			C615.92,689.53,616.14,688.58,615.65,687.57z"/>
		<path d="M842.67,772.11c0,0.66,0,1.17,0,1.63c-0.76,0.68-12.52,0.8-16.54,0.23c-0.49-0.55-0.39-1.13-0.07-1.72
			c3.57-2.45,4.16-4.21,3.14-8.86c-1.07-4.88-2.08-9.78-3.24-15.27c-1.51,3.92-1.89,7.6-2.64,11.14c-0.75,3.53-2.14,7.05-1.19,10.78
			c0.32,1.47,2.93,1.69,1.96,4.11c-4.04,0.25-8.2,0.04-12.17,0.11c-0.83-0.55-0.72-1.19-0.6-2.03c1.47-1.06,3.14-2.21,3.59-4.3
			c0.24-1.12,0.44-2.25,0.65-3.38c1.87-10.25,3.64-20.52,5.64-30.75c1-5.11,0.85-10.07-0.25-15.14c-1.14-5.29-1.89-10.67-2.81-16.02
			c-1.06-6.16-2.11-12.33-3.16-18.5c-0.37-2.16-1.66-3.56-3.45-4.28c-0.47-0.91-0.52-1.6,0-2.46c5.12,0,10.33,0,15.6,0
			c0.68,0.49,0.56,1.2,0.35,2.14c-1.45,1.15-3.85,1.62-4.16,4.32c1.07,5.48,2.18,11.16,3.29,16.84c1.88-6.4,3.42-12.85,4.39-19.08
			c-1.31-2.46-1.31-2.46-0.99-4.17c1.99-0.45,4.09-0.16,6.15-0.21c2.08-0.05,4.15-0.01,5.87-0.01c0.94,0.81,0.59,1.45,0.73,2.1
			c-0.41,0.26-0.72,0.55-1.1,0.69c-2.44,0.91-3.5,2.84-3.94,5.24c-0.84,4.51-1.67,9.02-2.52,13.52c-1.39,7.37-2.73,14.76-4.2,22.11
			c-0.64,3.2,0.17,6.23,0.69,9.31c0.93,5.55,1.93,11.09,2.9,16.63c1.09,6.26,2.11,12.54,3.29,18.79
			C838.41,768.49,840.01,770.79,842.67,772.11z"/>
		<path d="M421.17,774.14c-9.83,0-19.46,0-29.02,0c-0.71-0.51-0.53-1.15-0.47-1.94c2.18-1.59,3.11-3.9,3.11-6.67
			c-0.01-26.98,0-53.96-0.01-80.94c0-0.42-0.05-0.83-0.07-1.09c-0.69-1.71-2.07-2.52-3.35-3.4c-0.36-0.84-0.35-1.63,0.12-2.35
			c0.71-0.68,12.26-0.82,16.91-0.24c0.59,0.72,0.32,1.55,0.26,2.56c-2.68,1.47-3.01,4.01-3,6.92c0.07,25.83,0.04,51.65,0.04,77.48
			c0,1.03,0,2.07,0,3.32c2.63-0.55,3.95-2.23,5.08-4.11c2.44-4.09,3.7-8.61,4.83-13.18c1.28-5.16,2.13-10.4,2.73-15.6
			c0.94-0.79,1.82-0.6,2.66-0.34C421.59,735.23,421.72,769.12,421.17,774.14z"/>
		<path d="M275.95,771.98c0.34,0.78,0.42,1.28,0.17,1.82c-0.64,0.6-11.71,0.74-16.46,0.19c-0.54-0.5-0.36-1.13-0.29-1.9
			c1.08-0.77,2.45-1.43,3.14-3.33c0-0.4,0-1.24,0-2.07c0-26.95-0.01-53.91,0.02-80.86c0-2.79-0.5-5.21-3.05-6.56
			c-0.23-0.69-0.25-1.2,0.09-1.76c0.22-0.08,0.5-0.28,0.79-0.28c4.61-0.03,9.23-0.03,13.84-0.04c0.84,0,1.75-0.09,2.02,1.11
			c-0.02,0.12,0.02,0.42-0.1,0.51c-2.42,1.82-2.88,4.3-2.88,7.19c0.07,26.85,0.06,53.7,0.01,80.55
			C273.25,769.04,273.44,771.2,275.95,771.98z"/>
		<path d="M844.69,679.63c-0.14-0.92-0.18-1.44,0.11-1.95c0.81-0.66,11.54-0.74,14.89-0.09c0.49,0.34,0.62,0.81,0.49,1.63
			c-2.51,1.77-2.96,4.5-2.95,7.58c0.06,26.44,0.03,52.88,0.03,79.32c0,0.21,0.02,0.42,0,0.63c-0.23,2.51,0.32,4.59,2.91,5.36
			c0.2,0.71,0.26,1.22-0.02,1.71c-0.64,0.6-10.93,0.72-15.31,0.15c-0.08-0.25-0.22-0.52-0.25-0.81c-0.03-0.3,0.06-0.62,0.1-1
			c1.06-0.78,2.31-1.42,3.04-3.13c0-0.55,0-1.49,0-2.43c0-26.75-0.02-53.51,0.04-80.26C847.78,683.51,847.23,681.15,844.69,679.63z"
			/>
		<path d="M643.9,807.46c0-7.34,0-14.52,0-21.67c2.44-0.56,27.64-0.65,30.89-0.13c0.45,1.17,0.35,2.38,0.01,3.92
			c-2.73,0.51-5.54,0.19-8.33,0.24c-2.73,0.05-5.45,0.01-8.18,0.01c-2.83,0-5.66,0-8.49,0c-0.81,1.37-0.39,2.72-0.42,4.19
			c2.64,0.54,5.24,0.19,7.82,0.25c2.62,0.06,5.24,0.01,7.87,0.01c2.59,0,5.18,0,7.52,0c0.72,1.02,0.49,1.78,0.53,2.49
			c0.03,0.52-0.03,1.05-0.67,1.81c-3.54,0.25-7.39,0.07-11.23,0.1c-3.85,0.03-7.71,0.01-11.72,0.01c0,1.5,0,2.73,0,4.13
			c1.93,0.64,4.03,0.22,6.07,0.29c2.2,0.07,4.4,0.02,6.61,0.02c2.1,0,4.2,0,6.29,0c2.08,0,4.15,0,5.97,0
			c0.83,0.89,0.6,1.66,0.62,2.37c0.01,0.6-0.09,1.21-0.15,1.94C664.51,807.46,654.29,807.46,643.9,807.46z"/>
		<path d="M459.71,807.71c-2.09,0-4.19,0.06-6.28-0.01c-9.05-0.32-11.62-8.05-10.44-13.87c1.29-6.36,6.11-8.66,10.64-8.88
			c4.28-0.21,8.59-0.22,12.87,0.01c4.19,0.22,7.78,1.96,9.65,5.95c2,4.26,1.8,8.58-0.85,12.54c-1.8,2.68-4.59,3.95-7.74,4.17
			c-2.6,0.18-5.23,0.04-7.84,0.04C459.71,807.67,459.71,807.69,459.71,807.71z M459.35,789.36c-1.65,0.15-3.96-0.34-6.22,0.38
			c-3.43,1.09-4.89,3.21-4.79,7.11c0.09,3.55,1.72,5.65,5.27,6.34c4.24,0.82,8.51,0.73,12.77,0.04c0.41-0.07,0.84-0.11,1.22-0.25
			c1.86-0.69,3.41-1.9,3.85-3.84c1.14-4.94-0.11-9.15-6.45-9.75C463.34,789.23,461.66,789.36,459.35,789.36z"/>
		<path d="M522.02,807.52c-2.03,0-3.79,0-5.86,0c-6.61-5.22-13.42-10.61-20.59-16.27c0,5.53,0,10.72,0,16.02
			c-1.88,0.57-3.52,0.3-5.14,0.28c-0.64-2.14-0.79-18.36-0.21-22.33c3.2-0.33,6.12-0.48,8.96,2.05c4.84,4.31,10.11,8.15,15.21,12.17
			c0.73,0.57,1.42,1.24,2.63,1.58c0-5.19,0-10.29,0-15.5c1.78-0.27,3.29-0.27,4.99-0.01C522.02,792.83,522.02,800.02,522.02,807.52z
			"/>
		<path d="M603.48,791.02c0,3.12,0,5.73,0,8.33c0,2.61,0,5.22,0,7.88c-1.68,0.66-3.23,0.32-4.74,0.33
			c-0.66-2.14-0.81-18.59-0.2-22.33c1.8-0.41,3.68-0.12,5.88-0.18c6.63,5.23,13.45,10.61,20.7,16.33
			c0.21-5.49-0.01-10.54,0.14-15.37c0.86-0.92,1.75-0.6,2.55-0.65c0.73-0.05,1.46-0.01,2.15-0.01c0.63,2.29,0.77,18.13,0.2,22.12
			c-1.82,0-3.68,0-5.83,0C617.66,802.19,610.76,796.75,603.48,791.02z"/>
		<path d="M536.58,785.53c1.7-0.27,3.22-0.26,5.02,0c0,5.82,0,11.54,0,17.52c7.78,0,15.29,0,22.74,0c0.87,1.5,0.49,2.83,0.45,4.49
			c-9.39,0.19-18.66,0.05-27.88,0.09C536.26,805.18,536.07,791.53,536.58,785.53z"/>
		<path d="M883.16,666.76c0.06,0.9,1.34,0.65,1.35,1.72c-1.67,0.65-3.3,0.64-5.16-0.12c3.46-2.5,3.71-6.54,5.71-9.73
			c-2.03-3.79-5.57-11.63-5.57-11.63l5.83-0.33c0,0-0.73,1.05-0.82,2.11c0.24,1.67,1.36,3.46,2.03,5.77
			c1.21-2.09,2.04-3.96,2.45-5.77c-0.1-1.08-1.39-1.99-1.39-1.99l4.76,0.06c0,0-3.55,5.85-5.22,9.07c1.85,4.02,2.41,8.69,5.49,12.29
			c-1.55,0.89-2.59,0.96-5.64,0.3c-0.22-0.5,0.15-0.73,0.43-1.03c0.21-0.22,0.32-0.52,0.52-0.86c-0.75-2.02-1.52-4.07-2.31-6.2
			C883.65,663.07,883.22,664.24,883.16,666.76z"/>
		<path d="M578.83,807.45c0-7.33,0-14.49,0-21.8c1.54-0.55,3.07-0.27,4.58-0.22c0.68,2.12,0.9,16.29,0.34,21.9
			C582.17,807.83,580.57,807.66,578.83,807.45z"/>
		<path d="M818.79,656.41c-1.66,1.24-3.33,2.48-4.99,3.72c1.77-3.22,4.32-5.9,5.54-9.44c0.37-0.7-0.53-1.27-0.34-1.99
			c1.19-1.07,2.99,0.05,4.05,2.48c1.81,0.63,3.18-0.51,4.56-1.22c1.79,0.06,2.72,1.03,3.39,2.74c-2.25,1.75-3.81,4.07-5.33,6.46
			c0.29,1.59,1.79,2.65,1.72,4.39c-0.27,0.86-0.88,1.29-1.82,1.1c-1.2-0.39-1.09-1.79-2.24-2.56c-3.1,2.49-6.07,5.51-11.06,6.18
			c3.87-2.58,7.16-4.97,9.56-8.48c-1.02-1.14-2.06-2.29-3.1-3.44c1.55,0.59,3.11,1.17,4.74,1.79c1.29-1.57,2.26-3.25,2.86-5.26
			c-1.45-0.47-2.79-0.2-4.23-0.2C820.99,653.92,819.89,655.17,818.79,656.41z"/>
		<path d="M663.92,654.3c-1.59-0.83-3.58-1.32-3.24-4.08c2.6,0.53,5.02,0.33,7.49,0.02c2.49-0.31,5-0.39,7.33-1.27
			c1.46,0.63,2.59,1.51,3.43,2.94c-2.61,4.36-5.08,8.84-9.47,11.84c-2.16,1.48-4.41,2.73-7.09,3.19c4.88-4.04,9.68-8.11,11.71-14.87
			C670.27,651.82,667.03,652.57,663.92,654.3z"/>
		<path d="M770.06,652.59c-3.74,0.08-7,0.47-9.98,2.23c-2.91-1.13-2.98-1.21-3.56-3.8c5.12,0.48,10.1-0.2,15.22-1.39
			c1.15,0.58,2.17,1.58,3.18,2.65c-3.1,5.62-6.4,10.75-12.14,13.74c-1.36,0.71-2.7,1.49-4.68,1.51
			C763.18,663.31,768.16,659.41,770.06,652.59z"/>
		<path d="M719.94,647.68c2.37-0.83,2.7-0.75,5.04,1.06c-0.1,1.56-1.36,3.05-0.55,4.91c1.67,0.54,3.38,0.23,5.11-0.36
			c1.01,0.13,2.01,0.35,2.8,0.99c0.39,0.68,0.41,1.25-0.38,1.91c-2.47-0.19-5.15-0.64-7.74-0.08c-1.98,7.68-3.37,9.68-8.47,12.18
			c0.08-1.31,1.31-1.68,1.88-2.53c0.64-0.96,1.41-1.84,1.95-2.84c0.49-0.91,0.7-1.96,1.1-2.93c0.45-1.1,0.47-2.2,0.3-3.43
			c-2.31-0.42-4.22,0.72-6.41,0.91c-1.34-0.35-2.56-1.01-2.96-2.81c3.11-0.4,6.15,0.16,9.34-0.38
			C721,652.09,721.9,649.83,719.94,647.68z"/>
		<path d="M897.61,646.79l2.66-0.19c0,0,0.98,7.96,1.69,11.94c0.81-3.89,1.89-11.68,1.89-11.68l2.2-0.22l-2.96,21.9l-3.01-0.06
			c0,0-0.54-7.24-0.97-10.85C898.66,654.02,897.61,646.79,897.61,646.79z"/>
		<path d="M705.31,650.8c0.38-1.41-0.23-2.47,0.26-3.44c2.67-0.11,2.83-0.02,4.7,2.5c-1.29,1.54-2.61,3.12-3.94,4.72
			c0.06,0.83,0.46,1.54,0.44,2.39c-0.07,3.02-0.14,6.05,0.45,9.06c0.26,1.36,0.23,2.74-1.31,3.52c-1.47-0.02-1.79-1.2-2.24-2.18
			c0.14-0.97,0.38-1.89,0.4-2.82c0.06-2.39,0.02-4.79,0.02-7.4c-2.77,1.91-5.05,4.12-8.28,4.77
			C699.31,658.44,702.75,654.92,705.31,650.8z"/>
		<path d="M795.53,766.92c-0.01,4.22-3.27,7.57-7.45,7.68c-4.15,0.11-7.79-3.54-7.76-7.79c0.03-4.07,3.55-7.66,7.55-7.72
			C792.02,759.03,795.54,762.62,795.53,766.92z M791.67,771.03c2.1-0.77,1.82-2.77,2.31-4.29c-1.45-5.44-5.25-7.26-9.21-4.48
			c-2.76,1.24-2.86,3.66-2.44,6.09c0.38,2.24,1.97,3.59,4.13,4.24C788.54,773.2,790.34,772.9,791.67,771.03z"/>
		<path d="M688.45,655.38c1.47-0.5,2.31,0.61,3.39,0.84c0.85-0.43,0.91-1.35,1.44-2.2c-3.47-0.55-6.47,1.01-9.61,1.45
			c-1.42-1.19-1.42-1.19-1.78-3.17c4.62,0.94,9.06-0.08,13.56-0.9c0.99,0.83,1.7,1.8,1.91,2.91c-0.27,1.03-1.02,0.86-1.57,1.06
			c-2.31,0.87-4.17,2.1-5.24,4.57c-1.16,2.68-2.75,5.18-4.93,7.22c-0.74,0.69-1.41,1.47-2.89,1.87
			C685.85,664.75,688.51,660.7,688.45,655.38z"/>
		<path d="M790.84,651.91c0.98,0.95,1.85,1.82,2.22,3.35c-2,0.64-3.83,1.53-5.76,2.78c-2.25,4.01-3.95,8.75-8.52,11.39
			c-0.35-0.92,0.34-1.24,0.68-1.69c1.85-2.45,3.2-5.14,4.07-8.08c0.35-1.2,0.96-2.35-0.13-3.41c1.78-1.2,2.77,0.35,4.02,0.58
			c0.59-0.64,1.03-1.32,1.1-2.16c-0.16-0.17-0.3-0.43-0.42-0.42c-3.01,0.31-5.95,1.06-8.77,1.75c-1.37-0.71-2.21-1.5-2.03-3.15
			C781.86,653.81,786.21,652.83,790.84,651.91z"/>
		<path d="M744.73,665.64c-1.14-0.38-2.12-1.08-2.73-2.34c0.71-3.86,0.76-7.75-0.52-11.57c2.36-0.51,2.36-0.51,4.34,0.94
			c-0.12,2.71-1.13,5.44-0.53,8.5c3.2-1.74,5.64-4.26,8.16-6.65c0.87,0.7,0.12,1.17-0.14,1.6c-1.3,2.16-2.84,4.13-4.68,5.85
			C747.34,663.17,746.05,664.39,744.73,665.64z"/>
		<path d="M855.15,661.08c-1.64-1.51-2.57-2.77-1.58-4.55c1.2-0.52,1.46,0.79,2.26,0.95c5.21,0.15,10.43,0.23,15.65-0.12
			c2.2-0.15,2.6,0,3.92,1.63c-0.29,1.43-1.43,1.26-2.46,1.27c-3.45,0.02-6.9,0.06-10.35,0.01
			C860.08,660.24,857.61,660.43,855.15,661.08z"/>
		<path d="M799.1,667.29c-2.36-0.99-4.04-2.22-4.34-4.96c1.1-0.2,1.66,0.91,2.84,0.86c6.07-2.27,10.82-6.9,15.75-11.25
			c0.75,0.76,0.08,1.23-0.25,1.67c-2.24,3.04-4.64,5.94-7.58,8.36C803.43,663.7,801.35,665.43,799.1,667.29z"/>
		<path d="M850.7,654.73c-2.22,4.35-9.35,10.76-15.64,14.33c-1.74-1.16-2.6-2.74-2.46-4.93c1.15-0.24,1.9,0.78,2.89,0.46
			C840.84,661.75,845.97,658.56,850.7,654.73z"/>
		<polygon points="893.72,646.85 896.61,646.64 896.41,657.48 896.69,668.54 893.87,668.71 		"/>
		<path d="M736.39,652.33c2.23-0.06,2.23-0.06,4.15,2.05c-1.88,4.75-3.91,9.4-9.11,11.81c0.39-0.52,0.83-1.01,1.17-1.56
			c0.99-1.6,2.04-3.18,2.87-4.86C736.99,656.69,737.04,655.71,736.39,652.33z"/>
		<path d="M802.06,655.16c-0.64,0.7-1.43,0.7-2.42,0.42c-1.02-1.62-2.17-3.29-3.85-4.84C800.68,650.4,802.58,651.84,802.06,655.16z"
			/>
		<path d="M835.83,660.22c-1.16-1.29-2.34-2.58-3.7-4.08c1.27-0.63,2.46-0.43,3.55-0.38c1.34,0.52,2.16,1.39,2.49,2.72
			C838.02,659.86,837.33,660.53,835.83,660.22z"/>
		<path d="M840.28,655.27c-2.47-0.29-3.05-3.02-5.46-3.95c2.34-1.14,4.01-0.79,5.51,0.52C841.3,652.68,841.26,653.29,840.28,655.27z
			"/>
		<path d="M844.51,648.9c3.54,0.03,3.8,0.2,4.84,2.91c-0.26,0.73-0.68,1.28-1.71,1.27C846.36,652.09,845.88,650.41,844.51,648.9z"/>
		<path d="M847.09,646.44c2.44-0.46,4.13-0.02,4.97,2.14c0.01,0.68-0.31,1.05-0.81,1.39c-0.26-0.05-0.64-0.01-0.82-0.18
			C849.35,648.76,848.31,647.68,847.09,646.44z"/>
		<path d="M784.73,762.2c1.15-0.01,2.29,0,3.44-0.02c1.11-0.02,2.03,0.34,2.73,1.17c0.6,1.31,0.18,2.46-0.46,3.56
			c1.04,1.24,0.3,2.96,1.28,4.16c-0.71,0.02-1.43,0.33-2.12-0.11c-0.79-0.72-0.23-1.81-0.74-2.68c-0.46-0.52-1.03-0.88-1.84-0.66
			c-0.76,0.98,0.05,2.27-0.59,3.19c-0.4,0.42-0.79,0.34-1.46,0.15C784.47,768.12,784.91,765.14,784.73,762.2z M789.26,764.37
			c-0.66-0.12-1.05-0.22-1.43-0.26c-0.42-0.04-0.8,0.07-1.07,0.49c0.02,0.34-0.15,0.76,0.34,1.18
			C787.97,766,788.7,765.77,789.26,764.37z"/>
		<path d="M661.6,677.41c3.61,0,7.05,0,10.44,0c0.23,0.41,6.2,86.98,6.33,89.91c0.09,2.12,0.8,3.1,3,4.82
			c0.09,0.6,0.26,1.21-0.27,1.93c-5.11,0-10.32,0-15.54,0c-0.62-0.43-0.51-1.07-0.42-1.92c2.92-1.42,3.37-4.09,2.95-7.08
			c-0.43-3.11-0.5-6.24-0.63-9.53c-1.81-0.4-3.52-0.22-5.44-0.14c0.03,4.99-1.21,9.71-0.66,14.39c0.51,1.14,1.38,1.73,2.15,2.15
			c0.28,0.82,0.35,1.41-0.24,2.12c-4.24,0-8.61,0-12.95,0c-0.8-0.59-0.3-1.35-0.5-2.1c1.21-0.62,2.32-1.23,3.09-2.68
			C653.84,765.21,660.13,689.51,661.6,677.41z M665.51,713.56c-0.05,0-0.11,0.01-0.16,0.01c-0.88,11.5-1.76,23.01-2.65,34.71
			c1.69,0.02,3.19,0.37,4.57-0.25C666.68,736.41,666.09,724.99,665.51,713.56z"/>
	</g>
</g>
<path fill="none" stroke="#000000" stroke-width="10" stroke-miterlimit="10" d="M971.8,995.06H145.71c-11.05,0-20-8.95-20-20
	V471.23c0-11.05,8.95-20,20-20H971.8c11.05,0,20,8.95,20,20v503.83C991.8,986.1,982.85,995.06,971.8,995.06z"/>
<g>
	<path fill="none" stroke="#000000" stroke-width="10" stroke-miterlimit="10" d="M1047.94,1058.74H69.57c-11.05,0-20-8.95-20-20
		V76.9c0-11.05,8.95-20,20-20h978.37c11.05,0,20,8.95,20,20v961.84C1067.94,1049.78,1058.99,1058.74,1047.94,1058.74z"/>
	<path fill="none" stroke="#000000" stroke-width="10" stroke-miterlimit="10" d="M674.48,136.44h-82.97
		c0-18.09-14.66-32.75-32.75-32.75s-32.75,14.66-32.75,32.75h-82.97c-11.46,0-20.74,9.29-20.74,20.74v2.18
		c0,11.46,9.29,20.74,20.74,20.74h231.44c11.46,0,20.74-9.29,20.74-20.74v-2.18C695.22,145.72,685.93,136.44,674.48,136.44z"/>
</g>
</svg>
